<svg width="18" height="19" viewBox="0 0 18 19" fill="none" xmlns="http://www.w3.org/2000/svg">
<path d="M10.7998 15C10.7998 14.8674 10.7471 14.7402 10.6534 14.6464C10.5596 14.5527 10.4324 14.5 10.2998 14.5H7.2998C7.1672 14.5 7.04002 14.5527 6.94625 14.6464C6.85248 14.7402 6.7998 14.8674 6.7998 15C6.7998 15.1326 6.85248 15.2598 6.94625 15.3536C7.04002 15.4473 7.1672 15.5 7.2998 15.5H10.2998C10.4324 15.5 10.5596 15.4473 10.6534 15.3536C10.7471 15.2598 10.7998 15.1326 10.7998 15Z" fill="#201537"/>
<path d="M11.2695 12.5H8.26953C8.13692 12.5 8.00975 12.5527 7.91598 12.6464C7.82221 12.7402 7.76953 12.8674 7.76953 13C7.76953 13.1326 7.82221 13.2598 7.91598 13.3536C8.00975 13.4473 8.13692 13.5 8.26953 13.5H11.2695C11.4021 13.5 11.5293 13.4473 11.6231 13.3536C11.7169 13.2598 11.7695 13.1326 11.7695 13C11.7695 12.8674 11.7169 12.7402 11.6231 12.6464C11.5293 12.5527 11.4021 12.5 11.2695 12.5Z" fill="#201537"/>
<path d="M11 16.5H8C7.86739 16.5 7.74021 16.5527 7.64645 16.6464C7.55268 16.7402 7.5 16.8674 7.5 17C7.5 17.1326 7.55268 17.2598 7.64645 17.3536C7.74021 17.4473 7.86739 17.5 8 17.5H11C11.1326 17.5 11.2598 17.4473 11.3536 17.3536C11.4473 17.2598 11.5 17.1326 11.5 17C11.5 16.8674 11.4473 16.7402 11.3536 16.6464C11.2598 16.5527 11.1326 16.5 11 16.5Z" fill="#201537"/>
<path d="M16.3496 16.5H12.8496C12.717 16.5 12.5898 16.5527 12.4961 16.6464C12.4023 16.7402 12.3496 16.8674 12.3496 17C12.3496 17.1326 12.4023 17.2598 12.4961 17.3536C12.5898 17.4473 12.717 17.5 12.8496 17.5H16.3496C16.4822 17.5 16.6094 17.4473 16.7032 17.3536C16.7969 17.2598 16.8496 17.1326 16.8496 17C16.8496 16.8674 16.7969 16.7402 16.7032 16.6464C16.6094 16.5527 16.4822 16.5 16.3496 16.5Z" fill="#201537"/>
<path d="M16.8496 14.5H13.3496C13.217 14.5 13.0898 14.5527 12.9961 14.6464C12.9023 14.7402 12.8496 14.8674 12.8496 15C12.8496 15.1326 12.9023 15.2598 12.9961 15.3536C13.0898 15.4473 13.217 15.5 13.3496 15.5H16.8496C16.9822 15.5 17.1094 15.4473 17.2032 15.3536C17.2969 15.2598 17.3496 15.1326 17.3496 15C17.3496 14.8674 17.2969 14.7402 17.2032 14.6464C17.1094 14.5527 16.9822 14.5 16.8496 14.5Z" fill="#201537"/>
<path d="M16.8695 13.5C16.723 11.7395 16.2446 10.0226 15.4595 8.44C14.7075 7.00987 13.624 5.7806 12.2995 4.855L13.4995 2.21C13.5382 2.13095 13.5554 2.04309 13.5492 1.9553C13.5431 1.86751 13.5139 1.78289 13.4645 1.71C13.419 1.64606 13.3591 1.59373 13.2896 1.55725C13.2201 1.52077 13.143 1.50115 13.0645 1.5H4.89953C4.81548 1.49979 4.73273 1.52078 4.65893 1.56102C4.58513 1.60126 4.52267 1.65945 4.47732 1.73022C4.43197 1.80099 4.40519 1.88205 4.39946 1.96591C4.39373 2.04977 4.40923 2.13372 4.44453 2.21L5.66953 4.865C4.35439 5.79104 3.27815 7.01637 2.52953 8.44C1.45453 10.44 1.11953 12.885 1.02953 14.58C1.0148 14.8281 1.05162 15.0766 1.13767 15.3099C1.22372 15.5431 1.35715 15.7559 1.52953 15.935C1.71088 16.1107 1.92544 16.2486 2.16067 16.3404C2.3959 16.4323 2.64708 16.4763 2.89953 16.47H5.99953V15.5H2.85953C2.74638 15.4996 2.63446 15.4764 2.53049 15.4318C2.42653 15.3871 2.33267 15.3219 2.25453 15.24C2.17629 15.1588 2.11586 15.0622 2.07711 14.9563C2.03837 14.8504 2.02216 14.7375 2.02953 14.625C2.09953 13.32 2.37453 10.835 3.40953 8.9C4.13915 7.51355 5.21805 6.34158 6.53953 5.5H7.03953C6.70087 5.96884 6.38872 6.45627 6.10453 6.96C5.81569 7.49632 5.56992 8.05475 5.36953 8.63L6.05453 9.09C6.25691 8.493 6.50601 7.91287 6.79953 7.355C7.1598 6.70623 7.56933 6.08608 8.02453 5.5H8.52453C8.85972 6.30178 9.09645 7.14124 9.22953 8C9.33824 8.63754 9.39178 9.28327 9.38953 9.93L10.1795 9.375C10.1577 8.87214 10.1043 8.37115 10.0195 7.875C9.8848 7.06422 9.67043 6.2687 9.37953 5.5H9.76953L10.2245 4.5H6.60453L5.67953 2.5H12.2845L11.0345 5.235C11.2487 5.34988 11.4543 5.48023 11.6495 5.625C12.875 6.46976 13.8798 7.59631 14.5795 8.91C15.2808 10.3501 15.7161 11.9051 15.8645 13.5H16.8695Z" fill="#201537"/>
</svg>
