<svg width="21" height="22" viewBox="0 0 21 22" fill="none" xmlns="http://www.w3.org/2000/svg">
<g clip-path="url(#clip0_112_3111)">
<path d="M19.7046 13.9158C18.3688 19.2736 12.9423 22.5342 7.58392 21.1981C2.22772 19.8624 -1.03294 14.4356 0.303457 9.07811C1.6386 3.71972 7.06511 0.458753 12.4219 1.79452C17.78 3.13029 21.0404 8.55774 19.7046 13.9158Z" fill="url(#paint0_linear_112_3111)"/>
<path d="M14.412 10.0717C14.6111 8.74089 13.5979 8.0255 12.2124 7.54827L12.6618 5.74557L11.5645 5.47211L11.127 7.22729C10.8385 7.15541 10.5422 7.08759 10.2478 7.0204L10.6885 5.25365L9.59183 4.98018L9.1421 6.78225C8.90332 6.72787 8.66892 6.67411 8.4414 6.61754L8.44265 6.61192L6.92936 6.23406L6.63745 7.40606C6.63745 7.40606 7.4516 7.59264 7.43441 7.60421C7.87884 7.71516 7.95916 8.00925 7.94572 8.2424L7.43379 10.2961C7.46442 10.3039 7.50411 10.3151 7.54786 10.3326C7.5113 10.3236 7.47223 10.3136 7.43191 10.3039L6.71434 13.1807C6.65996 13.3158 6.52213 13.5183 6.21147 13.4414C6.22241 13.4573 5.41389 13.2423 5.41389 13.2423L4.86914 14.4984L6.29711 14.8544C6.56276 14.9209 6.8231 14.9906 7.07938 15.0563L6.62527 16.8796L7.72132 17.153L8.17106 15.3491C8.47046 15.4304 8.76112 15.5054 9.04552 15.576L8.59735 17.3715L9.69465 17.645L10.1488 15.8251C12.0199 16.1792 13.4269 16.0364 14.0192 14.344C14.4964 12.9813 13.9954 12.1953 13.0109 11.6828C13.7279 11.5174 14.268 11.0458 14.412 10.0717ZM11.9049 13.5873C11.5658 14.95 9.27148 14.2134 8.52766 14.0286L9.13022 11.6131C9.87405 11.7987 12.2593 12.1663 11.9049 13.5873ZM12.2443 10.052C11.9349 11.2915 10.0253 10.6617 9.40587 10.5073L9.95218 8.31647C10.5716 8.47086 12.5665 8.75902 12.2443 10.052Z" fill="white"/>
</g>
<defs>
<linearGradient id="paint0_linear_112_3111" x1="0.00390625" y1="1.49524" x2="0.00390625" y2="2001.73" gradientUnits="userSpaceOnUse">
<stop stop-color="#F9AA4B"/>
<stop offset="1" stop-color="#F7931A"/>
</linearGradient>
<clipPath id="clip0_112_3111">
<rect width="21" height="21" fill="white" transform="translate(0 0.5)"/>
</clipPath>
</defs>
</svg>
