<svg width="20" height="20" viewBox="0 0 20 20" fill="none" xmlns="http://www.w3.org/2000/svg">
<path d="M10.0001 1.66667C5.41675 1.66667 1.66675 5.41667 1.66675 10C1.66675 14.5833 5.41675 18.3333 10.0001 18.3333C14.5834 18.3333 18.3334 14.5833 18.3334 10C18.3334 5.41667 14.5834 1.66667 10.0001 1.66667Z" fill="#7CB342"/>
<path d="M18.75 10C18.75 14.875 14.7917 18.75 10 18.75C5.20833 18.75 1.25 14.875 1.25 10C1.25 5.125 5.125 1.25 10 1.25C14.875 1.25 18.75 5.125 18.75 10ZM9.91667 14.0417C9.91667 13.875 9.83333 13.7917 9.66667 13.7083C9.125 13.5417 8.625 13.5417 8.16667 13.0833C8.08333 12.9167 8.08333 12.75 8 12.5417C7.83333 12.375 7.375 12.2917 7.125 12.2083H5.375C5.125 12.125 4.91667 11.75 4.75 11.5C4.75 11.4167 4.75 11.25 4.58333 11.25C4.41667 11.1667 4.25 11.3333 4.04167 11.25C3.95833 11.1667 3.95833 11.0833 3.95833 11C3.95833 10.75 4.125 10.4583 4.29167 10.2917C4.54167 10.125 4.83333 10.375 5.08333 10.375C5.16667 10.375 5.16667 10.375 5.25 10.4583C5.5 10.5417 5.58333 10.875 5.58333 11.1667V11.3333C5.58333 11.4167 5.66667 11.4167 5.75 11.4167C5.83333 10.9583 5.83333 10.5417 5.91667 10.0833C5.91667 9.54167 6.45833 9.04167 6.875 8.875C7.04167 8.79167 7.125 8.95833 7.33333 8.875C7.875 8.70833 9.16667 8.16667 8.91667 7.45833C8.75 6.83333 8.20833 6.25 7.5 6.33333C7.33333 6.41667 7.25 6.5 7.08333 6.58333C6.83333 6.75 6.29167 7.29167 6.04167 7.29167C5.58333 7.20833 5.58333 6.58333 5.70833 6.33333C5.79167 6 6.58333 4.83333 7.125 5.04167L7.45833 5.375C7.625 5.45833 7.91667 5.45833 8.16667 5.45833C8.25 5.45833 8.33333 5.45833 8.41667 5.375C8.5 5.29167 8.5 5.29167 8.5 5.20833C8.5 4.95833 8.25 4.66667 8.08333 4.5C7.91667 4.33333 7.625 4.16667 7.375 4.04167C6.5 3.79167 5.08333 4.125 4.41667 4.75C3.75 5.375 3.20833 6.41667 2.83333 7.29167C2.66667 7.83333 2.5 8.5 2.41667 9.125C2.33333 9.54167 2.25 9.91667 2.5 10.3333C2.75 10.875 3.29167 11.375 3.83333 11.75C4.16667 12 4.875 12 5.25 12.4583C5.5 12.7917 5.41667 13.25 5.41667 13.6667C5.41667 14.2083 5.75 14.625 5.95833 15.0833C6.04167 15.3333 6.125 15.7083 6.20833 15.9583C6.20833 16.0417 6.29167 16.5833 6.29167 16.6667C6.83333 16.9167 7.25 17.2083 7.875 17.375C7.95833 17.375 8.29167 16.8333 8.29167 16.75C8.54167 16.5 8.75 16.125 9 15.9583C9.16667 15.875 9.33333 15.7917 9.54167 15.625C9.70833 15.4583 9.79167 15.0833 9.875 14.8333C9.91667 14.625 10 14.2917 9.91667 14.0417ZM10.0833 5.95833C10.1667 5.95833 10.25 5.875 10.4167 5.79167C10.6667 5.625 10.9583 5.33333 11.2083 5.16667C11.4583 5 11.75 4.70833 11.9167 4.54167C12.1667 4.375 12.375 4 12.4583 3.75C12.5417 3.58333 12.7917 3.20833 12.7083 2.95833C12.625 2.79167 12.1667 2.70833 12 2.625C11.2917 2.45833 10.7083 2.375 10 2.375C9.75 2.375 9.375 2.45833 9.29167 2.70833C9.20833 3.16667 9.54167 3.04167 9.91667 3.16667C9.91667 3.16667 10 3.875 10 3.95833C10.0833 4.375 9.83333 4.66667 9.83333 5.08333C9.83333 5.33333 9.83333 5.79167 10 5.95833H10.0833ZM17.4167 12.0833C17.5 11.9167 17.5 11.625 17.5833 11.4583C17.6667 11.0417 17.6667 10.5833 17.6667 10.1667C17.6667 9.29167 17.5833 8.41667 17.3333 7.625C17.1667 7.375 17.0833 7.08333 17 6.83333C16.8333 6.375 16.5833 5.95833 16.2083 5.625C15.875 5.16667 15.4167 3.95833 14.625 4.33333C14.375 4.41667 14.2083 4.75 14 4.95833C13.8333 5.20833 13.6667 5.5 13.4583 5.75C13.375 5.83333 13.2917 6 13.375 6.08333C13.375 6.16667 13.4583 6.16667 13.5417 6.16667C13.7083 6.25 13.7917 6.25 13.9583 6.33333C14.0417 6.33333 14.125 6.41667 14.0417 6.5C14.0417 6.5 14.0417 6.58333 13.9583 6.58333C13.5417 7.04167 13.0833 7.375 12.6667 7.79167C12.5833 7.875 12.5 8.04167 12.5 8.125C12.5 8.20833 12.5833 8.20833 12.5833 8.29167C12.5833 8.375 12.5 8.375 12.4167 8.45833C12.25 8.54167 12.0833 8.625 11.9583 8.70833C11.875 8.875 11.9583 9.16667 11.875 9.33333C11.7917 9.79167 11.5417 10.125 11.3333 10.5417C11.1667 10.7917 11.0833 11.0833 10.9167 11.3333C10.9167 11.6667 10.8333 11.9583 11 12.2083C11.4167 12.8333 12.2083 12.4583 12.8333 12.75C13 12.8333 13.1667 12.8333 13.2917 13C13.5417 13.25 13.5417 13.7083 13.625 13.9583C13.7083 14.2917 13.7917 14.6667 13.9583 15C14.0417 15.4167 14.2083 15.875 14.2917 16.2083C15.0833 15.5833 15.7917 14.9167 16.2917 14.0417C16.9167 13.5 17.1667 12.7917 17.4167 12.0833Z" fill="#0277BD"/>
</svg>
