<svg width="64" height="64" viewBox="0 0 64 64" fill="none" xmlns="http://www.w3.org/2000/svg">
<rect width="64" height="64" rx="32" fill="#FDE8EB"/>
<path d="M30.3333 35.6667C30.3333 37.9667 34.065 39.8333 38.6667 39.8333C43.2683 39.8333 47 37.9667 47 35.6667M17 27.3333C17 29.6333 20.7317 31.5 25.3333 31.5C27.21 31.5 28.9417 31.19 30.3333 30.6667M17 33.1667C17 35.4667 20.7317 37.3333 25.3333 37.3333C27.21 37.3333 28.94 37.0233 30.3333 36.5M38.6667 33.1667C34.065 33.1667 30.3333 31.3 30.3333 29C30.3333 26.7 34.065 24.8333 38.6667 24.8333C43.2683 24.8333 47 26.7 47 29C47 31.3 43.2683 33.1667 38.6667 33.1667Z" stroke="#EA153B" stroke-width="1.5" stroke-linecap="round" stroke-linejoin="round"/>
<path d="M17 20.6667V39C17 41.3 20.7317 43.1667 25.3333 43.1667C27.21 43.1667 28.94 42.8567 30.3333 42.3333M30.3333 42.3333V29M30.3333 42.3333C30.3333 44.6333 34.065 46.5 38.6667 46.5C43.2683 46.5 47 44.6333 47 42.3333V29M33.6667 25.6667V20.6667" stroke="#EA153B" stroke-width="1.5" stroke-linecap="round" stroke-linejoin="round"/>
<path d="M25.3333 24.8333C20.7317 24.8333 17 22.9667 17 20.6667C17 18.3667 20.7317 16.5 25.3333 16.5C29.935 16.5 33.6667 18.3667 33.6667 20.6667C33.6667 22.9667 29.935 24.8333 25.3333 24.8333Z" stroke="#EA153B" stroke-width="1.5" stroke-linecap="round" stroke-linejoin="round"/>
</svg>
