<svg width="20" height="20" viewBox="0 0 20 20" fill="none" xmlns="http://www.w3.org/2000/svg">
<g clip-path="url(#clip0_112_3092)">
<path d="M10 20C15.5228 20 20 15.5228 20 10C20 4.47715 15.5228 0 10 0C4.47715 0 0 4.47715 0 10C0 15.5228 4.47715 20 10 20Z" fill="#3375BB"/>
<path fill-rule="evenodd" clip-rule="evenodd" d="M14.9083 5.04569C14.9944 5.04582 15.0796 5.06303 15.159 5.09633C15.2385 5.12963 15.3105 5.17835 15.3709 5.23968C15.4314 5.30101 15.4791 5.37373 15.5112 5.45362C15.5434 5.53351 15.5594 5.61898 15.5583 5.70509C15.5271 7.56809 15.4552 8.99309 15.3208 10.1211C15.1898 11.2491 14.9927 12.0871 14.6958 12.7651C14.4958 13.2181 14.2489 13.5931 13.9588 13.9121C13.5678 14.3341 13.1218 14.6403 12.6338 14.9311C12.4254 15.0557 12.2087 15.1788 11.9818 15.3079C11.4968 15.5833 10.9638 15.8862 10.3588 16.2909C10.2521 16.3627 10.1264 16.401 9.99787 16.401C9.8693 16.401 9.74365 16.3627 9.63697 16.2909C9.02297 15.8818 8.48297 15.5749 7.99397 15.2979C7.88517 15.2362 7.77877 15.1756 7.67477 15.1159C7.10277 14.7849 6.58777 14.4689 6.13777 14.0129C5.83777 13.7129 5.57837 13.3469 5.37177 12.9129C5.09077 12.3319 4.89977 11.6289 4.75977 10.7189C4.57047 9.50199 4.47747 7.91099 4.44247 5.70499C4.44107 5.61914 4.45666 5.53386 4.48834 5.45406C4.52002 5.37426 4.56717 5.30151 4.62707 5.23999C4.75065 5.11654 4.91799 5.04689 5.09267 5.04619H5.36147C6.18947 5.04929 8.01747 4.96809 9.59847 3.73719C9.71261 3.64909 9.85273 3.6013 9.99692 3.6013C10.1411 3.6013 10.2812 3.64909 10.3954 3.73719C11.9764 4.96819 13.8044 5.05019 14.6364 5.04619M13.4554 12.3492C13.6585 11.9305 13.8274 11.3522 13.9554 10.5212C14.1085 9.52719 14.2023 8.17719 14.2464 6.34019C13.2714 6.31199 11.5964 6.12449 9.99937 5.04919C8.40247 6.12099 6.72747 6.30799 5.75547 6.33999C5.78987 7.85899 5.85857 9.03999 5.96797 9.96799C6.09297 11.024 6.27097 11.74 6.49297 12.243C6.63987 12.5774 6.80237 12.818 6.99597 13.031C7.25537 13.3154 7.58347 13.5497 8.02997 13.819C8.21537 13.93 8.41997 14.0459 8.64197 14.172C9.03837 14.3963 9.49197 14.653 9.99797 14.975C10.4951 14.658 10.942 14.404 11.334 14.181C11.4521 14.1138 11.565 14.05 11.6729 13.9873C12.2229 13.6717 12.6289 13.4092 12.9319 13.1033C13.1365 12.893 13.3025 12.665 13.4555 12.349" fill="white"/>
</g>
<defs>
<clipPath id="clip0_112_3092">
<rect width="20" height="20" fill="white"/>
</clipPath>
</defs>
</svg>
