<svg width="64" height="64" viewBox="0 0 64 64" fill="none" xmlns="http://www.w3.org/2000/svg">
<rect width="64" height="64" rx="32" fill="#FFF2E6"/>
<path d="M16.9997 16.5V14.8333H15.333V16.5H16.9997ZM32.488 34.345C32.8023 34.6486 33.2233 34.8166 33.6603 34.8128C34.0973 34.809 34.5154 34.6337 34.8244 34.3247C35.1334 34.0157 35.3087 33.5977 35.3125 33.1607C35.3163 32.7237 35.1483 32.3027 34.8447 31.9883L32.488 34.345ZM18.6663 29.8333V16.5H15.333V29.8333H18.6663ZM16.9997 18.1667H30.333V14.8333H16.9997V18.1667ZM15.8213 17.6783L32.488 34.345L34.8447 31.9883L18.178 15.3217L15.8213 17.6783Z" fill="#FF7C00"/>
<path d="M18.666 36.5C18.666 39.6167 18.666 41.1733 19.336 42.3333C19.7748 43.0934 20.406 43.7245 21.166 44.1633C22.326 44.8333 23.8827 44.8333 26.9993 44.8333H35.3327C40.046 44.8333 42.4043 44.8333 43.8677 43.3683C45.3327 41.905 45.3327 39.5467 45.3327 34.8333V26.5C45.3327 23.3833 45.3327 21.8267 44.6627 20.6667C44.2239 19.9066 43.5927 19.2755 42.8327 18.8367C41.6727 18.1667 40.116 18.1667 36.9993 18.1667" stroke="#FF7C00" stroke-width="2" stroke-linecap="round"/>
</svg>
