<svg width="64" height="64" viewBox="0 0 64 64" fill="none" xmlns="http://www.w3.org/2000/svg">
<rect width="64" height="64" rx="32" fill="#EEEFF6"/>
<path d="M40.5333 27.9667C39.5962 27.0296 38.3253 26.5031 37 26.5031C35.6747 26.5031 34.4038 27.0296 33.4667 27.9667C32.5296 28.9038 32.0031 30.1747 32.0031 31.5C32.0031 32.8253 32.5296 34.0962 33.4667 35.0333C33.9307 35.4973 34.4815 35.8654 35.0878 36.1165C35.694 36.3676 36.3438 36.4969 37 36.4969C37.6562 36.4969 38.306 36.3676 38.9122 36.1165C39.5185 35.8654 40.0693 35.4973 40.5333 35.0333C40.9973 34.5693 41.3654 34.0185 41.6165 33.4122C41.8676 32.806 41.9969 32.1562 41.9969 31.5C41.9969 30.8438 41.8676 30.194 41.6165 29.5878C41.3654 28.9815 40.9973 28.4307 40.5333 27.9667ZM23.6667 21.5V41.5H50.3333V21.5H23.6667ZM47 34.8333C46.1167 34.8333 45.2667 35.1833 44.65 35.8167C44.0167 36.4333 43.6667 37.2833 43.6667 38.1667H30.3333C30.3333 37.2833 29.9833 36.4333 29.35 35.8167C28.7333 35.1833 27.8833 34.8333 27 34.8333V28.1667C27.8833 28.1667 28.7333 27.8167 29.35 27.1833C29.9833 26.5667 30.3333 25.7167 30.3333 24.8333H43.6667C43.6667 25.7167 44.0167 26.5667 44.65 27.1833C45.2667 27.8167 46.1167 28.1667 47 28.1667V34.8333ZM20.3333 24.8333H17C16.0833 24.8333 15.3333 24.0833 15.3333 23.1667C15.3333 22.25 16.0833 21.5 17 21.5H20.3333V24.8333ZM20.3333 33.1667H15.3333C14.4167 33.1667 13.6667 32.4167 13.6667 31.5C13.6667 30.5833 14.4167 29.8333 15.3333 29.8333H20.3333V33.1667ZM20.3333 41.5H13.6667C12.7467 41.5 12 40.75 12 39.8333C12 38.9167 12.7467 38.1667 13.6667 38.1667H20.3333V41.5Z" fill="#565DA9"/>
</svg>
