<svg width="20" height="21" viewBox="0 0 20 21" fill="none" xmlns="http://www.w3.org/2000/svg">
<path d="M15.8333 3.83334C16.2754 3.83334 16.6993 4.00893 17.0118 4.32149C17.3244 4.63405 17.5 5.05798 17.5 5.5V7.39C17.7534 7.53628 17.9638 7.74667 18.11 8.00003C18.2563 8.25338 18.3333 8.54078 18.3333 8.83334V12.1667C18.3333 12.4592 18.2563 12.7466 18.11 13C17.9638 13.2533 17.7534 13.4637 17.5 13.61V15.5C17.5 15.942 17.3244 16.366 17.0118 16.6785C16.6993 16.9911 16.2754 17.1667 15.8333 17.1667H4.16667C3.72464 17.1667 3.30072 16.9911 2.98816 16.6785C2.67559 16.366 2.5 15.942 2.5 15.5V5.5C2.5 5.05798 2.67559 4.63405 2.98816 4.32149C3.30072 4.00893 3.72464 3.83334 4.16667 3.83334H15.8333ZM15.8333 5.5H4.16667V15.5H15.8333V13.8333H12.5C11.6304 13.8333 10.7952 13.4935 10.1726 12.8863C9.55004 12.2792 9.1894 11.4527 9.16766 10.5834C9.14591 9.714 9.46477 8.87057 10.0562 8.23302C10.6476 7.59548 11.4648 7.2143 12.3333 7.17084L12.5 7.16667H15.8333V5.5ZM16.6667 8.83334H12.5C12.058 8.83334 11.6341 9.00893 11.3215 9.32149C11.0089 9.63405 10.8333 10.058 10.8333 10.5C10.8333 10.942 11.0089 11.366 11.3215 11.6785C11.6341 11.9911 12.058 12.1667 12.5 12.1667H16.6667V8.83334ZM13.3333 9.66667C13.5543 9.66667 13.7663 9.75447 13.9226 9.91075C14.0789 10.067 14.1667 10.279 14.1667 10.5C14.1667 10.721 14.0789 10.933 13.9226 11.0893C13.7663 11.2455 13.5543 11.3333 13.3333 11.3333C13.1123 11.3333 12.9004 11.2455 12.7441 11.0893C12.5878 10.933 12.5 10.721 12.5 10.5C12.5 10.279 12.5878 10.067 12.7441 9.91075C12.9004 9.75447 13.1123 9.66667 13.3333 9.66667Z" fill="#201537"/>
</svg>
