<svg width="265" height="276" viewBox="0 0 265 276" fill="none" xmlns="http://www.w3.org/2000/svg">
<rect y="0.619385" width="264.5" height="274.626" rx="16" fill="#FFF2E6"/>
<path d="M26.196 34.6194H24.162L28.86 22.5594H31.65L36.348 34.6194H34.242L33.018 31.4874H27.42L26.196 34.6194ZM29.364 26.5554L28.104 29.7414H32.334L31.074 26.5554L30.3 24.3234H30.156L29.364 26.5554ZM40.7176 34.7994C38.1616 34.7994 36.7756 32.9814 36.7756 30.1374C36.7756 27.3114 38.1436 25.4934 40.6096 25.4934C42.1936 25.4934 43.1476 26.2494 43.5436 27.0594H43.5976V22.5594H45.5236V34.6194H43.7416V33.1434H43.6696C43.2376 34.1694 42.2476 34.7994 40.7176 34.7994ZM38.7196 30.1374C38.7196 32.3514 39.4216 33.1434 41.1496 33.1434C42.7336 33.1434 43.5976 32.4414 43.5976 30.9474V29.3454C43.5976 27.8514 42.7336 27.1494 41.1496 27.1494C39.4396 27.1494 38.7196 27.9414 38.7196 30.1374ZM50.9481 34.7994C48.3921 34.7994 47.0061 32.9814 47.0061 30.1374C47.0061 27.3114 48.3741 25.4934 50.8401 25.4934C52.4241 25.4934 53.3781 26.2494 53.7741 27.0594H53.8281V22.5594H55.7541V34.6194H53.9721V33.1434H53.9001C53.4681 34.1694 52.4781 34.7994 50.9481 34.7994ZM48.9501 30.1374C48.9501 32.3514 49.6521 33.1434 51.3801 33.1434C52.9641 33.1434 53.8281 32.4414 53.8281 30.9474V29.3454C53.8281 27.8514 52.9641 27.1494 51.3801 27.1494C49.6701 27.1494 48.9501 27.9414 48.9501 30.1374ZM64.8035 34.6194C62.8055 34.6194 61.7615 33.8814 61.7615 31.8654V27.2934H60.2675V25.6734H61.7975L62.2115 23.4594H63.7055V25.6734H66.4055V27.2934H63.7055V31.7754C63.7055 32.7114 64.1015 32.8734 65.3075 32.8734H66.4055V34.4574C66.0275 34.5474 65.4155 34.6194 64.8035 34.6194ZM69.6832 34.6194H67.7392V25.6194H69.5212V27.0414H69.6112C69.9712 26.2134 70.7992 25.4934 72.1132 25.4934C73.9852 25.4934 74.7052 26.8614 74.7052 28.5354V29.1294H72.7612V28.7694C72.7612 27.5814 72.4192 27.1494 71.2852 27.1494C70.1152 27.1494 69.6832 27.5994 69.6832 28.7874V34.6194ZM78.1852 34.7994C76.5832 34.7994 75.3412 33.9714 75.3412 32.4054C75.3412 30.9294 76.4212 30.1554 78.3292 29.8854L81.4612 29.4174V28.9314C81.4612 27.5994 80.8492 27.2034 79.4452 27.2034C78.0232 27.2034 77.4652 27.6534 77.4652 28.8414V29.1114H75.5932V28.9314C75.5932 26.9334 77.1592 25.4934 79.5532 25.4934C82.0552 25.4934 83.3152 27.0054 83.3152 29.1834V34.6194H81.5152V33.2154H81.4252C80.9032 34.0614 79.8772 34.7994 78.1852 34.7994ZM77.2312 32.2614C77.2312 32.9634 77.6812 33.2514 78.8152 33.2514C80.0752 33.2514 81.4612 32.7474 81.4612 30.9474V30.7854L78.6172 31.2174C77.5912 31.3614 77.2312 31.5954 77.2312 32.2614ZM87.1207 34.6194H85.1767V25.6734H86.9587V27.3474H87.0307C87.4447 26.3934 88.3987 25.4934 90.1447 25.4934C92.4667 25.4934 93.5107 26.9694 93.5107 29.0034V34.6194H91.5667V29.4354C91.5667 27.8334 91.0627 27.1674 89.4247 27.1674C87.8407 27.1674 87.1207 27.7794 87.1207 29.4534V34.6194ZM99.0812 34.7994C96.4712 34.7994 95.1032 33.7734 95.1032 31.5954V31.5594H96.9752V31.8834C96.9752 32.8554 97.4072 33.2154 99.1172 33.2154C100.557 33.2154 100.827 32.8914 100.827 32.2254C100.827 31.5054 100.395 31.2894 99.0812 31.0554L97.6952 30.8214C96.0932 30.5334 95.0852 29.8134 95.0852 28.1934C95.0852 26.5734 96.4172 25.4934 98.7572 25.4934C100.863 25.4934 102.447 26.5374 102.447 28.5714V28.7334H100.593V28.5174C100.593 27.6894 100.305 27.0954 98.7032 27.0954C97.2812 27.0954 96.9392 27.4734 96.9392 28.1574C96.9392 28.8414 97.2632 29.0394 98.5232 29.2914L100.035 29.5794C101.763 29.9214 102.663 30.6954 102.663 32.1714C102.663 33.8274 101.349 34.7994 99.0812 34.7994ZM106.697 34.7994C105.095 34.7994 103.853 33.9714 103.853 32.4054C103.853 30.9294 104.933 30.1554 106.841 29.8854L109.973 29.4174V28.9314C109.973 27.5994 109.361 27.2034 107.957 27.2034C106.535 27.2034 105.977 27.6534 105.977 28.8414V29.1114H104.105V28.9314C104.105 26.9334 105.671 25.4934 108.065 25.4934C110.567 25.4934 111.827 27.0054 111.827 29.1834V34.6194H110.027V33.2154H109.937C109.415 34.0614 108.389 34.7994 106.697 34.7994ZM105.743 32.2614C105.743 32.9634 106.193 33.2514 107.327 33.2514C108.587 33.2514 109.973 32.7474 109.973 30.9474V30.7854L107.129 31.2174C106.103 31.3614 105.743 31.5954 105.743 32.2614ZM117.667 34.8174C114.877 34.8174 113.293 32.9274 113.293 30.1554C113.293 27.3654 114.931 25.4934 117.739 25.4934C120.097 25.4934 121.717 26.9514 121.717 29.0934V29.2554H119.791V29.1474C119.791 27.8334 119.107 27.2394 117.613 27.2394C115.885 27.2394 115.219 28.2114 115.219 30.1554C115.219 32.0994 115.885 33.0534 117.613 33.0534C119.107 33.0534 119.791 32.4774 119.791 31.1634V31.0554H121.717V31.2174C121.717 33.3414 120.079 34.8174 117.667 34.8174ZM126.837 34.6194C124.839 34.6194 123.795 33.8814 123.795 31.8654V27.2934H122.301V25.6734H123.831L124.245 23.4594H125.739V25.6734H128.439V27.2934H125.739V31.7754C125.739 32.7114 126.135 32.8734 127.341 32.8734H128.439V34.4574C128.061 34.5474 127.449 34.6194 126.837 34.6194ZM131.52 24.5394H129.594L129.576 22.5594H131.52V24.5394ZM131.538 34.6194H129.594V25.6194H131.538V34.6194ZM137.339 34.7994C134.585 34.7994 132.875 32.9274 132.875 30.1374C132.875 27.3654 134.585 25.4934 137.339 25.4934C140.075 25.4934 141.731 27.3654 141.731 30.1374C141.731 32.9274 140.075 34.7994 137.339 34.7994ZM137.339 33.0714C139.211 33.0714 139.859 32.1534 139.859 30.1374C139.859 28.1394 139.211 27.2214 137.339 27.2214C135.449 27.2214 134.783 28.1394 134.783 30.1374C134.783 32.1534 135.449 33.0714 137.339 33.0714ZM145.128 34.6194H143.184V25.6734H144.966V27.3474H145.038C145.452 26.3934 146.406 25.4934 148.152 25.4934C150.474 25.4934 151.518 26.9694 151.518 29.0034V34.6194H149.574V29.4354C149.574 27.8334 149.07 27.1674 147.432 27.1674C145.848 27.1674 145.128 27.7794 145.128 29.4534V34.6194ZM157.089 34.7994C154.479 34.7994 153.111 33.7734 153.111 31.5954V31.5594H154.983V31.8834C154.983 32.8554 155.415 33.2154 157.125 33.2154C158.565 33.2154 158.835 32.8914 158.835 32.2254C158.835 31.5054 158.403 31.2894 157.089 31.0554L155.703 30.8214C154.101 30.5334 153.093 29.8134 153.093 28.1934C153.093 26.5734 154.425 25.4934 156.765 25.4934C158.871 25.4934 160.455 26.5374 160.455 28.5714V28.7334H158.601V28.5174C158.601 27.6894 158.313 27.0954 156.711 27.0954C155.289 27.0954 154.947 27.4734 154.947 28.1574C154.947 28.8414 155.271 29.0394 156.531 29.2914L158.043 29.5794C159.771 29.9214 160.671 30.6954 160.671 32.1714C160.671 33.8274 159.357 34.7994 157.089 34.7994ZM167.576 34.6194H165.632V25.6734H167.414V27.3474H167.486C167.9 26.3934 168.836 25.4934 170.546 25.4934C172.112 25.4934 173.084 26.2134 173.516 27.3474H173.57C173.984 26.4114 174.902 25.4934 176.666 25.4934C178.97 25.4934 179.996 26.9694 179.996 29.0034V34.6194H178.052V29.4354C178.052 27.8334 177.566 27.1674 175.946 27.1674C174.47 27.1674 173.786 27.7794 173.786 29.4174V34.6194H171.842V29.4354C171.842 27.8334 171.356 27.1674 169.736 27.1674C168.26 27.1674 167.576 27.7794 167.576 29.3994V34.6194ZM184.269 34.7994C182.667 34.7994 181.425 33.9714 181.425 32.4054C181.425 30.9294 182.505 30.1554 184.413 29.8854L187.545 29.4174V28.9314C187.545 27.5994 186.933 27.2034 185.529 27.2034C184.107 27.2034 183.549 27.6534 183.549 28.8414V29.1114H181.677V28.9314C181.677 26.9334 183.243 25.4934 185.637 25.4934C188.139 25.4934 189.399 27.0054 189.399 29.1834V34.6194H187.599V33.2154H187.509C186.987 34.0614 185.961 34.7994 184.269 34.7994ZM183.315 32.2614C183.315 32.9634 183.765 33.2514 184.899 33.2514C186.159 33.2514 187.545 32.7474 187.545 30.9474V30.7854L184.701 31.2174C183.675 31.3614 183.315 31.5954 183.315 32.2614ZM193.205 34.6194H191.261V25.6734H193.043V27.3474H193.115C193.529 26.3934 194.483 25.4934 196.229 25.4934C198.551 25.4934 199.595 26.9694 199.595 29.0034V34.6194H197.651V29.4354C197.651 27.8334 197.147 27.1674 195.509 27.1674C193.925 27.1674 193.205 27.7794 193.205 29.4534V34.6194ZM204.786 34.7994C202.446 34.7994 201.402 33.2334 201.402 31.1994V25.6734H203.346V30.8574C203.346 32.4594 203.958 33.1254 205.506 33.1254C207 33.1254 207.846 32.4774 207.846 30.7134V25.6734H209.79V34.6194H207.99V32.8374H207.918C207.486 33.8634 206.532 34.7994 204.786 34.7994ZM214.117 34.7994C212.515 34.7994 211.273 33.9714 211.273 32.4054C211.273 30.9294 212.353 30.1554 214.261 29.8854L217.393 29.4174V28.9314C217.393 27.5994 216.781 27.2034 215.377 27.2034C213.955 27.2034 213.397 27.6534 213.397 28.8414V29.1114H211.525V28.9314C211.525 26.9334 213.091 25.4934 215.485 25.4934C217.987 25.4934 219.247 27.0054 219.247 29.1834V34.6194H217.447V33.2154H217.357C216.835 34.0614 215.809 34.7994 214.117 34.7994ZM213.163 32.2614C213.163 32.9634 213.613 33.2514 214.747 33.2514C216.007 33.2514 217.393 32.7474 217.393 30.9474V30.7854L214.549 31.2174C213.523 31.3614 213.163 31.5954 213.163 32.2614ZM223.052 34.6194H221.108V22.5594H223.052V34.6194ZM226.972 34.6194H225.028V22.5594H226.972V34.6194ZM230.25 37.6794C229.764 37.6794 229.206 37.6074 228.9 37.5174V35.9334H230.124C230.898 35.9334 231.168 35.8074 231.456 35.1414L231.798 34.3854L228 25.6734H230.142L231.942 30.0114L232.752 31.9554H232.896L233.634 30.0114L235.272 25.6734H237.414L233.184 35.6814C232.518 37.2654 231.654 37.6794 230.25 37.6794ZM29.058 59.7994C26.304 59.7994 24.594 57.9274 24.594 55.1374C24.594 52.3654 26.304 50.4934 29.058 50.4934C31.794 50.4934 33.45 52.3654 33.45 55.1374C33.45 57.9274 31.794 59.7994 29.058 59.7994ZM29.058 58.0714C30.93 58.0714 31.578 57.1534 31.578 55.1374C31.578 53.1394 30.93 52.2214 29.058 52.2214C27.168 52.2214 26.502 53.1394 26.502 55.1374C26.502 57.1534 27.168 58.0714 29.058 58.0714ZM36.8472 59.6194H34.9032V50.6194H36.6852V52.0414H36.7752C37.1352 51.2134 37.9632 50.4934 39.2772 50.4934C41.1492 50.4934 41.8692 51.8614 41.8692 53.5354V54.1294H39.9252V53.7694C39.9252 52.5814 39.5832 52.1494 38.4492 52.1494C37.2792 52.1494 36.8472 52.5994 36.8472 53.7874V59.6194ZM50.3898 59.7994C47.7798 59.7994 46.4118 58.7734 46.4118 56.5954V56.5594H48.2838V56.8834C48.2838 57.8554 48.7158 58.2154 50.4258 58.2154C51.8658 58.2154 52.1358 57.8914 52.1358 57.2254C52.1358 56.5054 51.7038 56.2894 50.3898 56.0554L49.0038 55.8214C47.4018 55.5334 46.3938 54.8134 46.3938 53.1934C46.3938 51.5734 47.7258 50.4934 50.0658 50.4934C52.1718 50.4934 53.7558 51.5374 53.7558 53.5714V53.7334H51.9018V53.5174C51.9018 52.6894 51.6138 52.0954 50.0118 52.0954C48.5898 52.0954 48.2478 52.4734 48.2478 53.1574C48.2478 53.8414 48.5718 54.0394 49.8318 54.2914L51.3438 54.5794C53.0718 54.9214 53.9718 55.6954 53.9718 57.1714C53.9718 58.8274 52.6578 59.7994 50.3898 59.7994ZM56.4371 62.6794C55.9511 62.6794 55.3931 62.6074 55.0871 62.5174V60.9334H56.3111C57.0851 60.9334 57.3551 60.8074 57.6431 60.1414L57.9851 59.3854L54.1871 50.6734H56.3291L58.1291 55.0114L58.9391 56.9554H59.0831L59.8211 55.0114L61.4591 50.6734H63.6011L59.3711 60.6814C58.7051 62.2654 57.8411 62.6794 56.4371 62.6794ZM66.4839 59.6194H64.5399V50.6734H66.3219V52.3474H66.3939C66.8079 51.3934 67.7619 50.4934 69.5079 50.4934C71.8299 50.4934 72.8739 51.9694 72.8739 54.0034V59.6194H70.9299V54.4354C70.9299 52.8334 70.4259 52.1674 68.7879 52.1674C67.2039 52.1674 66.4839 52.7794 66.4839 54.4534V59.6194ZM78.7141 59.8174C75.9241 59.8174 74.3401 57.9274 74.3401 55.1554C74.3401 52.3654 75.9781 50.4934 78.7861 50.4934C81.1441 50.4934 82.7641 51.9514 82.7641 54.0934V54.2554H80.8381V54.1474C80.8381 52.8334 80.1541 52.2394 78.6601 52.2394C76.9321 52.2394 76.2661 53.2114 76.2661 55.1554C76.2661 57.0994 76.9321 58.0534 78.6601 58.0534C80.1541 58.0534 80.8381 57.4774 80.8381 56.1634V56.0554H82.7641V56.2174C82.7641 58.3414 81.1261 59.8174 78.7141 59.8174ZM91.4519 59.6194C89.4539 59.6194 88.4099 58.8814 88.4099 56.8654V52.2934H86.9159V50.6734H88.4459L88.8599 48.4594H90.3539V50.6734H93.0539V52.2934H90.3539V56.7754C90.3539 57.7114 90.7499 57.8734 91.9559 57.8734H93.0539V59.4574C92.6759 59.5474 92.0639 59.6194 91.4519 59.6194ZM96.3843 59.6194H94.4403V47.5594H96.3843V52.1674H96.4563C96.8703 51.3574 97.8243 50.4934 99.4443 50.4934C101.784 50.4934 102.774 52.0234 102.774 53.9854V59.6194H100.83V54.4354C100.83 52.8334 100.326 52.1674 98.6883 52.1674C97.1043 52.1674 96.3843 52.7794 96.3843 54.4714V59.6194ZM108.631 59.7994C105.679 59.7994 104.293 57.9274 104.293 55.1374C104.293 52.3654 105.949 50.4934 108.613 50.4934C111.025 50.4934 112.717 51.9334 112.717 54.3814C112.717 54.8494 112.663 55.3354 112.609 55.6054H106.111C106.183 57.2434 106.777 58.0714 108.649 58.0714C110.143 58.0714 110.719 57.5674 110.719 56.7574V56.6134H112.645V56.7754C112.645 58.6114 111.043 59.7994 108.631 59.7994ZM108.577 52.1314C106.885 52.1314 106.237 52.9234 106.129 54.3094H110.863C110.935 52.7794 110.107 52.1314 108.577 52.1314ZM116.212 59.6194H114.268V50.6734H116.05V52.3474H116.122C116.536 51.3934 117.472 50.4934 119.182 50.4934C120.748 50.4934 121.72 51.2134 122.152 52.3474H122.206C122.62 51.4114 123.538 50.4934 125.302 50.4934C127.606 50.4934 128.632 51.9694 128.632 54.0034V59.6194H126.688V54.4354C126.688 52.8334 126.202 52.1674 124.582 52.1674C123.106 52.1674 122.422 52.7794 122.422 54.4174V59.6194H120.478V54.4354C120.478 52.8334 119.992 52.1674 118.372 52.1674C116.896 52.1674 116.212 52.7794 116.212 54.3994V59.6194ZM137.468 59.7994C134.912 59.7994 133.526 57.9814 133.526 55.1374C133.526 52.3114 134.894 50.4934 137.36 50.4934C138.944 50.4934 139.898 51.2494 140.294 52.0594H140.348V47.5594H142.274V59.6194H140.492V58.1434H140.42C139.988 59.1694 138.998 59.7994 137.468 59.7994ZM135.47 55.1374C135.47 57.3514 136.172 58.1434 137.9 58.1434C139.484 58.1434 140.348 57.4414 140.348 55.9474V54.3454C140.348 52.8514 139.484 52.1494 137.9 52.1494C136.19 52.1494 135.47 52.9414 135.47 55.1374ZM146.004 49.5394H144.078L144.06 47.5594H146.004V49.5394ZM146.022 59.6194H144.078V50.6194H146.022V59.6194ZM149.752 59.6194H147.808V50.6194H149.59V52.0414H149.68C150.04 51.2134 150.868 50.4934 152.182 50.4934C154.054 50.4934 154.774 51.8614 154.774 53.5354V54.1294H152.83V53.7694C152.83 52.5814 152.488 52.1494 151.354 52.1494C150.184 52.1494 149.752 52.5994 149.752 53.7874V59.6194ZM159.995 59.7994C157.043 59.7994 155.656 57.9274 155.656 55.1374C155.656 52.3654 157.312 50.4934 159.977 50.4934C162.389 50.4934 164.081 51.9334 164.081 54.3814C164.081 54.8494 164.027 55.3354 163.973 55.6054H157.475C157.547 57.2434 158.141 58.0714 160.013 58.0714C161.507 58.0714 162.083 57.5674 162.083 56.7574V56.6134H164.009V56.7754C164.009 58.6114 162.407 59.7994 159.995 59.7994ZM159.941 52.1314C158.249 52.1314 157.601 52.9234 157.493 54.3094H162.227C162.299 52.7794 161.471 52.1314 159.941 52.1314ZM169.734 59.8174C166.944 59.8174 165.36 57.9274 165.36 55.1554C165.36 52.3654 166.998 50.4934 169.806 50.4934C172.164 50.4934 173.784 51.9514 173.784 54.0934V54.2554H171.858V54.1474C171.858 52.8334 171.174 52.2394 169.68 52.2394C167.952 52.2394 167.286 53.2114 167.286 55.1554C167.286 57.0994 167.952 58.0534 169.68 58.0534C171.174 58.0534 171.858 57.4774 171.858 56.1634V56.0554H173.784V56.2174C173.784 58.3414 172.146 59.8174 169.734 59.8174ZM178.903 59.6194C176.905 59.6194 175.861 58.8814 175.861 56.8654V52.2934H174.367V50.6734H175.897L176.311 48.4594H177.805V50.6734H180.505V52.2934H177.805V56.7754C177.805 57.7114 178.201 57.8734 179.407 57.8734H180.505V59.4574C180.127 59.5474 179.515 59.6194 178.903 59.6194ZM183.836 59.6194H181.892V47.5594H183.836V59.6194ZM187.113 62.6794C186.627 62.6794 186.069 62.6074 185.763 62.5174V60.9334H186.987C187.761 60.9334 188.031 60.8074 188.319 60.1414L188.661 59.3854L184.863 50.6734H187.005L188.805 55.0114L189.615 56.9554H189.759L190.497 55.0114L192.135 50.6734H194.277L190.047 60.6814C189.381 62.2654 188.517 62.6794 187.113 62.6794ZM201.214 59.6194H199.27V52.2934H197.956V50.6734H199.27C199.306 48.6574 200.512 47.5594 202.78 47.5594H203.5V49.1074H202.42C201.556 49.1074 201.16 49.4314 201.16 50.1874V50.6734H203.5V52.2934H201.214V59.6194ZM206.476 59.6194H204.532V50.6194H206.314V52.0414H206.404C206.764 51.2134 207.592 50.4934 208.906 50.4934C210.778 50.4934 211.498 51.8614 211.498 53.5354V54.1294H209.554V53.7694C209.554 52.5814 209.212 52.1494 208.078 52.1494C206.908 52.1494 206.476 52.5994 206.476 53.7874V59.6194ZM216.845 59.7994C214.091 59.7994 212.381 57.9274 212.381 55.1374C212.381 52.3654 214.091 50.4934 216.845 50.4934C219.581 50.4934 221.237 52.3654 221.237 55.1374C221.237 57.9274 219.581 59.7994 216.845 59.7994ZM216.845 58.0714C218.717 58.0714 219.365 57.1534 219.365 55.1374C219.365 53.1394 218.717 52.2214 216.845 52.2214C214.955 52.2214 214.289 53.1394 214.289 55.1374C214.289 57.1534 214.955 58.0714 216.845 58.0714ZM224.634 59.6194H222.69V50.6734H224.472V52.3474H224.544C224.958 51.3934 225.894 50.4934 227.604 50.4934C229.17 50.4934 230.142 51.2134 230.574 52.3474H230.628C231.042 51.4114 231.96 50.4934 233.724 50.4934C236.028 50.4934 237.054 51.9694 237.054 54.0034V59.6194H235.11V54.4354C235.11 52.8334 234.624 52.1674 233.004 52.1674C231.528 52.1674 230.844 52.7794 230.844 54.4174V59.6194H228.9V54.4354C228.9 52.8334 228.414 52.1674 226.794 52.1674C225.318 52.1674 224.634 52.7794 224.634 54.3994V59.6194ZM28.932 84.7994C25.98 84.7994 24.594 82.9274 24.594 80.1374C24.594 77.3654 26.25 75.4934 28.914 75.4934C31.326 75.4934 33.018 76.9334 33.018 79.3814C33.018 79.8494 32.964 80.3354 32.91 80.6054H26.412C26.484 82.2434 27.078 83.0714 28.95 83.0714C30.444 83.0714 31.02 82.5674 31.02 81.7574V81.6134H32.946V81.7754C32.946 83.6114 31.344 84.7994 28.932 84.7994ZM28.878 77.1314C27.186 77.1314 26.538 77.9234 26.43 79.3094H31.164C31.236 77.7794 30.408 77.1314 28.878 77.1314ZM35.4622 84.6194H33.2662L36.4702 80.1194V79.9934L33.2662 75.6734H35.5342L37.9462 78.9854H38.0722L40.4662 75.6734H42.6622L39.4582 80.0654V80.2094L42.6622 84.6194H40.3942L37.9822 81.1994H37.8562L35.4622 84.6194ZM47.1965 84.8174C44.4065 84.8174 42.8225 82.9274 42.8225 80.1554C42.8225 77.3654 44.4605 75.4934 47.2685 75.4934C49.6265 75.4934 51.2465 76.9514 51.2465 79.0934V79.2554H49.3205V79.1474C49.3205 77.8334 48.6365 77.2394 47.1425 77.2394C45.4145 77.2394 44.7485 78.2114 44.7485 80.1554C44.7485 82.0994 45.4145 83.0534 47.1425 83.0534C48.6365 83.0534 49.3205 82.4774 49.3205 81.1634V81.0554H51.2465V81.2174C51.2465 83.3414 49.6085 84.8174 47.1965 84.8174ZM54.6714 84.6194H52.7274V72.5594H54.6714V77.1674H54.7434C55.1574 76.3574 56.1114 75.4934 57.7314 75.4934C60.0714 75.4934 61.0614 77.0234 61.0614 78.9854V84.6194H59.1174V79.4354C59.1174 77.8334 58.6134 77.1674 56.9754 77.1674C55.3914 77.1674 54.6714 77.7794 54.6714 79.4714V84.6194ZM65.3883 84.7994C63.7863 84.7994 62.5443 83.9714 62.5443 82.4054C62.5443 80.9294 63.6243 80.1554 65.5323 79.8854L68.6643 79.4174V78.9314C68.6643 77.5994 68.0523 77.2034 66.6483 77.2034C65.2263 77.2034 64.6683 77.6534 64.6683 78.8414V79.1114H62.7963V78.9314C62.7963 76.9334 64.3623 75.4934 66.7563 75.4934C69.2583 75.4934 70.5183 77.0054 70.5183 79.1834V84.6194H68.7183V83.2154H68.6283C68.1063 84.0614 67.0803 84.7994 65.3883 84.7994ZM64.4343 82.2614C64.4343 82.9634 64.8843 83.2514 66.0183 83.2514C67.2783 83.2514 68.6643 82.7474 68.6643 80.9474V80.7854L65.8203 81.2174C64.7943 81.3614 64.4343 81.5954 64.4343 82.2614ZM74.3238 84.6194H72.3798V75.6734H74.1618V77.3474H74.2338C74.6478 76.3934 75.6018 75.4934 77.3478 75.4934C79.6698 75.4934 80.7138 76.9694 80.7138 79.0034V84.6194H78.7698V79.4354C78.7698 77.8334 78.2658 77.1674 76.6278 77.1674C75.0438 77.1674 74.3238 77.7794 74.3238 79.4534V84.6194ZM86.0139 83.7734C83.5479 83.7734 82.1799 82.1534 82.1799 79.6334C82.1799 77.1134 83.5659 75.4934 86.0859 75.4934C87.5259 75.4934 88.6419 76.1054 89.0739 77.1494H89.1459V75.6734H90.9279V83.9714C90.9279 86.6174 89.3799 87.8594 86.7699 87.8594C84.2319 87.8594 82.6479 86.6534 82.6479 84.4934H84.5739C84.5739 85.7174 85.0239 86.1314 86.8239 86.1314C88.5699 86.1314 89.0019 85.6274 89.0019 83.9714V82.1894H88.9299C88.5159 83.0534 87.4719 83.7734 86.0139 83.7734ZM84.1239 79.6334C84.1239 81.4694 84.8799 82.1174 86.5719 82.1174C88.0299 82.1174 89.0019 81.4154 89.0019 79.9034V79.3454C89.0019 77.8514 88.0299 77.1494 86.5359 77.1494C84.8619 77.1494 84.1239 77.7974 84.1239 79.6334ZM96.7308 84.7994C93.7788 84.7994 92.3928 82.9274 92.3928 80.1374C92.3928 77.3654 94.0488 75.4934 96.7128 75.4934C99.1248 75.4934 100.817 76.9334 100.817 79.3814C100.817 79.8494 100.763 80.3354 100.709 80.6054H94.2108C94.2828 82.2434 94.8768 83.0714 96.7488 83.0714C98.2428 83.0714 98.8188 82.5674 98.8188 81.7574V81.6134H100.745V81.7754C100.745 83.6114 99.1428 84.7994 96.7308 84.7994ZM96.6768 77.1314C94.9848 77.1314 94.3368 77.9234 94.2288 79.3094H98.9628C99.0348 77.7794 98.2068 77.1314 96.6768 77.1314ZM106.218 84.7994C103.608 84.7994 102.24 83.7734 102.24 81.5954V81.5594H104.112V81.8834C104.112 82.8554 104.544 83.2154 106.254 83.2154C107.694 83.2154 107.964 82.8914 107.964 82.2254C107.964 81.5054 107.532 81.2894 106.218 81.0554L104.832 80.8214C103.23 80.5334 102.222 79.8134 102.222 78.1934C102.222 76.5734 103.554 75.4934 105.894 75.4934C108 75.4934 109.584 76.5374 109.584 78.5714V78.7334H107.73V78.5174C107.73 77.6894 107.442 77.0954 105.84 77.0954C104.418 77.0954 104.076 77.4734 104.076 78.1574C104.076 78.8414 104.4 79.0394 105.66 79.2914L107.172 79.5794C108.9 79.9214 109.8 80.6954 109.8 82.1714C109.8 83.8274 108.486 84.7994 106.218 84.7994ZM113.438 84.6194H110.972V81.8294H113.438V84.6194Z" fill="black"/>
<path d="M67.1957 122.329C67.1957 122.329 63.4356 131.78 84.4314 152.768C84.4314 152.768 103.218 174.619 111.11 162.939C117.828 152.999 108.208 139.882 101.912 132.955C98.2049 128.995 94.0479 125.482 89.5253 122.488C82.1292 117.704 72.3585 114.857 67.1957 122.329Z" fill="#8041FF"/>
<path opacity="0.4" d="M67.1957 122.329C67.1957 122.329 63.4356 131.78 84.4314 152.768C84.4314 152.768 103.218 174.619 111.11 162.939C117.828 152.999 108.208 139.882 101.912 132.955C98.2049 128.995 94.0479 125.482 89.5253 122.488C82.1292 117.704 72.3585 114.857 67.1957 122.329Z" fill="black"/>
<path d="M66.9269 123.046C66.9269 123.046 60.4407 134.764 81.4365 155.787C81.4365 155.787 103.077 176.087 109.856 163.714C114.502 155.239 105.214 142.891 98.9169 135.963C95.6186 132.324 90.4489 127.43 86.3132 124.756C78.9137 119.962 70.5767 117.315 66.9269 123.046Z" fill="#8041FF"/>
<path opacity="0.2" d="M94.8923 137.21C85.7198 128.038 75.3829 123.503 71.8041 127.082C68.2252 130.661 72.7598 140.998 81.9323 150.17C91.1047 159.343 101.442 163.877 105.02 160.298C108.599 156.72 104.065 146.383 94.8923 137.21Z" fill="white"/>
<path d="M78.0658 131.597L81.0194 134.547L80.2577 135.309L77.3937 132.434L75.9048 133.927L78.9722 136.994L77.8038 138.166L93.3818 153.744L94.171 152.955L97.1384 156.122L98.8617 154.399L95.7599 151.297L96.2424 150.814L99.2546 153.826L100.905 152.176L97.3866 148.633C97.3866 148.633 98.7307 147.344 94.9293 142.901C92.0342 139.517 89.2323 140.213 89.2323 140.213C89.2323 140.213 89.4356 138.517 87.447 136.005C86.1696 134.465 84.4079 133.405 82.4497 132.996L79.5581 130.101L78.0658 131.597ZM92.9613 144.442C95.1085 146.951 92.272 149.043 92.272 149.043L88.412 145.186C88.412 145.186 90.8176 141.929 92.9613 144.442ZM86.4131 138.317C88.4017 140.73 85.5756 142.109 85.5756 142.109L82.2463 138.783C82.2463 138.783 84.135 135.536 86.4234 138.317H86.4131Z" fill="#8041FF"/>
<path opacity="0.4" d="M78.0658 131.597L81.0194 134.547L80.2577 135.309L77.3937 132.434L75.9048 133.927L78.9722 136.994L77.8038 138.166L93.3818 153.744L94.171 152.955L97.1384 156.122L98.8617 154.399L95.7599 151.297L96.2424 150.814L99.2546 153.826L100.905 152.176L97.3866 148.633C97.3866 148.633 98.7307 147.344 94.9293 142.901C92.0342 139.517 89.2323 140.213 89.2323 140.213C89.2323 140.213 89.4356 138.517 87.447 136.005C86.1696 134.465 84.4079 133.405 82.4497 132.996L79.5581 130.101L78.0658 131.597ZM92.9613 144.442C95.1085 146.951 92.272 149.043 92.272 149.043L88.412 145.186C88.412 145.186 90.8176 141.929 92.9613 144.442ZM86.4131 138.317C88.4017 140.73 85.5756 142.109 85.5756 142.109L82.2463 138.783C82.2463 138.783 84.135 135.536 86.4234 138.317H86.4131Z" fill="black"/>
<path d="M77.2455 133.189L80.1957 136.143L79.4375 136.901L76.5735 134.037L75.0812 135.536L78.152 138.604L76.9836 139.772L92.5581 155.35L93.3474 154.561L96.3182 157.731L98.0414 156.008L94.9396 152.906L95.4221 152.424L98.4309 155.436L100.082 153.782L96.5457 150.246C96.5457 150.246 97.8898 148.96 94.0918 144.518C91.1968 141.133 88.3948 141.829 88.3948 141.829C88.3948 141.829 88.5982 140.134 86.6096 137.621C85.3313 136.082 83.5701 135.021 81.6122 134.609L78.7172 131.718L77.2455 133.189ZM92.1411 146.034C94.2848 148.547 91.4518 150.639 91.4518 150.639L87.5815 146.768C87.5815 146.768 89.9974 143.525 92.1411 146.034ZM85.5929 139.913C87.5815 142.326 84.7554 143.704 84.7554 143.704L81.4364 140.361C81.4364 140.361 83.3148 137.146 85.6032 139.913H85.5929Z" fill="#8041FF"/>
<path d="M66.4409 124.397C66.4961 124.397 66.31 125.311 66.2341 126.961C66.1452 129.291 66.3983 131.622 66.9855 133.878C67.3852 135.436 67.9096 136.958 68.5536 138.431C69.2987 140.12 70.1721 141.749 71.166 143.304C73.2339 146.61 76.0255 149.911 79.0929 153.223C85.1793 159.892 92.2135 164.455 97.7588 166.441C100.537 167.419 102.97 167.619 104.59 167.347L105.162 167.261L105.658 167.137C105.813 167.099 105.955 167.061 106.085 167.03C106.216 166.999 106.323 166.944 106.43 166.909C106.635 166.82 106.849 166.753 107.068 166.709C106.879 166.83 106.678 166.93 106.468 167.009C106.368 167.054 106.258 167.109 106.123 167.157C105.989 167.206 105.851 167.24 105.699 167.288C105.548 167.337 105.379 167.392 105.2 167.44C105.021 167.488 104.824 167.516 104.617 167.554C102.973 167.898 100.482 167.75 97.6313 166.799C91.9723 164.879 84.8381 160.316 78.6931 153.589C75.6119 150.266 72.8341 146.927 70.7387 143.566C69.7403 141.985 68.869 140.326 68.1331 138.607C67.4955 137.106 66.9848 135.554 66.6064 133.968C66.043 131.673 65.843 129.304 66.0136 126.948C66.0377 126.531 66.0894 126.165 66.1342 125.845C66.1654 125.576 66.2102 125.309 66.2686 125.045C66.304 124.824 66.3617 124.607 66.4409 124.397Z" fill="#FAFAFA"/>
<path opacity="0.4" d="M104.438 160.771C104.438 160.771 96.8558 167.006 80.8126 151.352C64.7694 135.698 71.8036 127.082 71.8036 127.082C71.8036 127.082 66.0101 134.223 82.3394 150.638C96.5594 164.931 104.438 160.771 104.438 160.771Z" fill="black"/>
<path d="M75.0812 135.191C75.4179 135.435 75.7234 135.718 75.991 136.036C76.5459 136.605 77.3352 137.439 78.3002 138.472L78.438 138.621L78.276 138.759L77.1628 139.672V139.327C78.7758 140.913 80.7334 142.856 82.8288 144.969C85.5584 147.726 87.9985 150.235 89.7631 152.072C90.6419 152.992 91.345 153.744 91.8309 154.268C92.0971 154.522 92.3288 154.811 92.5202 155.126C92.2078 154.926 91.9218 154.687 91.669 154.416C91.1451 153.933 90.4007 153.227 89.4908 152.348C87.6676 150.58 85.1724 148.109 82.4428 145.355C80.3474 143.242 78.4173 141.274 76.8458 139.648L76.6734 139.469L76.863 139.32L78.0417 138.445L78.021 138.731C77.0939 137.663 76.3495 136.791 75.8428 136.177C75.5517 135.879 75.2961 135.548 75.0812 135.191Z" fill="#FAFAFA"/>
<path d="M85.4343 139.5C85.4826 139.448 85.6549 139.5 85.8582 139.706C86.1183 139.97 86.3079 140.295 86.4097 140.651C86.5162 141.005 86.5328 141.381 86.4579 141.743C86.3924 142.019 86.2821 142.164 86.2132 142.15C86.065 142.112 86.1064 141.495 85.8927 140.802C85.679 140.11 85.3275 139.61 85.4343 139.5Z" fill="#FAFAFA"/>
<path d="M92.6995 146.803C92.7581 146.761 92.8891 146.823 93.0442 146.992C93.2153 147.22 93.3257 147.487 93.3649 147.77C93.4041 148.052 93.3708 148.339 93.2682 148.605C93.182 148.805 93.0717 148.901 93.0028 148.877C92.8615 148.822 92.9097 148.367 92.8305 147.843C92.7512 147.32 92.5789 146.909 92.6995 146.803Z" fill="#FAFAFA"/>
<path d="M91.3175 133.365C91.4071 133.255 92.989 134.437 94.6054 136.246C96.2218 138.056 97.2281 139.751 97.1109 139.83C96.9938 139.91 95.7978 138.379 94.2056 136.605C92.6133 134.83 91.2175 133.468 91.3175 133.365Z" fill="#FAFAFA"/>
<path d="M113.196 152.806C113.169 152.839 113.139 152.868 113.106 152.893L112.851 153.113C112.623 153.296 112.306 153.547 111.951 153.802C111.538 154.153 111.088 154.459 110.611 154.716C110.978 154.317 111.391 153.963 111.841 153.661C112.541 153.141 113.158 152.734 113.196 152.806Z" fill="#263238"/>
<path d="M113.196 157.886C113.175 157.914 113.151 157.938 113.123 157.959L112.913 158.141C112.734 158.29 112.479 158.486 112.196 158.71C111.867 158.997 111.502 159.24 111.11 159.434C111.392 159.099 111.72 158.808 112.086 158.569C112.654 158.135 113.158 157.811 113.196 157.886Z" fill="#263238"/>
<path d="M112.113 148.633C111.693 149.056 111.231 149.436 110.735 149.767C110.275 150.144 109.779 150.474 109.253 150.752C109.675 150.332 110.136 149.953 110.631 149.622C111.091 149.244 111.588 148.913 112.113 148.633Z" fill="#263238"/>
<path d="M110.414 144.783C109.963 145.232 109.469 145.636 108.939 145.989C108.446 146.393 107.917 146.749 107.357 147.054C107.809 146.606 108.303 146.202 108.832 145.848C109.326 145.446 109.856 145.089 110.414 144.783Z" fill="#263238"/>
<path d="M107.895 140.802C107.442 141.251 106.948 141.656 106.42 142.012C105.926 142.416 105.395 142.771 104.834 143.073C105.289 142.627 105.784 142.223 106.313 141.867C106.806 141.464 107.336 141.108 107.895 140.802Z" fill="#263238"/>
<path d="M105.224 137.228C104.772 137.678 104.278 138.083 103.749 138.438C103.256 138.841 102.727 139.197 102.167 139.5C102.62 139.053 103.114 138.649 103.642 138.293C104.135 137.89 104.665 137.534 105.224 137.228Z" fill="#263238"/>
<path d="M102.553 133.654C102.101 134.104 101.607 134.509 101.078 134.864C100.585 135.267 100.056 135.623 99.4958 135.926C99.9491 135.479 100.443 135.075 100.971 134.719C101.465 134.317 101.994 133.961 102.553 133.654Z" fill="#263238"/>
<path d="M99.2649 130.539C98.8132 130.987 98.3192 131.391 97.7898 131.745C97.298 132.149 96.7682 132.505 96.2079 132.807C96.6612 132.36 97.155 131.956 97.683 131.6C98.1772 131.199 98.7067 130.844 99.2649 130.539Z" fill="#263238"/>
<path d="M95.8943 127.489C95.4401 127.935 94.9464 128.338 94.4192 128.695C93.9265 129.099 93.3956 129.455 92.8339 129.756C93.2888 129.31 93.7837 128.906 94.3124 128.55C94.8042 128.146 95.334 127.791 95.8943 127.489Z" fill="#263238"/>
<path d="M92.4307 124.508C91.9774 124.954 91.4836 125.358 90.9556 125.714C90.4631 126.117 89.9334 126.472 89.3737 126.775C89.8269 126.328 90.3207 125.925 90.8488 125.569C91.3412 125.166 91.8709 124.81 92.4307 124.508Z" fill="#263238"/>
<path d="M88.7499 121.909C88.2988 122.362 87.8048 122.771 87.2748 123.129C86.7811 123.522 86.2515 123.869 85.6929 124.163C86.1461 123.716 86.6399 123.312 87.1679 122.957C87.6627 122.561 88.1921 122.21 88.7499 121.909Z" fill="#263238"/>
<path d="M84.4969 119.638C84.0436 120.087 83.5485 120.492 83.0184 120.847C82.5265 121.251 81.9967 121.607 81.4364 121.909C81.8906 121.463 82.3843 121.059 82.9115 120.703C83.4058 120.299 83.9365 119.943 84.4969 119.638Z" fill="#263238"/>
<path d="M79.9097 118.342C79.5113 118.747 79.0724 119.111 78.6 119.428C78.1621 119.793 77.6861 120.109 77.1801 120.372C77.5799 119.967 78.0199 119.605 78.4932 119.29C78.9301 118.924 79.405 118.606 79.9097 118.342Z" fill="#263238"/>
<path d="M75.3638 117.763C74.9664 118.169 74.5274 118.533 74.0541 118.848C73.6146 119.209 73.14 119.524 72.6376 119.789C73.0331 119.381 73.4723 119.016 73.9473 118.704C74.3855 118.342 74.8603 118.026 75.3638 117.763Z" fill="#263238"/>
<path d="M92.1189 213.86C85.0421 206.783 73.5682 206.783 66.4913 213.86C59.4145 220.937 59.4145 232.41 66.4914 239.487C73.5682 246.564 85.0421 246.564 92.1189 239.487C99.1958 232.41 99.1958 220.936 92.1189 213.86Z" fill="#8041FF"/>
<path opacity="0.2" d="M92.1189 213.86C85.0421 206.783 73.5682 206.783 66.4913 213.86C59.4145 220.937 59.4145 232.41 66.4914 239.487C73.5682 246.564 85.0421 246.564 92.1189 239.487C99.1958 232.41 99.1958 220.936 92.1189 213.86Z" fill="white"/>
<path d="M61.609 222.776C61.8823 222.526 62.1942 222.321 62.5327 222.17C62.8387 221.965 63.1764 221.813 63.5321 221.718C63.2631 221.968 62.9559 222.172 62.6223 222.325C62.312 222.531 61.9695 222.683 61.609 222.776Z" fill="#263238"/>
<path d="M62.5947 219.805C62.8513 219.564 63.1459 219.366 63.4666 219.22C63.7594 219.024 64.0834 218.879 64.4247 218.792C64.1681 219.034 63.8736 219.232 63.5528 219.378C63.2604 219.575 62.9362 219.719 62.5947 219.805Z" fill="#263238"/>
<path d="M63.9353 217.09C64.1899 216.845 64.4849 216.647 64.8073 216.504C65.0995 216.306 65.4236 216.16 65.7654 216.073C65.5109 216.317 65.2158 216.515 64.8934 216.659C64.6007 216.855 64.2767 217.001 63.9353 217.09Z" fill="#263238"/>
<path d="M61.1885 225.923C61.4576 225.674 61.7648 225.469 62.0984 225.316C62.4044 225.112 62.7421 224.959 63.0979 224.865C62.8288 225.114 62.5216 225.319 62.188 225.471C61.8823 225.676 61.5445 225.829 61.1885 225.923Z" fill="#263238"/>
<path d="M61.3161 228.849C61.5841 228.599 61.8915 228.395 62.2259 228.246C62.5329 228.043 62.8703 227.89 63.2254 227.794C62.9579 228.046 62.6504 228.253 62.3156 228.404C62.0082 228.605 61.6708 228.755 61.3161 228.849Z" fill="#263238"/>
<path d="M61.9537 231.723C62.2161 231.475 62.5162 231.27 62.8428 231.117C63.1408 230.914 63.4704 230.763 63.8182 230.669C63.5575 230.917 63.2584 231.122 62.9325 231.275C62.6331 231.477 62.3024 231.629 61.9537 231.723Z" fill="#263238"/>
<path d="M62.8429 234.367C63.1107 234.116 63.4181 233.911 63.7528 233.76C64.0597 233.557 64.3971 233.405 64.7522 233.309C64.4831 233.56 64.1746 233.766 63.8389 233.919C63.5328 234.12 63.1966 234.271 62.8429 234.367Z" fill="#263238"/>
<path d="M64.2869 236.893C64.554 236.641 64.8616 236.436 65.1967 236.286C65.5028 236.082 65.8405 235.929 66.1962 235.835C65.9274 236.083 65.6216 236.287 65.2898 236.441C64.9823 236.645 64.6435 236.798 64.2869 236.893Z" fill="#263238"/>
<path d="M66.0618 239.095C66.3327 238.846 66.6409 238.642 66.9751 238.489C67.2801 238.284 67.6166 238.132 67.9712 238.037C67.7021 238.286 67.3949 238.491 67.0613 238.644C66.7553 238.848 66.4176 239.001 66.0618 239.095Z" fill="#263238"/>
<path d="M67.9299 240.839C68.2007 240.59 68.5089 240.386 68.8432 240.232C69.1482 240.028 69.4847 239.876 69.8392 239.781C69.5701 240.03 69.263 240.235 68.9293 240.388C68.6233 240.592 68.2856 240.745 67.9299 240.839Z" fill="#263238"/>
<path d="M70.3113 242.321C70.5917 242.063 70.9102 241.849 71.2556 241.687C71.5731 241.477 71.9221 241.318 72.2896 241.218C72.0087 241.474 71.6902 241.686 71.3452 241.845C71.0282 242.058 70.6791 242.219 70.3113 242.321Z" fill="#263238"/>
<path d="M72.872 243.576C73.1512 243.319 73.4687 243.107 73.8129 242.948C74.1323 242.741 74.4808 242.583 74.8468 242.48C74.5686 242.737 74.251 242.949 73.9059 243.107C73.5888 243.318 73.2397 243.476 72.872 243.576Z" fill="#263238"/>
<path d="M75.6292 244.42C75.9039 244.165 76.2068 243.941 76.5322 243.755C76.8268 243.512 77.1631 243.325 77.5247 243.203C77.2582 243.471 76.9582 243.702 76.6321 243.893C76.3379 244.136 75.9964 244.315 75.6292 244.42Z" fill="#263238"/>
<path d="M78.6896 244.789C79.0129 244.508 79.3751 244.276 79.7649 244.099C80.1199 243.869 80.5049 243.69 80.9092 243.565C80.5918 243.845 80.2353 244.077 79.8511 244.254C79.4905 244.485 79.0996 244.665 78.6896 244.789Z" fill="#263238"/>
<path d="M82.8151 244.444C83.1553 244.147 83.533 243.895 83.9386 243.696C84.3145 243.444 84.7225 243.244 85.1518 243.1C84.8111 243.398 84.4334 243.65 84.0282 243.851C83.6518 244.102 83.2439 244.301 82.8151 244.444Z" fill="#263238"/>
<path d="M98.6178 220.53C95.9146 210.894 85.9115 205.273 76.2753 207.976C66.6391 210.68 61.0187 220.683 63.7219 230.319C66.4251 239.955 76.4282 245.575 86.0644 242.872C95.7006 240.169 101.321 230.166 98.6178 220.53Z" fill="#8041FF"/>
<path opacity="0.2" d="M94.4124 224.38C93.7624 216.783 87.2288 211.138 79.8192 211.772C72.4096 212.406 66.9298 219.079 67.5798 226.676C68.2298 234.273 74.7634 239.918 82.173 239.284C89.5826 238.651 95.0624 231.978 94.4124 224.38Z" fill="white"/>
<path d="M94.3503 224.382C94.6617 227.961 93.5637 231.52 91.29 234.302C89.0164 237.084 85.7468 238.868 82.1774 239.274C82.3084 239.274 82.4393 239.274 82.5703 239.25C86.2174 238.938 89.5911 237.19 91.9492 234.39C93.1169 233.004 94 231.402 94.5483 229.674C95.0966 227.946 95.2992 226.128 95.1447 224.322C94.9901 222.516 94.4814 220.758 93.6475 219.149C92.8136 217.54 91.671 216.111 90.2848 214.943C88.8985 213.775 87.2959 212.892 85.5684 212.344C83.8408 211.796 82.0222 211.593 80.2164 211.748C80.0854 211.748 79.9544 211.775 79.8269 211.789C83.4109 211.584 86.9334 212.785 89.6456 215.137C92.3577 217.489 94.0456 220.805 94.3503 224.382Z" fill="#FAFAFA"/>
<path opacity="0.3" d="M67.6334 226.667C67.3241 223.088 68.4244 219.529 70.6999 216.749C72.9755 213.968 76.2466 212.186 79.8166 211.782C79.6857 211.782 79.5547 211.782 79.4237 211.806C75.7767 212.118 72.4029 213.866 70.0448 216.666C67.6866 219.466 66.5372 223.087 66.8494 226.734C67.1615 230.382 68.9097 233.755 71.7093 236.113C74.5089 238.472 78.1306 239.621 81.7777 239.309C81.9086 239.309 82.0396 239.281 82.1671 239.267C78.5804 239.475 75.0542 238.274 72.3396 235.921C69.625 233.567 67.9364 230.247 67.6334 226.667Z" fill="black"/>
<path d="M83.363 219.171C81.433 219.337 80.2612 220.367 79.8648 221.766C79.1756 220.843 77.9865 220.288 76.4597 220.419C74.5573 220.581 73.3028 221.756 73.0133 223.796L70.6697 223.996L70.8558 226.161L73.034 225.975L73.1374 227.201L70.9592 227.391L71.1488 229.555L73.3269 229.366L73.4958 231.341L73.613 232.719L75.7774 232.533L75.6602 231.155L86.1856 230.252L86.3166 231.771L88.481 231.585L88.35 230.069L88.1811 228.094L90.7177 227.877L90.5316 225.713L87.9985 225.93L87.8916 224.703L90.4248 224.486L90.2421 222.321L87.6228 222.545C87.0783 220.133 85.5618 218.985 83.363 219.171ZM75.4362 228.411L75.1811 225.489C75.0433 223.865 75.6429 222.883 77.0215 222.766C78.4001 222.649 79.1376 223.514 79.2755 225.14L79.5616 228.463L75.4672 228.808L75.4362 228.411ZM85.6687 224.11L85.9685 227.653L85.9892 227.905L81.7018 228.27L81.3778 224.479C81.2262 222.707 81.8018 221.694 83.2872 221.567C84.7726 221.439 85.517 222.339 85.6687 224.11Z" fill="#8041FF"/>
<path opacity="0.3" d="M83.363 219.171C81.433 219.337 80.2612 220.367 79.8648 221.766C79.1756 220.843 77.9865 220.288 76.4597 220.419C74.5573 220.581 73.3028 221.756 73.0133 223.796L70.6697 223.996L70.8558 226.161L73.034 225.975L73.1374 227.201L70.9592 227.391L71.1488 229.555L73.3269 229.366L73.4958 231.341L73.613 232.719L75.7774 232.533L75.6602 231.155L86.1856 230.252L86.3166 231.771L88.481 231.585L88.35 230.069L88.1811 228.094L90.7177 227.877L90.5316 225.713L87.9985 225.93L87.8916 224.703L90.4248 224.486L90.2421 222.321L87.6228 222.545C87.0783 220.133 85.5618 218.985 83.363 219.171ZM75.4362 228.411L75.1811 225.489C75.0433 223.865 75.6429 222.883 77.0215 222.766C78.4001 222.649 79.1376 223.514 79.2755 225.14L79.5616 228.463L75.4672 228.808L75.4362 228.411ZM85.6687 224.11L85.9685 227.653L85.9892 227.905L81.7018 228.27L81.3778 224.479C81.2262 222.707 81.8018 221.694 83.2872 221.567C84.7726 221.439 85.517 222.339 85.6687 224.11Z" fill="black"/>
<path d="M84.3831 219.071C82.4497 219.237 81.2813 220.267 80.885 221.666C80.1957 220.743 79.0067 220.188 77.4765 220.319C75.5775 220.481 74.323 221.656 74.03 223.696L71.683 223.896L71.8691 226.061L74.0472 225.875L74.1541 227.101L71.9759 227.288L72.162 229.455L74.354 229.28L74.5228 231.254L74.64 232.633L76.8044 232.447L76.6872 231.068L87.2127 230.165L87.3436 231.685L89.508 231.499L89.3771 229.983L89.2082 228.011L91.7413 227.794L91.5552 225.63L89.0221 225.847L88.9187 224.62L91.4518 224.403L91.2657 222.239L88.6499 222.463C88.0984 220.033 86.582 218.885 84.3831 219.071ZM76.4563 228.311L76.2047 225.378C76.0634 223.752 76.6631 222.773 78.0451 222.656C79.4271 222.538 80.1612 223.403 80.2991 225.03L80.5852 228.353L76.4873 228.697L76.4563 228.311ZM86.6888 224.01L87.0024 227.556L87.0231 227.808L82.7392 228.173L82.3945 224.382C82.2429 222.611 82.8185 221.598 84.3073 221.47C85.7962 221.342 86.5337 222.239 86.6854 224.01H86.6888Z" fill="#8041FF"/>
<path d="M87.068 230.279C87.068 230.427 84.783 230.744 81.9327 230.989C79.0825 231.234 76.7631 231.31 76.7631 231.161C76.7631 231.013 79.0515 230.696 81.9017 230.451C84.7519 230.207 87.0576 230.131 87.068 230.279Z" fill="#FAFAFA"/>
<path d="M80.2198 223.931C80.368 223.931 80.5645 224.844 80.6679 225.999C80.7713 227.153 80.7265 228.098 80.5783 228.111C80.4301 228.125 80.2336 227.198 80.1337 226.043C80.0337 224.889 80.0716 223.945 80.2198 223.931Z" fill="#FAFAFA"/>
<path d="M86.6578 223.3C86.806 223.3 87.0025 224.213 87.1059 225.368C87.2092 226.522 87.1644 227.467 87.0162 227.481C86.868 227.494 86.6716 226.567 86.5682 225.413C86.4648 224.258 86.4924 223.314 86.6578 223.3Z" fill="#FAFAFA"/>
<path d="M189.608 162.694C177.892 150.978 158.896 150.978 147.18 162.694C135.464 174.41 135.464 193.406 147.18 205.122C158.896 216.839 177.892 216.839 189.608 205.122C201.325 193.406 201.325 174.41 189.608 162.694Z" fill="#8041FF"/>
<path opacity="0.4" d="M189.608 162.694C177.892 150.978 158.896 150.978 147.18 162.694C135.464 174.41 135.464 193.406 147.18 205.122C158.896 216.839 177.892 216.839 189.608 205.122C201.325 193.406 201.325 174.41 189.608 162.694Z" fill="black"/>
<path d="M186.454 164.52C174.738 152.804 155.742 152.804 144.026 164.52C132.31 176.236 132.31 195.232 144.026 206.948C155.742 218.664 174.738 218.664 186.454 206.948C198.17 195.232 198.17 176.236 186.454 164.52Z" fill="#8041FF"/>
<path opacity="0.2" d="M187.132 183.744C185.911 171.178 174.987 161.956 162.734 163.147C150.48 164.338 141.536 175.49 142.757 188.056C143.978 200.622 154.902 209.844 167.156 208.653C179.409 207.462 188.353 196.31 187.132 183.744Z" fill="white"/>
<path d="M187.036 183.749C187.611 189.667 185.855 195.577 182.141 200.222C178.428 204.866 173.05 207.88 167.15 208.622C167.367 208.622 167.584 208.597 167.801 208.577C173.834 207.99 179.387 205.032 183.238 200.351C187.089 195.671 188.923 189.652 188.337 183.619C187.75 177.587 184.792 172.034 180.111 168.183C175.431 164.331 169.412 162.497 163.379 163.084C163.162 163.108 162.949 163.139 162.731 163.163C168.665 162.756 174.524 164.678 179.062 168.522C183.601 172.366 186.461 177.829 187.036 183.749Z" fill="#FAFAFA"/>
<path opacity="0.3" d="M142.835 188.046C142.261 182.127 144.017 176.218 147.73 171.573C151.443 166.928 156.821 163.913 162.721 163.17C162.504 163.187 162.29 163.197 162.07 163.218C156.037 163.804 150.484 166.763 146.633 171.444C142.782 176.124 140.948 182.143 141.534 188.176C142.12 194.208 145.079 199.761 149.76 203.612C154.44 207.463 160.459 209.298 166.491 208.711C166.712 208.687 166.926 208.656 167.139 208.629C161.206 209.036 155.348 207.114 150.81 203.27C146.271 199.427 143.41 193.965 142.835 188.046Z" fill="black"/>
<path d="M170.262 173.413C167.067 173.723 165.147 175.446 164.52 177.772C163.345 176.256 161.38 175.36 158.854 175.608C155.714 175.911 153.657 177.879 153.233 181.26L149.356 181.639L149.7 185.217L153.305 184.872L153.519 186.888L149.914 187.233L150.259 190.814L153.864 190.469L154.181 193.73L154.401 196.001L157.982 195.656L157.758 193.385L175.156 191.713L175.4 194.226L178.981 193.881L178.737 191.369L178.42 188.108L182.61 187.702L182.266 184.121L178.075 184.527L177.878 182.498L182.066 182.063L181.721 178.482L177.393 178.903C176.431 174.929 173.901 173.058 170.262 173.413ZM157.31 188.856L156.841 184.007C156.579 181.319 157.555 179.685 159.836 179.465C162.118 179.244 163.352 180.661 163.627 183.349L164.162 188.863L157.389 189.521L157.31 188.856ZM174.174 181.539L174.742 187.398L174.784 187.812L167.694 188.501L167.084 182.225C166.798 179.296 167.732 177.607 170.186 177.369C172.64 177.131 173.884 178.617 174.17 181.539H174.174Z" fill="#8041FF"/>
<path opacity="0.3" d="M170.262 173.413C167.067 173.723 165.147 175.446 164.52 177.772C163.345 176.256 161.38 175.36 158.854 175.608C155.714 175.911 153.657 177.879 153.233 181.26L149.356 181.639L149.7 185.217L153.305 184.872L153.519 186.888L149.914 187.233L150.259 190.814L153.864 190.469L154.181 193.73L154.401 196.001L157.982 195.656L157.758 193.385L175.156 191.713L175.4 194.226L178.981 193.881L178.737 191.369L178.42 188.108L182.61 187.702L182.266 184.121L178.075 184.527L177.878 182.498L182.066 182.063L181.721 178.482L177.393 178.903C176.431 174.929 173.901 173.058 170.262 173.413ZM157.31 188.856L156.841 184.007C156.579 181.319 157.555 179.685 159.836 179.465C162.118 179.244 163.352 180.661 163.627 183.349L164.162 188.863L157.389 189.521L157.31 188.856ZM174.174 181.539L174.742 187.398L174.784 187.812L167.694 188.501L167.084 182.225C166.798 179.296 167.732 177.607 170.186 177.369C172.64 177.131 173.884 178.617 174.17 181.539H174.174Z" fill="black"/>
<path d="M170.431 175.15C167.236 175.46 165.316 177.186 164.689 179.509C163.514 177.996 161.549 177.097 159.023 177.345C155.883 177.652 153.826 179.616 153.402 183.001L149.525 183.376L149.869 186.957L153.474 186.613L153.671 188.646L150.066 188.991L150.41 192.568L154.015 192.223L154.332 195.484L154.553 197.755L158.134 197.41L157.913 195.139L175.328 193.436L175.569 195.945L179.15 195.601L178.906 193.092L178.588 189.831L182.779 189.421L182.435 185.844L178.244 186.251L178.047 184.217L182.238 183.811L181.894 180.23L177.565 180.654C176.61 176.669 174.07 174.798 170.431 175.15ZM157.479 190.593L157.007 185.747C156.745 183.059 157.72 181.426 160.002 181.202C162.283 180.978 163.517 182.397 163.793 185.089L164.327 190.603L157.555 191.265L157.479 190.593ZM174.339 183.28L174.908 189.139L174.949 189.552L167.86 190.242L167.25 183.962C166.964 181.036 167.898 179.344 170.351 179.106C172.805 178.868 174.053 180.34 174.339 183.28Z" fill="#8041FF"/>
<path d="M152.33 158.627C152.268 158.68 152.2 158.725 152.127 158.762L151.503 159.106C151.224 159.251 150.886 159.451 150.496 159.679C150.107 159.906 149.645 160.175 149.156 160.513C146.344 162.345 143.858 164.633 141.801 167.285C140.388 169.113 139.187 171.096 138.22 173.196C137.121 175.61 136.344 178.16 135.911 180.778C135.668 182.189 135.535 183.616 135.511 185.048C135.474 186.545 135.554 188.044 135.753 189.528C135.953 191.061 136.273 192.577 136.707 194.06C137.604 197.123 138.986 200.021 140.802 202.645C141.679 203.919 142.657 205.121 143.724 206.24C145.746 208.36 148.068 210.172 150.617 211.617C152.923 212.924 155.391 213.923 157.958 214.587C160.197 215.146 162.492 215.45 164.799 215.494C166.707 215.539 168.615 215.399 170.496 215.073C171.919 214.83 173.321 214.485 174.694 214.039C175.263 213.871 175.756 213.695 176.186 213.522C176.617 213.35 176.976 213.223 177.265 213.099L177.927 212.833C178.001 212.797 178.08 212.773 178.161 212.761C178.096 212.81 178.026 212.852 177.951 212.885L177.31 213.199C177.027 213.34 176.672 213.505 176.245 213.671C175.818 213.836 175.328 214.053 174.76 214.236C173.387 214.72 171.979 215.097 170.548 215.363C168.651 215.722 166.723 215.892 164.792 215.87C159.735 215.821 154.772 214.495 150.366 212.013C147.768 210.554 145.401 208.719 143.342 206.568C142.255 205.428 141.258 204.205 140.36 202.911C138.51 200.242 137.103 197.292 136.194 194.174C135.752 192.662 135.429 191.118 135.229 189.556C135.033 188.05 134.956 186.531 134.998 185.013C135.027 183.557 135.169 182.105 135.422 180.671C136.262 175.685 138.354 170.994 141.501 167.037C142.697 165.521 144.043 164.128 145.516 162.88C146.623 161.941 147.801 161.088 149.039 160.33C149.538 160.003 150.011 159.754 150.417 159.534C150.824 159.313 151.165 159.134 151.451 159.003L152.103 158.703C152.251 158.627 152.327 158.607 152.33 158.627Z" fill="#FAFAFA"/>
<path d="M150.073 188.991C150.166 188.991 150.383 190.369 150.645 192.547L150.4 192.347C151.434 192.223 152.668 192.089 153.998 191.951L154.263 191.927L154.291 192.192L154.387 193.157C154.553 194.85 154.687 196.425 154.784 197.731L154.543 197.527C156.707 197.365 158.134 197.31 158.144 197.403C158.154 197.496 156.741 197.714 154.584 197.972L154.367 198L154.343 197.772C154.184 196.473 154.015 194.901 153.85 193.209L153.76 192.244L154.05 192.485C152.719 192.609 151.482 192.713 150.445 192.792H150.217L150.2 192.578C150.035 190.417 149.979 188.998 150.073 188.991Z" fill="#FAFAFA"/>
<path d="M149.514 182.618C149.663 182.618 149.876 183.562 149.993 184.758C150.111 185.954 150.083 186.933 149.935 186.947C149.787 186.961 149.573 186.006 149.459 184.81C149.345 183.614 149.383 182.632 149.514 182.618Z" fill="#FAFAFA"/>
<path d="M175.094 193.65C175.094 193.798 171.303 194.291 166.585 194.746C161.866 195.201 158.041 195.456 158.027 195.308C158.013 195.16 161.818 194.67 166.533 194.212C171.248 193.754 175.08 193.502 175.094 193.65Z" fill="#FAFAFA"/>
<path d="M163.634 183.273C163.783 183.273 164.055 184.793 164.238 186.702C164.42 188.612 164.455 190.166 164.306 190.18C164.158 190.194 163.889 188.66 163.703 186.754C163.517 184.848 163.486 183.287 163.634 183.273Z" fill="#FAFAFA"/>
<path d="M174.253 182.108C174.401 182.091 174.67 183.628 174.856 185.534C175.042 187.44 175.07 188.998 174.925 189.015C174.78 189.032 174.504 187.495 174.318 185.586C174.132 183.676 174.105 182.122 174.253 182.108Z" fill="#FAFAFA"/>
<path d="M197.768 190.021C196.784 190.721 195.732 191.322 194.628 191.813C195.614 191.114 196.665 190.514 197.768 190.021Z" fill="#263238"/>
<path d="M196.193 194.96C195.739 195.322 195.25 195.636 194.732 195.897C194.243 196.21 193.723 196.471 193.181 196.676C194.122 195.998 195.131 195.42 196.193 194.953V194.96Z" fill="#263238"/>
<path d="M194.025 199.485C193.571 199.845 193.081 200.158 192.564 200.419C192.075 200.733 191.556 200.995 191.013 201.201C191.467 200.84 191.956 200.526 192.474 200.264C192.963 199.951 193.483 199.69 194.025 199.485Z" fill="#263238"/>
<path d="M198.406 184.82C197.93 185.194 197.418 185.519 196.879 185.792C196.37 186.118 195.83 186.392 195.266 186.609C195.74 186.235 196.251 185.91 196.789 185.637C197.299 185.311 197.841 185.037 198.406 184.82Z" fill="#263238"/>
<path d="M198.137 179.968C197.152 180.667 196.1 181.267 194.997 181.76C195.981 181.06 197.033 180.459 198.137 179.968Z" fill="#263238"/>
<path d="M197.1 175.212C196.625 175.586 196.115 175.913 195.576 176.187C195.065 176.51 194.523 176.784 193.96 177.004C194.435 176.629 194.946 176.302 195.487 176.029C195.997 175.705 196.537 175.432 197.1 175.212Z" fill="#263238"/>
<path d="M195.507 170.862C195.032 171.237 194.52 171.564 193.98 171.838C193.47 172.16 192.93 172.434 192.367 172.654C192.841 172.279 193.351 171.952 193.891 171.679C194.402 171.356 194.943 171.082 195.507 170.862Z" fill="#263238"/>
<path d="M193.071 166.706C192.595 167.08 192.083 167.407 191.544 167.681C191.032 168.004 190.491 168.278 189.927 168.498C190.403 168.123 190.914 167.796 191.454 167.523C191.965 167.199 192.507 166.925 193.071 166.706Z" fill="#263238"/>
<path d="M190.086 163.108C189.61 163.482 189.099 163.809 188.559 164.083C188.048 164.406 187.506 164.68 186.943 164.9C187.418 164.525 187.929 164.198 188.469 163.925C188.981 163.601 189.522 163.327 190.086 163.108Z" fill="#263238"/>
<path d="M186.95 160.244C186.473 160.616 185.962 160.941 185.423 161.216C184.913 161.542 184.372 161.816 183.806 162.032C184.282 161.659 184.794 161.334 185.333 161.061C185.842 160.733 186.384 160.46 186.95 160.244Z" fill="#263238"/>
<path d="M183.324 157.645C182.337 158.343 181.284 158.943 180.181 159.437C180.657 159.063 181.168 158.736 181.708 158.462C182.218 158.137 182.76 157.863 183.324 157.645Z" fill="#263238"/>
<path d="M179.209 155.525C178.734 155.901 178.222 156.227 177.682 156.501C177.171 156.825 176.63 157.098 176.066 157.318C176.542 156.944 177.053 156.617 177.592 156.342C178.104 156.019 178.645 155.746 179.209 155.525Z" fill="#263238"/>
<path d="M174.591 154.181C174.115 154.557 173.604 154.883 173.064 155.157C172.551 155.481 172.007 155.755 171.441 155.974C171.916 155.6 172.428 155.273 172.967 154.998C173.481 154.675 174.025 154.401 174.591 154.181Z" fill="#263238"/>
<path d="M169.69 153.558C169.101 153.997 168.478 154.388 167.825 154.726C167.203 155.116 166.549 155.454 165.871 155.736C167.084 154.909 168.361 154.181 169.69 153.558Z" fill="#263238"/>
<path d="M162.786 154.233C162.197 154.671 161.574 155.06 160.922 155.398C160.3 155.787 159.647 156.126 158.971 156.411C159.559 155.971 160.183 155.58 160.836 155.243C161.458 154.855 162.11 154.517 162.786 154.233Z" fill="#263238"/>
<g opacity="0.2">
<path d="M155.439 205.099L153.05 180.743L156.817 177.135L156.841 177.114V177.08L156.076 169.697L155.863 167.716L155.801 167.206V167.109C155.831 167.104 155.861 167.094 155.89 167.082C156.001 167.031 156.094 166.947 156.155 166.841C156.215 166.736 156.242 166.613 156.23 166.492C156.218 166.371 156.169 166.256 156.089 166.164C156.009 166.072 155.902 166.007 155.783 165.979C155.688 165.957 155.589 165.959 155.496 165.986C155.402 166.014 155.317 166.064 155.249 166.134C155.16 166.226 155.109 166.35 155.108 166.478C155.108 166.565 155.132 166.606 155.142 166.606C155.153 166.606 155.142 166.409 155.349 166.261C155.402 166.218 155.465 166.189 155.533 166.176C155.6 166.163 155.669 166.166 155.735 166.185C155.812 166.208 155.881 166.253 155.932 166.315C155.983 166.377 156.015 166.453 156.022 166.533C156.03 166.613 156.014 166.694 155.976 166.764C155.937 166.835 155.879 166.893 155.807 166.93C155.747 166.961 155.679 166.978 155.611 166.978C155.543 166.978 155.475 166.961 155.415 166.93C155.194 166.809 155.177 166.609 155.142 166.62C155.108 166.63 155.118 166.665 155.142 166.751C155.17 166.874 155.244 166.983 155.349 167.054C155.414 167.098 155.489 167.128 155.566 167.142C155.644 167.155 155.724 167.153 155.801 167.133V167.23L155.842 167.74L156.021 169.725L156.71 177.08L152.919 180.674L152.888 180.702V180.74L155.242 205.12L156.142 214.322C156.211 214.346 156.28 214.367 156.349 214.391L155.439 205.099Z" fill="white"/>
<path d="M149.707 166.875L153.633 163.029L153.66 163.001V162.96L153.174 158.262C153.14 158.262 153.105 158.293 153.068 158.307L153.485 162.932L149.538 166.765L149.504 166.799V166.847L149.8 169.911L150.934 181.25L151.299 184.696L151.41 185.627C151.418 185.736 151.435 185.845 151.461 185.951C151.471 185.842 151.471 185.732 151.461 185.624L151.389 184.686L151.089 181.24L150.017 169.894L149.707 166.875Z" fill="white"/>
<path d="M163.283 191.465L164.275 189.08V189.063L163.907 185.048L163.8 183.983V183.911C163.876 183.9 163.946 183.861 163.994 183.8C164.042 183.74 164.065 183.664 164.058 183.587C164.05 183.507 164.011 183.434 163.95 183.383C163.888 183.332 163.809 183.308 163.729 183.316C163.65 183.324 163.576 183.363 163.526 183.425C163.475 183.486 163.451 183.566 163.459 183.645C163.467 183.721 163.504 183.79 163.561 183.84C163.619 183.89 163.693 183.916 163.769 183.914V183.986L163.841 185.055L164.151 189.056L163.138 191.438V191.455V191.476L164.772 208.58L165.358 214.574L164.789 215.745C164.861 215.745 164.934 215.745 165.006 215.745L165.551 214.632V214.608V214.577L164.968 208.56L163.283 191.465Z" fill="white"/>
<path d="M161.756 189.273L161.067 191.524V191.545V191.565L161.215 193.006C160.291 193.085 159.409 193.161 158.575 193.233H158.485V193.323L159.216 199.923L159.433 201.767L159.461 201.97C159.388 201.983 159.322 202.022 159.277 202.081C159.231 202.14 159.21 202.213 159.216 202.287C159.224 202.366 159.263 202.439 159.324 202.489C159.385 202.54 159.464 202.564 159.543 202.556C159.622 202.551 159.695 202.515 159.747 202.456C159.799 202.397 159.826 202.319 159.821 202.241C159.816 202.162 159.78 202.089 159.721 202.037C159.661 201.985 159.584 201.958 159.505 201.963L159.488 201.76L159.319 199.909L158.689 193.402C159.527 193.338 160.41 193.268 161.336 193.192H161.432V193.092L161.28 191.572L161.97 189.322V189.301V189.28L161.697 186.478L160.439 173.85L161.725 171.51V171.493V171.476L161.467 169.105L161.391 168.477V168.446C161.503 168.396 161.597 168.312 161.658 168.205C161.72 168.099 161.747 167.976 161.734 167.854C161.722 167.731 161.672 167.616 161.59 167.524C161.509 167.431 161.4 167.367 161.28 167.34C161.186 167.318 161.088 167.321 160.995 167.348C160.902 167.375 160.817 167.426 160.75 167.495C160.659 167.587 160.607 167.711 160.605 167.84C160.605 167.926 160.629 167.967 160.643 167.967C160.657 167.967 160.643 167.771 160.85 167.623C160.903 167.579 160.966 167.549 161.033 167.536C161.1 167.522 161.17 167.524 161.236 167.543C161.314 167.566 161.383 167.611 161.435 167.673C161.488 167.735 161.52 167.812 161.527 167.893C161.535 167.973 161.518 168.055 161.479 168.126C161.44 168.197 161.38 168.255 161.308 168.291C161.247 168.322 161.18 168.338 161.112 168.338C161.043 168.338 160.976 168.322 160.915 168.291C160.695 168.171 160.674 167.971 160.643 167.981C160.612 167.991 160.615 168.029 160.643 168.112C160.669 168.236 160.742 168.344 160.846 168.415C160.921 168.466 161.007 168.499 161.097 168.509C161.187 168.52 161.278 168.509 161.363 168.477V168.502L161.408 169.132L161.611 171.49L160.291 173.792V173.813V173.837L161.494 186.492L161.756 189.273Z" fill="white"/>
<path d="M184.385 202.504C184.294 202.596 184.242 202.72 184.241 202.849C184.241 202.935 184.265 202.976 184.279 202.976C184.292 202.976 184.279 202.78 184.485 202.632C184.539 202.589 184.602 202.56 184.669 202.546C184.736 202.533 184.806 202.536 184.871 202.556C184.949 202.579 185.017 202.624 185.068 202.686C185.12 202.748 185.151 202.824 185.159 202.904C185.167 202.984 185.15 203.064 185.112 203.135C185.074 203.206 185.015 203.263 184.944 203.3C184.883 203.332 184.816 203.348 184.747 203.348C184.679 203.348 184.612 203.332 184.551 203.3C184.33 203.18 184.31 202.98 184.279 202.99C184.248 203.001 184.251 203.038 184.279 203.121C184.305 203.245 184.378 203.353 184.482 203.424C184.563 203.479 184.656 203.512 184.753 203.521C184.85 203.529 184.948 203.513 185.037 203.473C185.149 203.423 185.242 203.339 185.304 203.233C185.366 203.128 185.393 203.005 185.381 202.883C185.368 202.762 185.318 202.647 185.237 202.555C185.156 202.463 185.049 202.398 184.93 202.37C184.93 202.37 184.93 202.37 184.909 202.37V202.28L184.878 201.836L184.744 200.154L184.21 194.26V194.209L184.161 194.185L180.567 192.489H180.543H180.512C179.967 192.541 179.409 192.596 178.844 192.651C176.414 192.892 174.129 193.12 172.175 193.313H172.13L172.109 193.35L170.258 196.17V196.194L170.558 198.951L170.648 199.692V199.792C170.517 199.803 170.395 199.861 170.303 199.954C170.212 200.046 170.16 200.169 170.159 200.299C170.159 200.385 170.183 200.426 170.196 200.426C170.21 200.426 170.196 200.23 170.403 200.081C170.456 200.039 170.519 200.01 170.585 199.997C170.652 199.984 170.721 199.987 170.786 200.006C170.864 200.026 170.935 200.071 170.988 200.132C171.04 200.194 171.073 200.271 171.081 200.352C171.089 200.432 171.073 200.514 171.034 200.585C170.994 200.656 170.934 200.714 170.862 200.75C170.801 200.781 170.734 200.798 170.665 200.798C170.597 200.798 170.529 200.781 170.469 200.75C170.248 200.629 170.227 200.43 170.196 200.44C170.165 200.45 170.169 200.488 170.196 200.571C170.222 200.695 170.295 200.804 170.4 200.874C170.479 200.93 170.572 200.965 170.669 200.974C170.765 200.983 170.863 200.966 170.951 200.926C171.063 200.876 171.157 200.792 171.219 200.686C171.281 200.579 171.308 200.456 171.296 200.334C171.284 200.212 171.234 200.096 171.153 200.004C171.072 199.912 170.964 199.847 170.844 199.819C170.791 199.811 170.736 199.811 170.682 199.819V199.723L170.627 198.975L170.393 196.239C170.924 195.449 171.551 194.515 172.237 193.481C174.184 193.295 176.455 193.082 178.868 192.851C179.423 192.796 179.971 192.744 180.508 192.689L184.034 194.336L184.64 200.171L184.83 201.846L184.889 202.287V202.373C184.8 202.353 184.709 202.354 184.621 202.377C184.533 202.399 184.452 202.443 184.385 202.504Z" fill="white"/>
<path d="M175.745 171.035C175.737 170.96 175.701 170.891 175.644 170.841C175.587 170.792 175.514 170.766 175.438 170.769L175.373 169.897L175.094 166.671V166.651V166.634L172.306 163.256L171.651 156.429C171.578 156.429 171.509 156.398 171.437 156.38L172.126 163.304V163.332L172.147 163.356L174.973 166.709L175.318 169.904L175.425 170.776C175.346 170.786 175.275 170.827 175.227 170.889C175.179 170.952 175.158 171.031 175.168 171.109C175.178 171.187 175.219 171.258 175.281 171.306C175.343 171.354 175.422 171.376 175.5 171.365C175.576 171.353 175.644 171.311 175.69 171.249C175.735 171.188 175.755 171.111 175.745 171.035Z" fill="white"/>
<path d="M195.114 186.609C195.011 186.609 194.876 186.609 194.718 186.633C194.253 186.668 193.639 186.719 192.895 186.775C191.361 186.906 189.238 187.102 186.898 187.329C186.167 187.402 185.454 187.471 184.778 187.54H184.737L184.713 187.571L181.911 191.017C181.352 191.083 180.877 191.138 180.532 191.179C180.298 191.21 180.143 191.234 180.074 191.248C180.083 191.211 180.083 191.172 180.074 191.134C180.068 191.075 180.045 191.019 180.007 190.973C179.97 190.928 179.919 190.894 179.863 190.877C179.806 190.859 179.745 190.859 179.689 190.876C179.632 190.894 179.581 190.927 179.544 190.973C179.506 191.019 179.483 191.075 179.477 191.134C179.471 191.193 179.483 191.253 179.511 191.305C179.539 191.357 179.582 191.4 179.634 191.428C179.687 191.456 179.746 191.468 179.805 191.462C179.86 191.457 179.913 191.436 179.957 191.401C180.001 191.367 180.034 191.321 180.053 191.269C180.119 191.269 180.277 191.269 180.525 191.248C180.87 191.221 181.356 191.186 181.931 191.141H181.956L181.976 191.121L184.82 187.715C185.485 187.653 186.181 187.588 186.887 187.519C189.228 187.292 191.347 187.074 192.881 186.906C193.618 186.819 194.228 186.75 194.694 186.695L195.09 186.644C195.102 186.714 195.139 186.777 195.193 186.823V186.351C195.161 186.385 195.137 186.426 195.123 186.471C195.11 186.515 195.106 186.563 195.114 186.609Z" fill="white"/>
<path d="M150.875 200.543C150.916 200.54 150.956 200.528 150.993 200.509C151.029 200.489 151.06 200.462 151.086 200.43C151.111 200.398 151.129 200.36 151.139 200.32C151.149 200.281 151.151 200.239 151.144 200.199C151.135 200.141 151.11 200.087 151.07 200.043C151.031 200 150.98 199.969 150.923 199.954C150.867 199.94 150.807 199.942 150.752 199.961C150.696 199.979 150.648 200.014 150.612 200.06C150.576 200.106 150.554 200.162 150.549 200.22C150.544 200.279 150.557 200.337 150.585 200.388C150.613 200.44 150.655 200.482 150.707 200.509C150.759 200.537 150.817 200.549 150.875 200.543Z" fill="white"/>
<path d="M178.109 176.732L178.047 176.135V176.032C178.067 176.034 178.086 176.034 178.106 176.032C178.145 176.029 178.184 176.017 178.218 175.999C178.253 175.98 178.284 175.955 178.309 175.925C178.334 175.894 178.353 175.859 178.364 175.821C178.375 175.783 178.379 175.744 178.375 175.705C178.366 175.626 178.327 175.554 178.266 175.504C178.205 175.453 178.126 175.429 178.047 175.436C177.974 175.439 177.904 175.47 177.852 175.523C177.8 175.575 177.77 175.644 177.766 175.718C177.763 175.791 177.787 175.864 177.834 175.92C177.881 175.977 177.947 176.015 178.02 176.025V176.135L178.047 176.735L178.189 178.972L178.723 186.468C177.887 186.571 177.025 186.677 176.138 186.785C175.893 186.816 175.649 186.847 175.421 186.875L172.468 184.186L172.437 184.155H172.392C171.43 184.255 170.52 184.348 169.7 184.431H169.666L169.641 184.459L168.911 185.355L168.89 185.382V185.413L169.255 188.818L169.369 189.749V189.863C169.238 189.874 169.115 189.933 169.025 190.028C168.933 190.12 168.881 190.243 168.88 190.373C168.88 190.459 168.904 190.5 168.918 190.5C168.932 190.5 168.918 190.304 169.125 190.156C169.204 190.091 169.305 190.058 169.407 190.062V190.094V190.066C169.436 190.061 169.465 190.061 169.493 190.066C169.572 190.087 169.642 190.132 169.694 190.194C169.747 190.256 169.779 190.332 169.787 190.413C169.795 190.494 169.778 190.575 169.738 190.646C169.699 190.717 169.638 190.774 169.566 190.81C169.505 190.842 169.438 190.858 169.369 190.858C169.301 190.858 169.233 190.842 169.173 190.81C168.956 190.69 168.935 190.49 168.904 190.5C168.873 190.511 168.876 190.545 168.904 190.631C168.929 190.755 169.002 190.864 169.107 190.934C169.187 190.989 169.28 191.022 169.377 191.031C169.473 191.039 169.57 191.023 169.659 190.983C169.772 190.934 169.866 190.85 169.928 190.744C169.991 190.638 170.018 190.515 170.006 190.392C169.994 190.27 169.944 190.154 169.862 190.062C169.781 189.97 169.672 189.906 169.552 189.88C169.505 189.875 169.458 189.875 169.411 189.88V189.766L169.342 188.832L169.045 185.451L169.735 184.614C170.534 184.541 171.416 184.459 172.35 184.372L175.301 187.074L175.335 187.105H175.383C175.625 187.078 175.883 187.043 176.145 187.012L178.826 186.668H178.926V186.571L178.313 178.989L178.109 176.732Z" fill="white"/>
<path d="M177.158 181.212C175.201 181.374 173.14 181.557 171.048 181.719C170.758 181.743 170.472 181.767 170.183 181.788H170.141L170.114 181.822L167.629 184.707L167.601 184.741V184.786L169.345 202.618V202.642V202.659L176.614 213.488L176.745 213.436L169.507 202.577L167.784 184.81L170.196 181.987C170.469 181.967 170.741 181.943 171.017 181.922C173.146 181.743 175.242 181.577 177.22 181.405H177.324V181.302L175.256 157.469L175.101 157.414L177.158 181.212Z" fill="white"/>
<path d="M166.085 181.639C166.674 181.574 167.508 181.477 168.552 181.36H168.576L168.594 181.336L172.526 176.263L172.547 176.235V176.204L171.902 169.47L170.751 157.821L170.579 156.201L170.458 156.18L170.603 157.835L171.706 169.484L172.364 176.177L168.525 181.243C167.491 181.381 166.674 181.491 166.088 181.588C165.819 181.626 165.602 181.66 165.437 181.684C165.362 181.69 165.288 181.705 165.216 181.729C165.291 181.736 165.366 181.736 165.44 181.729C165.582 181.688 165.809 181.667 166.085 181.639Z" fill="white"/>
<path d="M158.32 175.915V175.942L158.337 175.966L159.567 177.714L160.14 183.211L160.319 184.786L160.37 185.165C160.251 185.18 160.14 185.236 160.057 185.324C159.965 185.415 159.913 185.539 159.912 185.668C159.912 185.754 159.936 185.799 159.95 185.796C159.964 185.792 159.95 185.599 160.157 185.451C160.226 185.395 160.312 185.364 160.401 185.362C160.447 185.355 160.494 185.355 160.539 185.362C160.615 185.386 160.683 185.431 160.734 185.492C160.785 185.553 160.818 185.627 160.829 185.706C160.836 185.786 160.819 185.867 160.78 185.937C160.742 186.008 160.683 186.065 160.612 186.102C160.551 186.134 160.484 186.151 160.415 186.151C160.347 186.151 160.279 186.134 160.219 186.102C159.998 185.985 159.978 185.782 159.947 185.792C159.916 185.803 159.919 185.841 159.947 185.927C159.974 186.05 160.046 186.158 160.15 186.23C160.231 186.285 160.324 186.318 160.421 186.326C160.518 186.335 160.616 186.318 160.705 186.278C160.816 186.227 160.908 186.143 160.969 186.037C161.029 185.931 161.056 185.809 161.043 185.687C161.031 185.566 160.981 185.451 160.901 185.36C160.82 185.268 160.713 185.203 160.594 185.175C160.533 185.163 160.47 185.163 160.408 185.175L160.388 184.796L160.26 183.218L159.76 177.703V177.676V177.655L158.54 175.904L158.313 172.982L157.568 163.945L157.317 161.209L157.245 160.499C157.32 160.493 157.39 160.458 157.441 160.402C157.491 160.345 157.518 160.271 157.515 160.195C157.512 160.12 157.48 160.048 157.425 159.996C157.371 159.943 157.298 159.914 157.222 159.914C157.146 159.914 157.074 159.943 157.019 159.996C156.964 160.048 156.932 160.12 156.929 160.195C156.927 160.271 156.953 160.345 157.003 160.402C157.054 160.458 157.124 160.493 157.2 160.499L157.238 161.209L157.42 163.966L158.11 173.003L158.32 175.915Z" fill="white"/>
<path d="M188.363 190.848C187.528 190.928 186.722 191.01 185.95 191.086H185.916L185.888 191.127L184.723 192.999L184.702 193.026V193.057L185.161 197.355L185.306 198.572L185.323 198.713C185.249 198.726 185.183 198.766 185.138 198.825C185.092 198.885 185.071 198.959 185.078 199.034C185.089 199.11 185.129 199.179 185.19 199.227C185.251 199.275 185.327 199.297 185.404 199.29C185.481 199.282 185.552 199.245 185.602 199.187C185.653 199.128 185.678 199.052 185.674 198.975C185.667 198.901 185.631 198.832 185.575 198.783C185.518 198.734 185.446 198.708 185.371 198.71V198.568L185.278 197.345L184.899 193.071L186.036 191.279C186.794 191.203 187.587 191.127 188.4 191.052L194.876 190.397L194.9 190.238C193.091 190.407 190.827 190.617 188.363 190.848Z" fill="white"/>
<path d="M193.381 187.953L193.346 187.926H193.305C190.096 188.239 187.077 188.539 184.434 188.798H184.396L184.372 188.829L182.224 191.458C179.96 191.693 178.109 191.886 176.803 192.02C176.173 192.089 175.673 192.148 175.314 192.186C175.159 192.206 175.035 192.22 174.935 192.234V192.172C174.929 192.113 174.906 192.057 174.869 192.011C174.831 191.965 174.781 191.931 174.724 191.914C174.667 191.897 174.607 191.897 174.55 191.914C174.493 191.931 174.443 191.965 174.405 192.011C174.367 192.056 174.344 192.112 174.338 192.171C174.333 192.23 174.344 192.29 174.372 192.342C174.4 192.394 174.443 192.437 174.496 192.465C174.548 192.493 174.607 192.505 174.666 192.499C174.73 192.493 174.789 192.465 174.836 192.422C174.883 192.378 174.914 192.321 174.925 192.258C175.025 192.258 175.152 192.258 175.311 192.234C175.656 192.203 176.173 192.161 176.807 192.11C178.12 191.989 179.984 191.82 182.266 191.613H182.297L182.321 191.589L184.482 188.977C187.108 188.725 190.096 188.439 193.274 188.136L193.618 188.425L194.997 189.552L195.025 189.308C194.618 188.963 194.191 188.618 193.756 188.274L193.381 187.953Z" fill="white"/>
<path d="M180.126 160.451L181.552 175.429L181.873 178.713V178.786L181.942 178.803L185.823 179.837H185.857C189.204 179.492 192.15 179.199 194.473 178.965L194.442 178.837C192.13 179.055 189.193 179.327 185.861 179.64C184.654 179.296 183.383 178.951 182.069 178.607L181.759 175.394L180.274 160.42L180.198 159.706L180.053 159.623L180.126 160.451Z" fill="white"/>
<path d="M168.084 179.306H168.132L168.16 179.265L168.914 178.203L171.02 175.229L171.041 175.198V175.17L170.262 167.53L170.017 165.307L169.952 164.8C170.03 164.79 170.101 164.749 170.149 164.687C170.197 164.624 170.218 164.546 170.208 164.467C170.198 164.389 170.158 164.318 170.095 164.27C170.033 164.222 169.954 164.201 169.876 164.211C169.837 164.214 169.799 164.225 169.764 164.243C169.73 164.262 169.699 164.286 169.674 164.317C169.649 164.347 169.63 164.381 169.619 164.419C169.607 164.456 169.603 164.496 169.607 164.535C169.615 164.61 169.651 164.679 169.708 164.729C169.765 164.779 169.838 164.806 169.914 164.803L169.948 165.313L170.134 167.543L170.824 175.153L168.732 178.093L168.008 179.127C165.699 179.358 163.555 179.571 161.708 179.758H161.622V179.844L162.128 184.669L162.283 186.016L162.307 186.199C162.269 186.223 162.235 186.252 162.204 186.285C162.159 186.33 162.123 186.384 162.099 186.443C162.075 186.503 162.062 186.566 162.063 186.63C162.063 186.716 162.087 186.761 162.097 186.757C162.108 186.754 162.097 186.561 162.304 186.413C162.312 186.406 162.322 186.4 162.332 186.395L162.356 186.513C162.356 186.513 162.356 186.471 162.356 186.389C162.407 186.358 162.464 186.338 162.523 186.33C162.583 186.322 162.643 186.327 162.7 186.344C162.778 186.366 162.848 186.411 162.9 186.473C162.952 186.536 162.984 186.612 162.992 186.693C163 186.774 162.983 186.855 162.944 186.926C162.905 186.997 162.845 187.055 162.773 187.092C162.712 187.123 162.645 187.14 162.576 187.14C162.508 187.14 162.44 187.123 162.38 187.092C162.159 186.971 162.142 186.771 162.108 186.781C162.073 186.792 162.08 186.83 162.108 186.916C162.136 187.038 162.208 187.146 162.311 187.219C162.392 187.274 162.485 187.307 162.582 187.315C162.679 187.324 162.777 187.307 162.866 187.267C162.977 187.217 163.069 187.133 163.13 187.027C163.191 186.921 163.218 186.799 163.206 186.678C163.194 186.556 163.145 186.442 163.065 186.35C162.984 186.258 162.878 186.193 162.759 186.165C162.627 186.133 162.488 186.151 162.369 186.216V186.047L162.263 184.696L161.835 179.944C163.665 179.73 165.795 179.53 168.084 179.306Z" fill="white"/>
<path d="M163.948 156.346L161.608 159.186L161.58 159.22V159.262L161.608 159.513L162.824 171.786L161.718 173.743V173.768V173.792L161.973 176.325V176.356L161.997 176.373L165.127 178.917H165.144C165.968 178.827 166.605 178.755 167.053 178.706C167.256 178.682 167.418 178.662 167.543 178.648C167.597 178.644 167.651 178.634 167.705 178.62C167.649 178.615 167.594 178.615 167.539 178.62C167.415 178.62 167.253 178.641 167.046 178.655C166.605 178.693 165.971 178.748 165.154 178.817L162.097 176.27L161.866 173.788L162.986 171.838V171.813V171.782L161.808 159.479L161.787 159.272L164.124 156.429L164.148 156.398V156.353L164.086 155.743C164.02 155.743 163.951 155.743 163.886 155.743L163.948 156.346Z" fill="white"/>
<path d="M138.716 195.415L138.741 195.38L141.208 192.378C144.134 192.086 146.757 191.82 148.859 191.61H148.901L148.921 191.572L150.3 188.784V188.756L150.11 187.033L150.052 186.592C150.048 186.541 150.038 186.49 150.024 186.44C150.017 186.491 150.017 186.542 150.024 186.592L150.055 187.04L150.197 188.742L148.818 191.458C146.712 191.658 144.086 191.903 141.16 192.179H141.112L141.084 192.213L138.606 195.218C138.006 195.28 137.414 195.339 136.828 195.398L136.897 195.591C137.479 195.535 138.069 195.48 138.668 195.422L138.716 195.415Z" fill="white"/>
<path d="M140.943 190.449L140.974 190.473H141.012C143.08 190.256 144.844 190.073 146.126 189.938C146.733 189.87 147.222 189.811 147.588 189.77C147.763 189.755 147.937 189.727 148.108 189.687C147.933 189.68 147.758 189.687 147.584 189.708C147.215 189.735 146.722 189.773 146.116 189.821C144.841 189.935 143.086 190.094 141.032 190.28L137.651 187.485L135.825 185.989L135.794 185.961H135.752L135.242 186.013V186.199L135.728 186.154L137.52 187.629L140.943 190.449Z" fill="white"/>
<path d="M140.819 187.012C140.764 186.978 140.701 186.961 140.636 186.964C140.557 186.972 140.484 187.011 140.434 187.072C140.384 187.134 140.36 187.212 140.367 187.292C140.371 187.331 140.382 187.368 140.4 187.403C140.418 187.438 140.443 187.468 140.473 187.493C140.503 187.518 140.538 187.537 140.576 187.549C140.613 187.56 140.652 187.564 140.691 187.56C140.748 187.558 140.802 187.539 140.848 187.506C140.894 187.473 140.929 187.427 140.949 187.374C140.969 187.322 140.973 187.264 140.961 187.209C140.949 187.154 140.921 187.104 140.881 187.064L141.157 186.757C141.449 186.43 141.846 185.961 142.311 185.413C142.749 185.372 143.217 185.327 143.69 185.282C144.775 185.179 145.758 185.072 146.471 184.982C146.857 184.956 147.24 184.894 147.615 184.796C147.229 184.776 146.841 184.79 146.457 184.838C145.74 184.886 144.755 184.972 143.669 185.075C143.166 185.127 142.683 185.179 142.239 185.224H142.197L142.173 185.255C141.708 185.83 141.318 186.323 141.05 186.678L140.819 187.012Z" fill="white"/>
<path d="M148.563 183.48H148.597L148.622 183.459L150.245 181.898L150.279 181.867V181.819L149.383 172.696L148.925 167.991V167.947L148.89 167.919L144.214 164.352L144.072 164.486L148.749 168.057L149.201 172.717L150.072 181.784L148.511 183.294C143.142 183.831 138.565 184.29 135.318 184.614H135.26V184.731H135.332C138.585 184.421 143.18 183.99 148.563 183.48Z" fill="white"/>
<path d="M151.796 179.651L151.975 181.815L152.65 188.956C152.34 188.984 152.016 189.015 151.689 189.049H151.613H151.558L151.534 189.098L149.955 191.886L149.938 191.913V191.944L150.534 197.672L150.724 199.33L150.782 199.771C150.786 199.823 150.797 199.874 150.814 199.923C150.822 199.871 150.822 199.819 150.814 199.768L150.786 199.323L150.655 197.662L150.135 191.955L151.679 189.246H151.703C152.065 189.208 152.426 189.173 152.768 189.139H152.871V189.039L152.134 181.801L151.892 179.644L151.816 179.061C151.812 178.993 151.798 178.926 151.775 178.862C151.766 178.929 151.766 178.997 151.775 179.065L151.796 179.651Z" fill="white"/>
<path d="M142.969 205.844L144.872 203.938L144.903 203.904V203.859L144.376 198.689C145.485 198.568 146.399 198.468 147.06 198.396C147.309 198.365 147.519 198.338 147.691 198.317C147.691 198.317 147.691 198.341 147.712 198.341C147.732 198.341 147.712 198.341 147.729 198.31H147.812C147.9 198.305 147.988 198.29 148.074 198.265C147.985 198.255 147.896 198.255 147.808 198.265H147.743C147.77 198.157 147.832 198.06 147.919 197.989C147.972 197.946 148.035 197.917 148.102 197.903C148.169 197.889 148.239 197.892 148.305 197.91C148.383 197.932 148.452 197.977 148.504 198.04C148.556 198.102 148.588 198.179 148.596 198.259C148.604 198.34 148.587 198.421 148.548 198.493C148.509 198.564 148.449 198.621 148.377 198.658C148.316 198.69 148.249 198.706 148.18 198.706C148.112 198.706 148.045 198.69 147.984 198.658C147.763 198.537 147.743 198.337 147.712 198.348C147.681 198.358 147.684 198.396 147.712 198.482C147.724 198.543 147.749 198.601 147.784 198.652C147.818 198.704 147.863 198.748 147.915 198.782C147.995 198.838 148.088 198.873 148.186 198.882C148.283 198.891 148.381 198.874 148.47 198.834C148.581 198.783 148.673 198.699 148.734 198.593C148.795 198.487 148.821 198.364 148.809 198.243C148.796 198.121 148.747 198.007 148.666 197.915C148.586 197.823 148.479 197.759 148.36 197.731C148.265 197.708 148.167 197.71 148.074 197.738C147.98 197.765 147.896 197.816 147.829 197.886C147.737 197.977 147.685 198.101 147.684 198.231C147.682 198.248 147.682 198.265 147.684 198.282C147.508 198.282 147.302 198.31 147.053 198.327C146.364 198.386 145.434 198.465 144.296 198.565H144.214V198.644L144.696 203.814L142.832 205.675L142.969 205.844Z" fill="white"/>
</g>
<path d="M123.845 257.885C123.845 257.885 120.088 253.222 128.256 237.737C128.256 237.737 135.039 222.159 141.518 227.367C147.033 231.796 143.896 240.86 141.553 245.857C140.149 248.734 138.414 251.437 136.383 253.911C133.064 257.885 128.057 261.208 123.845 257.885Z" fill="#8041FF"/>
<path opacity="0.4" d="M123.845 257.885C123.845 257.885 120.088 253.222 128.256 237.737C128.256 237.737 135.039 222.159 141.518 227.367C147.033 231.796 143.896 240.86 141.553 245.857C140.149 248.734 138.414 251.437 136.383 253.911C133.064 257.885 128.057 261.208 123.845 257.885Z" fill="black"/>
<path d="M123.569 257.541C123.569 257.541 117.872 252.061 126.047 236.579C126.047 236.579 134.708 221.377 140.678 227.16C144.768 231.127 141.687 239.702 139.344 244.699C138.113 247.322 136.052 250.982 134.174 253.205C130.859 257.196 126.637 260.129 123.569 257.541Z" fill="#8041FF"/>
<path opacity="0.2" d="M138.553 229.916C135.914 228.522 130.879 232.875 127.307 239.637C123.736 246.4 122.98 253.012 125.619 254.406C128.258 255.8 133.293 251.448 136.864 244.685C140.436 237.922 141.192 231.31 138.553 229.916Z" fill="white"/>
<path d="M135.339 233.705L134.136 235.797C133.084 236.331 132.243 237.206 131.751 238.278C131.007 240.002 131.382 240.949 131.382 240.949C131.382 240.949 129.68 240.984 128.553 243.362C127.074 246.464 128.036 247.001 128.036 247.001L126.568 249.559L127.76 250.248L129.011 248.07L129.356 248.27L128.07 250.51L129.325 251.234L130.528 248.973L131.1 249.317L137.572 238.054L136.728 237.568L138.003 235.352L136.924 234.732L135.735 236.8L135.184 236.483L136.373 234.415L135.339 233.705ZM132.613 243.644L131.003 246.443C131.003 246.443 129.073 245.685 129.911 243.927C130.748 242.169 132.613 243.644 132.613 243.644ZM135.132 239.054L133.754 241.466C133.754 241.466 131.934 241.122 132.699 239.443C133.568 237.51 135.132 239.054 135.132 239.054Z" fill="#8041FF"/>
<path opacity="0.4" d="M135.339 233.705L134.136 235.797C133.084 236.331 132.243 237.206 131.751 238.278C131.007 240.002 131.382 240.949 131.382 240.949C131.382 240.949 129.68 240.984 128.553 243.362C127.074 246.464 128.036 247.001 128.036 247.001L126.568 249.559L127.76 250.248L129.011 248.07L129.356 248.27L128.07 250.51L129.325 251.234L130.528 248.973L131.1 249.317L137.572 238.054L136.728 237.568L138.003 235.352L136.924 234.732L135.735 236.8L135.184 236.483L136.373 234.415L135.339 233.705ZM132.613 243.644L131.003 246.443C131.003 246.443 129.073 245.685 129.911 243.927C130.748 242.169 132.613 243.644 132.613 243.644ZM135.132 239.054L133.754 241.466C133.754 241.466 131.934 241.122 132.699 239.443C133.568 237.51 135.132 239.054 135.132 239.054Z" fill="black"/>
<path d="M134.426 233.191L133.223 235.283C132.171 235.817 131.331 236.692 130.841 237.765C130.097 239.488 130.473 240.432 130.473 240.432C130.473 240.432 128.77 240.467 127.643 242.845C126.161 245.947 127.126 246.481 127.126 246.481L125.654 249.038L126.85 249.727L128.101 247.546L128.446 247.746L127.157 249.986L128.415 250.706L129.618 248.445L130.187 248.79L136.662 237.53L135.815 237.044L137.09 234.825L136.014 234.205L134.822 236.272L134.274 235.959L135.501 233.822L134.426 233.191ZM131.7 243.127L130.083 245.926C130.083 245.926 128.153 245.171 128.987 243.41C129.821 241.649 131.7 243.127 131.7 243.127ZM134.219 238.537L132.84 240.949C132.84 240.949 131.021 240.605 131.782 238.93C132.658 236.993 134.219 238.537 134.219 238.537Z" fill="#8041FF"/>
<path d="M123.059 256.851C123.059 256.851 122.966 256.748 122.835 256.507C122.77 256.393 122.69 256.255 122.611 256.083C122.532 255.91 122.432 255.714 122.342 255.483C121.816 254.186 121.503 252.813 121.415 251.416C121.348 250.452 121.36 249.484 121.453 248.521C121.568 247.419 121.768 246.328 122.053 245.257C122.741 242.837 123.657 240.487 124.789 238.24C127.088 233.367 130.331 229.549 133.213 227.488C134.66 226.454 136.063 225.947 137.059 225.868C137.183 225.868 137.297 225.844 137.403 225.833H137.71C137.872 225.829 138.034 225.842 138.193 225.871C138.326 225.876 138.456 225.905 138.579 225.957C138.579 226.012 138.031 225.913 137.079 226.071C135.744 226.348 134.493 226.939 133.43 227.794C130.672 229.883 127.529 233.653 125.268 238.478C124.143 240.707 123.22 243.032 122.511 245.426C122.23 246.461 122.025 247.515 121.898 248.58C121.79 249.517 121.756 250.46 121.794 251.402C121.851 252.77 122.1 254.123 122.535 255.421C122.846 256.352 123.104 256.834 123.059 256.851Z" fill="#FAFAFA"/>
<path opacity="0.4" d="M138.138 229.752C138.138 229.752 132.771 227.556 126.464 239.171C120.157 250.785 125.603 254.411 125.603 254.411C125.603 254.411 121.098 251.399 127.44 239.309C132.975 228.78 138.138 229.752 138.138 229.752Z" fill="black"/>
<path d="M144.455 232.726C144.455 232.795 144.017 232.688 143.524 232.509C143.212 232.426 142.919 232.285 142.659 232.092C142.98 232.12 143.294 232.204 143.586 232.34C143.891 232.432 144.183 232.562 144.455 232.726Z" fill="#263238"/>
<path d="M143.573 229.855C143.573 229.924 143.211 229.855 142.818 229.7C142.425 229.545 142.111 229.393 142.128 229.356C142.39 229.362 142.646 229.425 142.88 229.542C143.126 229.61 143.359 229.716 143.573 229.855Z" fill="#263238"/>
<path d="M144.558 235.256C144.201 235.226 143.852 235.136 143.524 234.99C143.182 234.901 142.856 234.754 142.563 234.556C142.92 234.586 143.269 234.676 143.597 234.821C143.94 234.91 144.265 235.057 144.558 235.256Z" fill="#263238"/>
<path d="M144.286 237.72C143.91 237.682 143.542 237.585 143.197 237.43C142.83 237.335 142.48 237.18 142.163 236.972C142.904 237.107 143.618 237.359 144.279 237.72H144.286Z" fill="#263238"/>
<path d="M143.559 240.401C143.183 240.364 142.815 240.266 142.47 240.112C142.103 240.014 141.754 239.86 141.436 239.653C141.812 239.693 142.179 239.79 142.525 239.943C142.892 240.039 143.241 240.194 143.559 240.401Z" fill="#263238"/>
<path d="M142.676 242.879C142.3 242.842 141.933 242.744 141.587 242.59C141.221 242.493 140.872 242.338 140.553 242.132C140.929 242.171 141.297 242.268 141.642 242.421C142.009 242.518 142.359 242.672 142.676 242.879Z" fill="#263238"/>
<path d="M141.801 245.357C141.425 245.32 141.057 245.222 140.712 245.068C140.345 244.97 139.996 244.816 139.678 244.609C140.421 244.744 141.138 244.997 141.801 245.357Z" fill="#263238"/>
<path d="M140.485 247.684C140.109 247.646 139.741 247.55 139.395 247.398C139.029 247.299 138.68 247.145 138.362 246.939C138.737 246.977 139.105 247.073 139.451 247.225C139.817 247.324 140.166 247.478 140.485 247.684Z" fill="#263238"/>
<path d="M139.116 249.993C138.375 249.857 137.659 249.605 136.997 249.245C137.373 249.283 137.741 249.38 138.086 249.534C138.451 249.632 138.799 249.787 139.116 249.993Z" fill="#263238"/>
<path d="M137.686 252.281C137.31 252.242 136.943 252.144 136.597 251.992C136.23 251.894 135.881 251.74 135.563 251.533C135.939 251.573 136.306 251.67 136.652 251.823C137.019 251.919 137.368 252.074 137.686 252.281Z" fill="#263238"/>
<path d="M136.063 254.377C135.321 254.241 134.606 253.989 133.943 253.629C134.319 253.668 134.686 253.766 135.032 253.918C135.398 254.015 135.746 254.17 136.063 254.377Z" fill="#263238"/>
<path d="M134.06 256.396C133.319 256.261 132.603 256.009 131.941 255.648C132.317 255.688 132.684 255.786 133.03 255.938C133.396 256.035 133.743 256.19 134.06 256.396Z" fill="#263238"/>
<path d="M131.7 257.927C131.364 257.9 131.035 257.816 130.728 257.678C130.4 257.593 130.09 257.451 129.811 257.258C130.143 257.286 130.468 257.37 130.772 257.506C131.104 257.589 131.418 257.732 131.7 257.927Z" fill="#263238"/>
<path d="M129.239 259.043C128.903 259.016 128.574 258.932 128.267 258.795C127.94 258.71 127.631 258.568 127.354 258.375C127.689 258.401 128.018 258.485 128.326 258.623C128.653 258.707 128.962 258.849 129.239 259.043Z" fill="#263238"/>
<path d="M128.97 243.91C129.108 243.975 129.125 244.234 129.153 244.51C129.18 244.785 129.197 245.047 129.073 245.133C129.011 245.171 128.911 245.133 128.815 245.04C128.7 244.903 128.63 244.734 128.615 244.555C128.6 244.377 128.641 244.198 128.732 244.044C128.808 243.927 128.904 243.882 128.97 243.91Z" fill="#FAFAFA"/>
<path d="M131.806 238.985C131.927 239.075 131.879 239.357 131.858 239.674C131.837 239.991 131.834 240.267 131.696 240.332C131.631 240.363 131.531 240.332 131.448 240.188C131.351 240.018 131.308 239.824 131.324 239.629C131.34 239.435 131.414 239.25 131.538 239.099C131.648 238.978 131.751 238.93 131.806 238.985Z" fill="#FAFAFA"/>
<path d="M127.791 242.548C127.822 242.548 127.791 242.673 127.746 242.845L127.484 243.534C127.356 243.871 127.252 244.216 127.174 244.568C127.075 244.979 127.063 245.407 127.14 245.823C127.157 245.909 127.182 245.993 127.216 246.074C127.243 246.139 127.276 246.202 127.316 246.26L127.443 246.426L127.357 246.577C126.499 248.018 125.772 249.066 125.654 248.99C125.537 248.914 126.078 247.766 126.895 246.302L126.933 246.615C126.845 246.513 126.775 246.397 126.726 246.271C126.675 246.161 126.637 246.045 126.612 245.926C126.518 245.429 126.545 244.917 126.692 244.434C126.803 244.078 126.952 243.734 127.136 243.41C127.257 243.179 127.401 242.959 127.564 242.755C127.671 242.6 127.76 242.528 127.791 242.548Z" fill="#FAFAFA"/>
</svg>
