<svg width="775" height="678" viewBox="0 0 775 678" fill="none" xmlns="http://www.w3.org/2000/svg">
<path d="M749.894 74.4694C749.894 74.4694 698.135 53.8753 583.178 168.87C583.178 168.87 463.502 271.765 527.474 314.992C581.914 351.782 653.757 299.098 691.698 264.611C713.386 244.308 732.626 221.54 749.026 196.769C775.226 156.261 790.818 102.746 749.894 74.4694Z" fill="#5259A3" fill-opacity="0.05"/>
<path opacity="0.4" d="M749.894 74.4694C749.894 74.4694 698.135 53.8753 583.178 168.87C583.178 168.87 463.502 271.765 527.474 314.992C581.914 351.782 653.757 299.098 691.698 264.611C713.386 244.308 732.626 221.54 749.026 196.769C775.226 156.261 790.818 102.746 749.894 74.4694Z" fill="black" fill-opacity="0.05"/>
<path d="M745.968 72.9971C745.968 72.9971 681.789 37.4718 566.643 152.466C566.643 152.466 455.461 270.991 523.227 308.121C569.644 333.566 637.278 282.694 675.22 248.207C695.153 230.143 721.957 201.828 736.605 179.176C762.862 138.649 777.359 92.9871 745.968 72.9971Z" fill="#5259A3" fill-opacity="0.05"/>
<path opacity="0.2" d="M668.391 226.164C718.629 175.926 743.465 119.31 723.864 99.7091C704.263 80.1078 647.647 104.944 597.409 155.182C547.171 205.42 522.335 262.035 541.937 281.637C561.538 301.238 618.154 276.402 668.391 226.164Z" fill="white" fill-opacity="0.05"/>
<path d="M699.136 134.005L682.978 150.182L678.806 146.011L694.549 130.325L686.375 122.17L669.575 138.97L663.157 132.571L577.836 217.892L582.159 222.215L564.812 238.467L574.25 247.905L591.239 230.916L593.881 233.559L577.383 250.057L586.425 259.099L605.83 239.826C605.83 239.826 612.89 247.188 637.221 226.367C655.758 210.511 651.945 195.165 651.945 195.165C651.945 195.165 661.232 196.278 674.993 185.387C683.425 178.39 689.234 168.741 691.472 158.016L707.328 142.179L699.136 134.005ZM628.784 215.589C615.042 227.349 603.584 211.814 603.584 211.814L624.706 190.672C624.706 190.672 642.545 203.848 628.784 215.589ZM662.327 179.724C649.113 190.616 641.563 175.137 641.563 175.137L659.779 156.902C659.779 156.902 677.56 167.247 662.327 179.78V179.724Z" fill="#5259A3" fill-opacity="0.05"/>
<path opacity="0.4" d="M699.136 134.005L682.978 150.182L678.806 146.011L694.549 130.325L686.375 122.17L669.575 138.97L663.157 132.571L577.836 217.892L582.159 222.215L564.812 238.467L574.25 247.905L591.239 230.916L593.881 233.559L577.383 250.057L586.425 259.099L605.83 239.826C605.83 239.826 612.89 247.188 637.221 226.367C655.758 210.511 651.945 195.165 651.945 195.165C651.945 195.165 661.232 196.278 674.993 185.387C683.425 178.39 689.234 168.741 691.472 158.016L707.328 142.179L699.136 134.005ZM628.784 215.589C615.042 227.349 603.584 211.814 603.584 211.814L624.706 190.672C624.706 190.672 642.545 203.848 628.784 215.589ZM662.327 179.724C649.113 190.616 641.563 175.137 641.563 175.137L659.779 156.902C659.779 156.902 677.56 167.247 662.327 179.78V179.724Z" fill="black" fill-opacity="0.05"/>
<path d="M690.415 129.513L674.238 145.671L670.085 141.518L685.771 125.832L677.56 117.658L660.76 134.477L654.361 128.078L569.04 213.38L573.363 217.703L555.997 233.974L565.435 243.413L582.423 226.424L585.066 229.067L568.568 245.546L577.629 254.587L596.996 235.22C596.996 235.22 604.037 242.582 628.368 221.78C646.905 205.924 643.092 190.578 643.092 190.578C643.092 190.578 652.379 191.691 666.14 180.8C674.569 173.799 680.384 164.153 682.638 153.429L698.475 137.573L690.415 129.513ZM620.063 211.096C606.302 222.837 594.844 207.321 594.844 207.321L616.042 186.123C616.042 186.123 633.805 199.355 620.063 211.096ZM653.587 175.231C640.374 186.123 632.823 170.644 632.823 170.644L651.133 152.466C651.133 152.466 668.745 162.754 653.587 175.288V175.231Z" fill="#5259A3" fill-opacity="0.05"/>
<path d="M738.568 70.3355C738.568 70.6375 733.566 69.6182 724.524 69.2029C711.763 68.7155 698.999 70.102 686.64 73.318C678.111 75.5073 669.772 78.3795 661.704 81.9067C652.455 85.9876 643.531 90.771 635.013 96.2149C616.91 107.541 598.827 122.831 580.687 139.631C544.161 172.966 519.169 211.493 508.296 241.865C502.935 257.079 501.84 270.406 503.332 279.278L503.804 282.411L504.483 285.129C504.691 285.979 504.898 286.753 505.068 287.47C505.238 288.187 505.54 288.772 505.729 289.358C506.22 290.478 506.587 291.649 506.824 292.85C506.163 291.815 505.613 290.714 505.181 289.565C504.936 289.018 504.634 288.414 504.37 287.678C504.105 286.941 503.917 286.186 503.652 285.356C503.388 284.525 503.086 283.6 502.822 282.619C502.558 281.637 502.407 280.561 502.199 279.429C500.311 270.425 501.123 256.777 506.333 241.166C516.847 210.171 541.839 171.097 578.686 137.441C596.883 120.565 615.174 105.351 633.578 93.8743C642.241 88.406 651.323 83.6342 660.741 79.6038C668.962 76.1116 677.461 73.3144 686.149 71.2416C698.717 68.156 711.692 67.0605 724.6 67.9948C726.884 68.127 728.885 68.4101 730.64 68.6555C732.112 68.8263 733.573 69.072 735.02 69.3917C736.231 69.5854 737.42 69.9017 738.568 70.3355Z" fill="#FAFAFA" fill-opacity="0.05"/>
<path opacity="0.4" d="M539.348 278.447C539.348 278.447 505.2 236.919 590.937 149.05C676.673 61.1804 723.864 99.707 723.864 99.707C723.864 99.707 684.752 67.9759 594.844 157.412C516.564 235.296 539.348 278.447 539.348 278.447Z" fill="black" fill-opacity="0.05"/>
<path d="M679.448 117.658C678.116 119.503 676.563 121.176 674.823 122.642C671.708 125.681 667.14 130.004 661.478 135.289L660.666 136.044L659.911 135.157L654.909 129.06H656.796C648.113 137.894 637.467 148.616 625.896 160.092C610.795 175.043 597.053 188.407 586.991 198.072C581.952 202.885 577.836 206.736 574.967 209.397C573.572 210.855 571.992 212.124 570.267 213.173C571.362 211.461 572.669 209.895 574.156 208.51C576.798 205.641 580.668 201.564 585.481 196.58C595.165 186.595 608.699 172.928 623.782 157.978C635.353 146.501 646.131 135.931 655.041 127.323L656.022 126.379L656.834 127.418L661.629 133.873L660.062 133.76C665.913 128.682 670.689 124.605 674.049 121.83C675.681 120.235 677.493 118.835 679.448 117.658Z" fill="#FAFAFA" fill-opacity="0.05"/>
<path d="M655.852 174.363C656.136 174.627 655.852 175.571 654.72 176.685C653.276 178.109 651.498 179.148 649.548 179.705C647.606 180.288 645.549 180.379 643.564 179.969C642.054 179.611 641.261 179.006 641.336 178.629C641.544 177.817 644.923 178.044 648.717 176.873C652.511 175.703 655.248 173.778 655.852 174.363Z" fill="#FAFAFA" fill-opacity="0.05"/>
<path d="M615.853 214.154C616.08 214.475 615.74 215.192 614.815 216.042C613.568 216.979 612.102 217.584 610.557 217.798C609.011 218.013 607.437 217.831 605.981 217.269C604.886 216.797 604.358 216.193 604.49 215.815C604.792 215.041 607.284 215.306 610.153 214.872C613.022 214.437 615.268 213.494 615.853 214.154Z" fill="#FAFAFA" fill-opacity="0.05"/>
<path d="M689.452 206.585C690.056 207.076 683.582 215.74 673.672 224.593C663.762 233.446 654.474 238.958 654.04 238.316C653.606 237.674 661.987 231.124 671.709 222.403C681.43 213.682 688.886 206.037 689.452 206.585Z" fill="#FAFAFA" fill-opacity="0.05"/>
<path d="M582.971 326.412C582.793 326.269 582.635 326.104 582.499 325.921L581.291 324.524C580.29 323.278 578.912 321.542 577.516 319.597C575.596 317.331 573.919 314.87 572.513 312.255C574.695 314.268 576.634 316.529 578.29 318.993C581.14 322.825 583.367 326.204 582.971 326.412Z" fill="#263238" fill-opacity="0.05"/>
<path d="M555.147 326.412C554.997 326.299 554.864 326.165 554.751 326.015L553.75 324.864C552.939 323.882 551.863 322.485 550.636 320.938C549.066 319.133 547.734 317.135 546.672 314.992C548.503 316.532 550.099 318.331 551.41 320.334C553.788 323.448 555.562 326.204 555.147 326.412Z" fill="#263238" fill-opacity="0.05"/>
<path d="M605.83 320.485C603.511 318.183 601.431 315.653 599.62 312.934C597.552 310.417 595.743 307.698 594.221 304.817C596.524 307.128 598.598 309.657 600.413 312.368C602.482 314.888 604.297 317.607 605.83 320.485Z" fill="#263238" fill-opacity="0.05"/>
<path d="M626.915 311.179C624.455 308.708 622.242 306.002 620.308 303.1C618.099 300.399 616.146 297.499 614.476 294.435C616.93 296.912 619.142 299.617 621.082 302.514C623.284 305.22 625.237 308.12 626.915 311.179Z" fill="#263238" fill-opacity="0.05"/>
<path d="M648.717 297.38C646.259 294.902 644.041 292.197 642.091 289.301C639.881 286.599 637.934 283.691 636.278 280.618C638.723 283.11 640.934 285.82 642.884 288.716C645.091 291.418 647.044 294.318 648.717 297.38Z" fill="#263238" fill-opacity="0.05"/>
<path d="M668.292 282.751C665.828 280.278 663.609 277.572 661.666 274.672C659.458 271.974 657.511 269.073 655.852 266.007C658.3 268.49 660.512 271.195 662.459 274.087C664.666 276.789 666.619 279.689 668.292 282.751Z" fill="#263238" fill-opacity="0.05"/>
<path d="M687.866 268.122C685.403 265.648 683.184 262.943 681.241 260.043C679.033 257.345 677.086 254.444 675.427 251.378C677.875 253.861 680.087 256.565 682.034 259.457C684.236 262.163 686.188 265.063 687.866 268.122Z" fill="#263238" fill-opacity="0.05"/>
<path d="M704.931 250.114C702.474 247.64 700.261 244.934 698.324 242.035C696.111 239.341 694.164 236.439 692.51 233.37C694.958 235.853 697.17 238.558 699.117 241.449C701.312 244.156 703.258 247.056 704.931 250.114Z" fill="#263238" fill-opacity="0.05"/>
<path d="M721.636 231.653C719.194 229.165 716.983 226.461 715.03 223.574C712.814 220.875 710.867 217.967 709.216 214.89C711.661 217.382 713.872 220.093 715.823 222.988C718.035 225.682 719.982 228.584 721.636 231.653Z" fill="#263238" fill-opacity="0.05"/>
<path d="M737.964 212.682C735.516 210.199 733.305 207.495 731.358 204.603C729.15 201.905 727.203 199.004 725.544 195.939C727.992 198.421 730.203 201.126 732.15 204.018C734.358 206.715 736.305 209.616 737.964 212.682Z" fill="#263238" fill-opacity="0.05"/>
<path d="M752.197 192.522C749.714 190.051 747.476 187.346 745.515 184.443C743.359 181.739 741.463 178.838 739.852 175.779C742.3 178.261 744.512 180.966 746.459 183.858C748.628 186.567 750.549 189.467 752.197 192.522Z" fill="#263238" fill-opacity="0.05"/>
<path d="M764.637 169.229C762.176 166.746 759.957 164.034 758.011 161.131C755.798 158.437 753.851 155.535 752.197 152.466C754.639 154.954 756.851 157.658 758.804 160.545C761.014 163.252 762.966 166.159 764.637 169.229Z" fill="#263238" fill-opacity="0.05"/>
<path d="M771.734 144.104C769.513 141.922 767.52 139.519 765.788 136.931C763.789 134.533 762.055 131.925 760.616 129.154C762.831 131.344 764.817 133.754 766.543 136.346C768.546 138.739 770.286 141.34 771.734 144.104Z" fill="#263238" fill-opacity="0.05"/>
<path d="M774.905 119.206C772.678 117.03 770.685 114.626 768.959 112.033C766.987 109.626 765.26 107.027 763.806 104.275C766.045 106.441 768.039 108.847 769.752 111.448C771.734 113.849 773.461 116.449 774.905 119.206Z" fill="#263238" fill-opacity="0.05"/>
<path d="M248.58 210.975C287.34 172.214 287.34 109.372 248.58 70.6115C209.819 31.8512 146.977 31.8513 108.216 70.6115C69.4563 109.372 69.4563 172.214 108.216 210.975C146.977 249.735 209.819 249.735 248.58 210.975Z" fill="#5259A3" fill-opacity="0.05"/>
<path opacity="0.2" d="M248.58 210.975C287.34 172.214 287.34 109.372 248.58 70.6115C209.819 31.8512 146.977 31.8513 108.216 70.6115C69.4563 109.372 69.4563 172.214 108.216 210.975C146.977 249.735 209.819 249.735 248.58 210.975Z" fill="white" fill-opacity="0.05"/>
<path d="M199.743 43.8708C201.116 45.3675 202.238 47.0757 203.066 48.9297C204.186 50.6058 205.021 52.4554 205.538 54.4038C204.173 52.9301 203.051 51.2478 202.216 49.4205C201.089 47.7212 200.253 45.8455 199.743 43.8708Z" fill="#263238" fill-opacity="0.05"/>
<path d="M216.015 49.2696C217.339 50.675 218.423 52.2884 219.224 54.0453C220.296 55.6489 221.088 57.4235 221.565 59.2929C220.241 57.8874 219.156 56.2741 218.356 54.5172C217.279 52.9155 216.488 51.1403 216.015 49.2696Z" fill="#263238" fill-opacity="0.05"/>
<path d="M230.889 56.6124C232.228 58.0065 233.313 59.6224 234.098 61.3881C235.181 62.9884 235.979 64.7637 236.458 66.6357C235.12 65.2416 234.034 63.6257 233.249 61.86C232.172 60.2564 231.374 58.4821 230.889 56.6124Z" fill="#263238" fill-opacity="0.05"/>
<path d="M182.509 41.568C183.875 43.0417 184.996 44.724 185.832 46.5513C186.951 48.2275 187.787 50.0771 188.304 52.0255C186.939 50.5517 185.817 48.8695 184.982 47.0421C183.859 45.3677 183.023 43.5176 182.509 41.568Z" fill="#263238" fill-opacity="0.05"/>
<path d="M166.483 42.2664C167.851 43.7345 168.967 45.4182 169.787 47.2497C170.898 48.9308 171.733 50.7789 172.26 52.7239C170.878 51.2586 169.749 49.5747 168.918 47.7405C167.821 46.0571 166.998 44.2091 166.483 42.2664Z" fill="#263238" fill-opacity="0.05"/>
<path d="M150.74 45.7585C152.099 47.1956 153.22 48.8395 154.063 50.6286C155.172 52.2606 156.001 54.066 156.517 55.9706C155.156 54.5426 154.034 52.9045 153.194 51.1194C152.087 49.4797 151.258 47.6683 150.74 45.7585Z" fill="#263238" fill-opacity="0.05"/>
<path d="M136.262 50.6286C137.637 52.0953 138.76 53.7791 139.585 55.612C140.696 57.293 141.531 59.1411 142.057 61.0861C140.679 59.6119 139.55 57.9222 138.716 56.0839C137.614 54.4074 136.785 52.5659 136.262 50.6286Z" fill="#263238" fill-opacity="0.05"/>
<path d="M122.426 58.5378C123.805 60.0011 124.928 61.6857 125.748 63.5211C126.868 65.1973 127.704 67.0469 128.221 68.9953C126.862 67.5232 125.741 65.8482 124.899 64.0308C123.781 62.3467 122.946 60.4913 122.426 58.5378Z" fill="#263238" fill-opacity="0.05"/>
<path d="M110.364 68.2591C111.726 69.7427 112.847 71.4306 113.686 73.2614C114.804 74.9319 115.639 76.7749 116.159 78.7166C114.793 77.2429 113.672 75.5606 112.837 73.7333C111.717 72.0571 110.881 70.2075 110.364 68.2591Z" fill="#263238" fill-opacity="0.05"/>
<path d="M100.813 78.4901C102.175 79.9737 103.296 81.6616 104.135 83.4923C105.253 85.1629 106.088 87.0059 106.608 88.9476C105.242 87.4739 104.121 85.7916 103.286 83.9642C102.166 82.2881 101.33 80.4385 100.813 78.4901Z" fill="#263238" fill-opacity="0.05"/>
<path d="M92.6958 91.5336C94.1117 93.0695 95.2831 94.8139 96.169 96.7057C97.321 98.4445 98.1877 100.356 98.7362 102.369C97.3337 100.83 96.1751 99.0858 95.3007 97.1965C94.1355 95.4601 93.2561 93.5482 92.6958 91.5336Z" fill="#263238" fill-opacity="0.05"/>
<path d="M85.825 105.559C87.2302 107.088 88.3891 108.827 89.2604 110.712C90.3935 112.461 91.2588 114.37 91.8276 116.375C90.4155 114.851 89.2557 113.111 88.3921 111.222C87.2367 109.485 86.3698 107.572 85.825 105.559Z" fill="#263238" fill-opacity="0.05"/>
<path d="M81.2002 120.66C82.5988 122.164 83.8211 123.824 84.8433 125.605C86.1721 127.219 87.1956 129.061 87.8635 131.042C86.3992 129.582 85.1302 127.939 84.0883 126.153C82.7557 124.541 81.7722 122.671 81.2002 120.66Z" fill="#263238" fill-opacity="0.05"/>
<path d="M79.1804 137.422C80.7166 139.193 81.9882 141.176 82.9557 143.311C84.2154 145.255 85.2 147.364 85.8815 149.578C84.3488 147.84 83.077 145.888 82.1063 143.783C80.8419 141.808 79.8572 139.667 79.1804 137.422Z" fill="#263238" fill-opacity="0.05"/>
<path d="M81.0679 160.017C82.6963 161.88 84.0734 163.949 85.164 166.171C86.5451 168.229 87.6434 170.464 88.4296 172.815C86.7993 170.949 85.4163 168.881 84.3146 166.661C82.9437 164.6 81.8519 162.365 81.0679 160.017Z" fill="#263238" fill-opacity="0.05"/>
<path d="M212.047 246.569C264.825 231.764 295.608 176.977 280.802 124.199C265.997 71.4207 211.21 40.6379 158.432 55.4433C105.654 70.2487 74.8713 125.036 89.6767 177.814C104.482 230.592 159.269 261.374 212.047 246.569Z" fill="#5259A3" fill-opacity="0.05"/>
<path opacity="0.2" d="M190.958 223.536C232.569 219.976 263.486 184.191 260.014 143.609C256.542 103.026 219.995 73.0131 178.384 76.5731C136.773 80.1331 105.856 115.918 109.328 156.5C112.8 197.083 149.347 227.096 190.958 223.536Z" fill="white" fill-opacity="0.05"/>
<path d="M190.947 223.196C171.345 224.902 151.851 218.888 136.617 206.435C121.382 193.982 111.611 176.075 109.383 156.525C109.383 157.242 109.383 157.959 109.515 158.677C111.224 178.652 120.799 197.13 136.133 210.046C143.725 216.441 152.503 221.278 161.964 224.281C171.426 227.284 181.387 228.394 191.278 227.547C201.168 226.701 210.795 223.914 219.609 219.347C228.423 214.78 236.251 208.522 242.646 200.929C249.042 193.337 253.879 184.559 256.882 175.097C259.884 165.636 260.994 155.675 260.148 145.784C260.148 145.067 259.997 144.35 259.921 143.651C261.044 163.281 254.466 182.574 241.585 197.428C228.705 212.283 210.538 221.527 190.947 223.196Z" fill="#FAFAFA" fill-opacity="0.05"/>
<path opacity="0.3" d="M178.432 76.8667C198.037 75.1723 217.529 81.1986 232.756 93.6621C247.984 106.126 257.745 124.042 259.959 143.594C259.959 142.877 259.959 142.16 259.827 141.443C258.117 121.467 248.542 102.989 233.209 90.0738C217.875 77.1581 198.039 70.8626 178.064 72.5723C158.089 74.282 139.611 83.8567 126.695 99.1902C113.78 114.524 107.484 134.36 109.194 154.335C109.194 155.052 109.345 155.77 109.42 156.468C108.283 136.823 114.859 117.511 127.749 102.643C140.639 87.7745 158.825 78.526 178.432 76.8667Z" fill="black" fill-opacity="0.05"/>
<path d="M219.488 163.018C218.582 152.448 212.938 146.03 205.274 143.859C210.333 140.084 213.372 133.571 212.655 125.209C211.768 114.789 205.331 107.918 194.156 106.333L193.061 93.4968L181.207 94.5161L182.226 106.446L175.506 107.012L174.468 95.0824L162.614 96.1206L163.652 108.05L152.836 108.975L145.285 109.617L146.305 121.472L153.855 120.83L158.801 178.478L150.476 179.195L151.496 191.05L159.801 190.332L170.617 189.407L171.807 203.3L183.661 202.281L182.472 188.407L189.192 187.822L190.381 201.696L202.235 200.695L201.008 186.349C214.222 183.367 220.508 175.061 219.488 163.018ZM168.881 119.603L184.888 118.206C193.779 117.451 199.158 120.735 199.8 128.286C200.442 135.836 195.704 139.876 186.794 140.631L168.598 142.198L166.71 119.773L168.881 119.603ZM192.438 175.647L173.034 177.289L171.656 177.402L169.655 153.92L190.419 152.146C200.121 151.315 205.671 154.467 206.369 162.603C207.068 170.739 202.141 174.816 192.438 175.647Z" fill="#5259A3" fill-opacity="0.05"/>
<path opacity="0.3" d="M219.488 163.018C218.582 152.448 212.938 146.03 205.274 143.859C210.333 140.084 213.372 133.571 212.655 125.209C211.768 114.789 205.331 107.918 194.156 106.333L193.061 93.4968L181.207 94.5161L182.226 106.446L175.506 107.012L174.468 95.0824L162.614 96.1206L163.652 108.05L152.836 108.975L145.285 109.617L146.305 121.472L153.855 120.83L158.801 178.478L150.476 179.195L151.496 191.05L159.801 190.332L170.617 189.407L171.807 203.3L183.661 202.281L182.472 188.407L189.192 187.822L190.381 201.696L202.235 200.695L201.008 186.349C214.222 183.367 220.508 175.061 219.488 163.018ZM168.881 119.603L184.888 118.206C193.779 117.451 199.158 120.735 199.8 128.286C200.442 135.836 195.704 139.876 186.794 140.631L168.598 142.198L166.71 119.773L168.881 119.603ZM192.438 175.647L173.034 177.289L171.656 177.402L169.655 153.92L190.419 152.146C200.121 151.315 205.671 154.467 206.369 162.603C207.068 170.739 202.141 174.816 192.438 175.647Z" fill="black" fill-opacity="0.05"/>
<path d="M220.036 168.606C219.13 158.016 213.486 151.617 205.822 149.446C210.881 145.671 213.92 139.159 213.202 130.778C212.315 120.377 205.878 113.506 194.704 111.901L193.609 99.0464L181.754 100.066L182.774 111.996L176.054 112.581L175.035 100.651L163.161 101.67L164.124 113.676L153.308 114.601L145.757 115.242L146.777 127.097L154.327 126.455L159.273 184.103L150.948 184.82L151.968 196.675L160.273 195.958L171.07 195.033L172.26 208.907L184.114 207.887L182.925 194.013L189.645 193.447L190.834 207.321L202.688 206.302L201.461 191.975C214.769 188.954 221.055 180.649 220.036 168.606ZM169.428 125.19L185.492 123.812C194.402 123.038 199.763 126.323 200.404 133.892C201.046 141.462 196.308 145.482 187.399 146.237L169.202 147.804L167.314 125.36L169.428 125.19ZM192.986 181.234L173.562 182.952L172.184 183.065L170.183 159.602L190.947 157.714C200.65 156.884 206.199 160.036 206.898 168.19C207.596 176.345 202.688 180.385 192.986 181.215V181.234Z" fill="#5259A3" fill-opacity="0.05"/>
<path d="M158.65 183.31C157.838 183.31 156.101 170.795 154.761 155.185C153.421 139.574 153.006 126.87 153.817 126.87C154.629 126.87 156.366 139.404 157.706 155.015C159.046 170.625 159.461 183.254 158.65 183.31Z" fill="#FAFAFA" fill-opacity="0.05"/>
<path d="M193.42 145.803C193.42 146.615 188.418 147.691 182.094 148.257C175.771 148.823 170.599 148.578 170.523 147.766C170.448 146.955 175.525 145.879 181.849 145.331C188.172 144.784 193.345 144.991 193.42 145.803Z" fill="#FAFAFA" fill-opacity="0.05"/>
<path d="M196.874 181.064C196.874 181.876 191.872 182.952 185.549 183.518C179.225 184.084 174.053 183.839 173.977 183.027C173.902 182.216 178.98 181.14 185.303 180.573C191.627 180.007 196.799 180.158 196.874 181.064Z" fill="#FAFAFA" fill-opacity="0.05"/>
<path d="M528.815 744.928C592.986 680.757 592.986 576.717 528.816 512.546C464.645 448.376 360.604 448.376 296.434 512.546C232.264 576.717 232.264 680.757 296.434 744.928C360.604 809.098 464.645 809.098 528.815 744.928Z" fill="#5259A3" fill-opacity="0.05"/>
<path opacity="0.4" d="M528.815 744.928C592.986 680.757 592.986 576.717 528.816 512.546C464.645 448.376 360.604 448.376 296.434 512.546C232.264 576.717 232.264 680.757 296.434 744.928C360.604 809.098 464.645 809.098 528.815 744.928Z" fill="black" fill-opacity="0.05"/>
<path d="M518.815 727.651C582.986 663.481 582.986 559.44 518.815 495.27C454.645 431.1 350.604 431.1 286.434 495.27C222.264 559.44 222.264 663.481 286.434 727.651C350.604 791.822 454.645 791.822 518.815 727.651Z" fill="#5259A3" fill-opacity="0.05"/>
<path opacity="0.2" d="M413.523 731.363C482.349 724.675 532.857 664.847 526.335 597.734C519.814 530.62 458.733 481.635 389.907 488.323C321.082 495.011 270.574 554.839 277.096 621.952C283.617 689.066 344.698 738.051 413.523 731.363Z" fill="white" fill-opacity="0.05"/>
<path d="M413.499 730.837C381.082 733.986 348.715 724.369 323.276 704.031C297.837 683.693 281.332 654.236 277.269 621.921C277.269 623.11 277.401 624.299 277.514 625.488C280.726 658.53 296.931 688.943 322.566 710.036C348.201 731.129 381.165 741.174 414.207 737.963C447.249 734.751 477.661 718.546 498.754 692.911C519.847 667.276 529.893 634.312 526.682 601.27C526.549 600.081 526.379 598.91 526.247 597.721C528.478 630.22 517.948 662.308 496.894 687.165C475.84 712.023 445.922 727.69 413.499 730.837Z" fill="#FAFAFA" fill-opacity="0.05"/>
<path opacity="0.3" d="M389.96 488.748C422.379 485.604 454.745 495.222 480.186 515.559C505.627 535.896 522.137 565.35 526.21 597.665C526.115 596.476 526.059 595.305 525.945 594.097C522.734 561.055 506.528 530.643 480.893 509.55C455.258 488.457 422.294 478.411 389.253 481.622C356.211 484.834 325.798 501.04 304.705 526.675C283.612 552.31 273.566 585.274 276.778 618.315C276.91 619.523 277.08 620.694 277.231 621.864C275 589.368 285.528 557.283 306.578 532.426C327.628 507.569 357.541 491.9 389.96 488.748Z" fill="black" fill-opacity="0.05"/>
<path d="M470.109 638.966C468.41 621.468 458.972 610.954 446.231 607.518C454.536 601.081 459.444 590.322 458.085 576.485C456.424 559.289 445.646 548.02 427.128 545.698L425.051 524.462L405.458 526.35L407.345 546.095L396.303 547.265L394.415 527.52L374.803 529.408L376.69 549.152L358.833 550.889L346.394 552.097L348.281 571.71L360.721 570.483L369.876 665.77L356.115 667.111L358.003 686.723L371.764 685.383L389.621 683.646L391.848 706.6L411.461 704.712L409.233 681.759L420.351 680.683L422.73 703.617L442.342 701.73L440.039 678.021C461.804 672.755 472.054 658.899 470.109 638.966ZM385.524 568.029L412.083 565.462C426.807 564.027 435.754 569.369 436.962 581.865C438.171 594.361 430.412 601.119 415.689 602.629L385.487 605.555L381.881 568.463L385.524 568.029ZM425.599 660.391L393.509 663.505L391.244 663.732L387.469 624.903L421.842 621.562C437.887 619.995 447.137 625.111 448.439 638.551C449.742 651.991 441.606 658.805 425.599 660.372V660.391Z" fill="#5259A3" fill-opacity="0.05"/>
<path opacity="0.3" d="M470.109 638.966C468.41 621.468 458.972 610.954 446.231 607.518C454.536 601.081 459.444 590.322 458.085 576.485C456.424 559.289 445.646 548.02 427.128 545.698L425.051 524.462L405.458 526.35L407.345 546.095L396.303 547.265L394.415 527.52L374.803 529.408L376.69 549.152L358.833 550.889L346.394 552.097L348.281 571.71L360.721 570.483L369.876 665.77L356.115 667.111L358.003 686.723L371.764 685.383L389.621 683.646L391.848 706.6L411.461 704.712L409.233 681.759L420.351 680.683L422.73 703.617L442.342 701.73L440.039 678.021C461.804 672.755 472.054 658.899 470.109 638.966ZM385.524 568.029L412.083 565.462C426.807 564.027 435.754 569.369 436.962 581.865C438.171 594.361 430.412 601.119 415.689 602.629L385.487 605.555L381.881 568.463L385.524 568.029ZM425.599 660.391L393.509 663.505L391.244 663.732L387.469 624.903L421.842 621.562C437.887 619.995 447.137 625.111 448.439 638.551C449.742 651.991 441.606 658.805 425.599 660.372V660.391Z" fill="black" fill-opacity="0.05"/>
<path d="M460.595 639.891C458.897 622.393 449.44 611.879 436.717 608.443C445.004 602.006 449.93 591.247 448.571 577.41C446.891 560.214 436.132 548.945 417.595 546.623L415.538 525.387L395.925 527.275L397.813 547.019L386.676 548.095L384.788 528.351L365.195 530.238L367.082 549.983L349.225 551.72L336.786 552.928L338.673 572.54L351.113 571.332L360.438 666.714L346.696 668.036L348.583 687.648L362.325 686.308L380.182 684.571L382.429 707.525L402.022 705.637L399.795 682.684L410.932 681.608L413.159 704.561L432.772 702.674L430.45 678.965C452.271 673.736 462.521 659.824 460.595 639.891ZM376.011 568.954L402.551 566.368C417.274 564.933 426.222 570.275 427.449 582.771C428.676 595.267 420.899 602.025 406.156 603.535L375.954 606.461L372.33 569.369L376.011 568.954ZM416.066 661.297L383.976 664.411L381.711 664.638L377.936 625.809L412.329 622.468C428.355 620.901 437.623 626.017 438.925 639.457C440.228 652.897 432.168 659.73 416.066 661.297Z" fill="#5259A3" fill-opacity="0.05"/>
<path d="M551.089 540.752C550.8 540.412 550.553 540.038 550.352 539.639L548.465 536.222C547.672 534.693 546.577 532.843 545.331 530.71C544.085 528.577 542.613 526.048 540.763 523.367C530.73 507.967 518.193 494.352 503.671 483.085C493.656 475.345 482.796 468.765 471.298 463.473C458.072 457.45 444.109 453.198 429.77 450.826C422.042 449.496 414.223 448.764 406.383 448.636C398.181 448.429 389.976 448.871 381.843 449.957C373.447 451.058 365.148 452.806 357.021 455.186C340.249 460.098 324.373 467.669 310 477.611C303.025 482.418 296.442 487.771 290.312 493.618C278.699 504.691 268.777 517.411 260.865 531.371C253.702 544.002 248.231 557.52 244.594 571.578C241.535 583.841 239.869 596.41 239.629 609.047C239.38 619.498 240.151 629.948 241.932 640.25C243.264 648.04 245.157 655.723 247.595 663.241C248.52 666.356 249.483 669.055 250.426 671.414C251.37 673.774 252.069 675.737 252.748 677.323L254.202 680.947C254.398 681.352 254.532 681.785 254.598 682.231C254.328 681.874 254.1 681.488 253.919 681.079L252.201 677.568C251.427 676.02 250.521 674.076 249.615 671.735C248.709 669.395 247.519 666.714 246.519 663.6C243.865 656.083 241.801 648.37 240.346 640.533C238.379 630.143 237.45 619.583 237.572 609.009C237.836 581.311 245.102 554.129 258.694 529.993C266.683 515.768 276.734 502.805 288.519 491.523C294.761 485.569 301.457 480.11 308.547 475.195C323.165 465.061 339.323 457.355 356.398 452.373C364.679 449.954 373.136 448.187 381.692 447.088C389.939 446.015 398.258 445.592 406.571 445.823C414.547 445.984 422.499 446.761 430.356 448.145C457.663 452.748 483.357 464.205 505.03 481.443C513.334 487.995 520.96 495.362 527.795 503.434C532.941 509.495 537.611 515.945 541.764 522.726C543.557 525.463 544.916 528.049 546.124 530.276C547.332 532.504 548.314 534.372 549.031 535.939L550.673 539.507C551.089 540.318 551.202 540.734 551.089 540.752Z" fill="#FAFAFA" fill-opacity="0.05"/>
<path d="M384.788 528.389C384.788 528.898 377.238 530.087 365.308 531.522L366.403 530.182C367.082 535.845 367.818 542.602 368.574 549.889L368.706 551.342L367.252 551.493L361.967 552.022C352.699 552.928 344.072 553.664 336.918 554.193L338.032 552.871C338.919 564.726 339.221 572.54 338.711 572.597C338.202 572.654 337.012 564.914 335.597 553.098L335.446 551.908L336.691 551.776C343.808 550.908 352.415 549.983 361.684 549.077L366.969 548.586L365.648 550.172C364.968 542.886 364.402 536.109 363.968 530.427V529.181L365.138 529.087C376.974 528.181 384.751 527.879 384.788 528.389Z" fill="#FAFAFA" fill-opacity="0.05"/>
<path d="M419.69 525.331C419.69 526.142 414.518 527.313 407.968 527.954C401.418 528.596 396.057 528.445 395.982 527.633C395.906 526.822 401.135 525.651 407.685 525.029C414.235 524.406 419.615 524.613 419.69 525.331Z" fill="#FAFAFA" fill-opacity="0.05"/>
<path d="M359.267 665.431C358.456 665.431 355.756 644.667 353.265 618.825C350.773 592.983 349.376 572.03 350.188 571.955C350.999 571.879 353.68 592.719 356.19 618.542C358.701 644.365 360.079 665.355 359.267 665.431Z" fill="#FAFAFA" fill-opacity="0.05"/>
<path d="M416.104 602.667C416.104 603.478 407.78 604.97 397.322 605.97C386.865 606.971 378.351 607.159 378.276 606.348C378.2 605.536 386.6 604.064 397.039 603.044C407.478 602.025 416.029 601.855 416.104 602.667Z" fill="#FAFAFA" fill-opacity="0.05"/>
<path d="M422.484 660.825C422.579 661.637 414.16 663.109 403.721 664.128C393.283 665.148 384.75 665.299 384.656 664.506C384.562 663.713 392.981 662.203 403.438 661.184C413.895 660.164 422.409 660.013 422.484 660.825Z" fill="#FAFAFA" fill-opacity="0.05"/>
<path d="M568.077 687.969C566.023 685.366 564.234 682.565 562.735 679.607C560.961 676.808 559.463 673.843 558.262 670.754C560.311 673.361 562.1 676.161 563.604 679.116C565.374 681.918 566.872 684.882 568.077 687.969Z" fill="#263238" fill-opacity="0.05"/>
<path d="M575.439 662.675C573.385 660.072 571.595 657.271 570.097 654.312C568.321 651.501 566.822 648.524 565.624 645.422C567.673 648.028 569.462 650.829 570.966 653.784C572.738 656.598 574.236 659.575 575.439 662.675Z" fill="#263238" fill-opacity="0.05"/>
<path d="M578.856 635.833C576.447 632.609 574.307 629.194 572.457 625.621C570.32 622.212 568.47 618.632 566.926 614.918C571.455 621.56 575.444 628.554 578.856 635.833Z" fill="#263238" fill-opacity="0.05"/>
<path d="M575.156 598.023C572.758 594.796 570.625 591.381 568.776 587.811C566.645 584.403 564.789 580.831 563.226 577.127C565.64 580.347 567.78 583.763 569.625 587.339C571.75 590.748 573.6 594.321 575.156 598.023Z" fill="#263238" fill-opacity="0.05"/>
<g opacity="0.2">
<path d="M296.56 557.779L429.959 544.698L449.723 565.329L449.836 565.462H450.025L490.458 561.271L501.312 560.101L504.105 559.761H504.634C504.664 559.93 504.715 560.095 504.785 560.252C505.062 560.86 505.523 561.366 506.101 561.7C506.68 562.034 507.349 562.178 508.014 562.114C508.679 562.049 509.308 561.779 509.812 561.34C510.316 560.901 510.67 560.316 510.826 559.667C510.946 559.147 510.932 558.605 510.783 558.093C510.634 557.58 510.356 557.115 509.976 556.741C509.469 556.251 508.793 555.974 508.088 555.967C507.617 555.967 507.39 556.099 507.39 556.156C507.39 556.212 508.466 556.156 509.278 557.288C509.513 557.581 509.673 557.926 509.745 558.294C509.818 558.662 509.8 559.043 509.693 559.402C509.569 559.825 509.321 560.2 508.981 560.481C508.642 560.761 508.226 560.934 507.788 560.976C507.35 561.019 506.909 560.93 506.522 560.72C506.135 560.51 505.819 560.189 505.616 559.799C505.444 559.466 505.354 559.097 505.354 558.723C505.354 558.348 505.444 557.979 505.616 557.647C506.276 556.439 507.371 556.344 507.315 556.156C507.258 555.967 507.069 556.023 506.597 556.156C505.92 556.309 505.326 556.714 504.936 557.288C504.694 557.647 504.53 558.052 504.455 558.478C504.381 558.904 504.396 559.341 504.502 559.761H503.973L501.18 559.987L490.307 560.969L450.025 564.744L430.337 543.98L430.186 543.81H429.978L296.447 556.703L246.047 561.63C245.915 562.007 245.802 562.385 245.67 562.762L296.56 557.779Z" fill="white" fill-opacity="0.05"/>
<path d="M505.918 526.388L526.984 547.888L527.135 548.039H527.361L553.09 545.377C553.09 545.188 552.92 545 552.844 544.792L527.512 547.076L506.522 525.463L506.333 525.274H506.069L489.288 526.897L427.185 533.108L408.308 535.108L403.212 535.712C402.613 535.757 402.02 535.852 401.437 535.996C402.034 536.046 402.634 536.046 403.231 535.996L408.365 535.599L427.241 533.957L489.382 528.086L505.918 526.388Z" fill="white" fill-opacity="0.05"/>
<path d="M371.235 600.741L384.297 606.178H384.392L406.383 604.158L412.215 603.573H412.612C412.669 603.992 412.885 604.373 413.215 604.637C413.546 604.9 413.965 605.026 414.386 604.989C414.822 604.946 415.223 604.732 415.5 604.394C415.778 604.056 415.911 603.621 415.868 603.186C415.825 602.75 415.612 602.349 415.274 602.072C414.936 601.794 414.501 601.662 414.065 601.704C413.652 601.751 413.271 601.952 412.998 602.267C412.725 602.581 412.581 602.987 412.593 603.403H412.197L406.345 603.799L384.43 605.498L371.386 599.949H371.292H371.178L277.495 608.896L244.669 612.105L238.251 608.99C238.251 609.387 238.251 609.783 238.251 610.18L244.348 613.162H244.48H244.65L277.608 609.972L371.235 600.741Z" fill="white" fill-opacity="0.05"/>
<path d="M383.24 592.379L370.914 588.604H370.801H370.688L362.797 589.416C362.363 584.357 361.948 579.524 361.551 574.956V574.466H361.061L324.912 578.467L314.814 579.657L313.7 579.808C313.63 579.407 313.414 579.048 313.092 578.8C312.771 578.552 312.368 578.433 311.963 578.467C311.53 578.51 311.132 578.723 310.856 579.059C310.58 579.396 310.449 579.828 310.491 580.261C310.518 580.691 310.716 581.093 311.04 581.378C311.364 581.663 311.788 581.808 312.218 581.78C312.649 581.753 313.051 581.555 313.336 581.231C313.621 580.907 313.765 580.483 313.738 580.053L314.851 579.959L324.988 579.034L360.626 575.579C360.979 580.173 361.363 585.005 361.778 590.076V590.605H362.325L370.65 589.774L382.976 593.55H383.089H383.203L398.549 592.058L467.712 585.168L480.529 592.209H480.623H480.718L493.705 590.794L497.14 590.378H497.31C497.585 590.993 498.047 591.506 498.63 591.844C499.213 592.182 499.887 592.328 500.557 592.261C501.228 592.194 501.86 591.918 502.365 591.472C502.869 591.025 503.221 590.431 503.369 589.774C503.49 589.258 503.476 588.718 503.327 588.209C503.178 587.7 502.9 587.237 502.52 586.867C502.017 586.369 501.34 586.085 500.632 586.075C500.16 586.075 499.934 586.207 499.934 586.282C499.934 586.358 501.01 586.282 501.821 587.415C502.059 587.706 502.223 588.05 502.299 588.418C502.375 588.787 502.36 589.168 502.256 589.529C502.135 589.957 501.887 590.338 501.546 590.623C501.205 590.908 500.786 591.084 500.343 591.127C499.9 591.17 499.455 591.078 499.065 590.863C498.676 590.649 498.36 590.322 498.159 589.925C497.99 589.592 497.902 589.223 497.902 588.849C497.902 588.475 497.99 588.107 498.159 587.773C498.82 586.565 499.915 586.452 499.858 586.282C499.802 586.112 499.594 586.131 499.141 586.282C498.465 586.427 497.871 586.826 497.48 587.396C497.2 587.806 497.024 588.277 496.964 588.77C496.905 589.263 496.966 589.763 497.14 590.227H497.008L493.554 590.473L480.642 591.586L468.033 584.357H467.919H467.787L398.473 590.945L383.24 592.379Z" fill="white" fill-opacity="0.05"/>
<path d="M310.774 716.321C310.272 715.821 309.595 715.537 308.886 715.528C308.414 715.528 308.188 715.66 308.188 715.736C308.188 715.812 309.264 715.736 310.076 716.869C310.311 717.161 310.471 717.506 310.543 717.875C310.616 718.243 310.598 718.623 310.491 718.983C310.366 719.405 310.119 719.781 309.779 720.061C309.44 720.342 309.024 720.514 308.586 720.557C308.148 720.6 307.707 720.51 307.32 720.3C306.933 720.09 306.617 719.77 306.414 719.379C306.241 719.047 306.152 718.678 306.152 718.303C306.152 717.929 306.241 717.56 306.414 717.227C307.074 716.019 308.169 715.906 308.112 715.736C308.056 715.566 307.848 715.585 307.395 715.736C306.719 715.881 306.125 716.279 305.734 716.85C305.435 717.292 305.253 717.803 305.207 718.335C305.161 718.867 305.251 719.402 305.47 719.889C305.743 720.501 306.201 721.013 306.78 721.351C307.359 721.69 308.03 721.839 308.698 721.776C309.364 721.705 309.993 721.429 310.496 720.986C311 720.544 311.354 719.956 311.51 719.304C311.51 719.304 311.51 719.304 311.51 719.19H312.001L314.436 719.02L323.648 718.284L355.926 715.358H356.209L356.341 715.094L365.629 695.406V695.274V695.104C365.345 692.122 365.043 689.064 364.741 685.968C363.42 672.66 362.174 660.145 361.117 649.442V649.197L360.91 649.084L345.469 638.947H345.337L330.236 640.589L326.177 641.08H325.63C325.567 640.366 325.253 639.696 324.742 639.192C324.24 638.694 323.563 638.41 322.855 638.4C322.383 638.4 322.156 638.532 322.156 638.607C322.156 638.683 323.232 638.607 324.044 639.74C324.275 640.031 324.432 640.373 324.505 640.737C324.577 641.102 324.561 641.478 324.459 641.835C324.345 642.266 324.103 642.651 323.765 642.94C323.426 643.229 323.007 643.408 322.564 643.454C322.121 643.499 321.675 643.408 321.285 643.193C320.895 642.978 320.58 642.649 320.382 642.25C320.21 641.918 320.12 641.549 320.12 641.174C320.12 640.8 320.21 640.431 320.382 640.099C321.043 638.89 322.138 638.777 322.081 638.607C322.024 638.437 321.817 638.456 321.364 638.607C320.685 638.745 320.087 639.145 319.703 639.721C319.395 640.156 319.207 640.663 319.157 641.193C319.107 641.723 319.198 642.257 319.419 642.741C319.693 643.356 320.153 643.87 320.735 644.209C321.316 644.548 321.99 644.696 322.66 644.631C323.33 644.566 323.963 644.292 324.469 643.848C324.974 643.404 325.328 642.812 325.479 642.156C325.525 641.862 325.525 641.563 325.479 641.269H326.007L330.103 640.967L345.091 639.683C349.414 642.59 354.529 646.026 360.192 649.782C361.212 660.447 362.382 672.887 363.647 686.1C363.949 689.139 364.232 692.141 364.534 695.085L355.511 714.396L323.553 717.718L314.379 718.756L311.963 719.077H311.491C311.604 718.594 311.598 718.091 311.473 717.611C311.348 717.13 311.108 716.688 310.774 716.321Z" fill="white" fill-opacity="0.05"/>
<path d="M483.134 668.998C483.544 668.955 483.923 668.758 484.193 668.446C484.463 668.134 484.604 667.731 484.587 667.318L489.363 666.96L507.031 665.431H507.144H507.239L525.738 650.16L563.132 646.573C563.132 646.177 563.302 645.799 563.396 645.403L525.473 649.178H525.322L525.19 649.291L506.824 664.77L489.325 666.658L484.549 667.243C484.494 666.815 484.272 666.426 483.93 666.162C483.588 665.899 483.156 665.781 482.728 665.836C482.3 665.892 481.911 666.114 481.648 666.456C481.384 666.798 481.267 667.23 481.322 667.658C481.391 668.073 481.619 668.444 481.957 668.694C482.295 668.944 482.717 669.053 483.134 668.998Z" fill="white" fill-opacity="0.05"/>
<path d="M321.515 532.787C321.533 533.011 321.597 533.229 321.704 533.428C321.81 533.626 321.957 533.8 322.135 533.938C322.312 534.077 322.516 534.177 322.735 534.232C322.953 534.287 323.18 534.296 323.402 534.259C323.719 534.21 324.014 534.069 324.252 533.854C324.489 533.639 324.659 533.359 324.74 533.049C324.82 532.739 324.808 532.412 324.705 532.109C324.602 531.805 324.413 531.538 324.16 531.341C323.907 531.144 323.603 531.025 323.283 530.999C322.964 530.973 322.644 531.041 322.363 531.195C322.081 531.349 321.851 531.581 321.701 531.864C321.55 532.147 321.485 532.468 321.515 532.787Z" fill="white" fill-opacity="0.05"/>
<path d="M451.931 681.947L455.197 681.608H455.763C455.754 681.714 455.754 681.822 455.763 681.929C455.782 682.144 455.844 682.353 455.945 682.544C456.045 682.735 456.183 682.905 456.35 683.042C456.517 683.179 456.71 683.281 456.917 683.343C457.124 683.405 457.342 683.424 457.557 683.401C457.987 683.353 458.383 683.139 458.658 682.804C458.933 682.469 459.066 682.04 459.029 681.608C459.008 681.205 458.839 680.824 458.553 680.54C458.268 680.255 457.886 680.087 457.483 680.068C457.081 680.049 456.685 680.181 456.374 680.438C456.063 680.694 455.859 681.058 455.801 681.457H455.197L451.912 681.608L439.662 682.382L398.606 685.307C398.039 680.727 397.461 676.008 396.869 671.15C396.699 669.81 396.529 668.47 396.378 667.224L411.102 651.047L411.272 650.877V650.632C410.724 645.365 410.215 640.382 409.762 635.889V635.7L409.611 635.568L404.703 631.566L404.552 631.453H404.382L385.732 633.454L380.635 634.077H380.013C379.952 633.358 379.63 632.686 379.106 632.189C378.605 631.689 377.927 631.405 377.219 631.397C376.747 631.397 376.52 631.529 376.52 631.604C376.52 631.68 377.596 631.604 378.408 632.737C378.759 633.174 378.94 633.724 378.918 634.285H378.748H378.899C378.926 634.441 378.926 634.6 378.899 634.757C378.783 635.186 378.538 635.57 378.199 635.857C377.859 636.144 377.44 636.321 376.997 636.364C376.554 636.407 376.109 636.314 375.721 636.098C375.332 635.881 375.018 635.552 374.822 635.153C374.649 634.82 374.56 634.451 374.56 634.077C374.56 633.703 374.649 633.334 374.822 633.001C375.482 631.812 376.577 631.699 376.52 631.529C376.464 631.359 376.275 631.378 375.803 631.529C375.124 631.666 374.527 632.066 374.142 632.642C373.843 633.081 373.661 633.589 373.615 634.118C373.569 634.647 373.659 635.179 373.878 635.663C374.147 636.281 374.604 636.798 375.185 637.139C375.766 637.481 376.44 637.63 377.111 637.565C377.781 637.5 378.414 637.225 378.919 636.778C379.423 636.331 379.773 635.736 379.918 635.077C379.945 634.82 379.945 634.561 379.918 634.304H380.541L385.657 633.926L404.174 632.303L408.761 636.078C409.158 640.457 409.611 645.29 410.082 650.405L395.283 666.563L395.114 666.752V667.016C395.265 668.338 395.453 669.753 395.623 671.188L397.511 685.874V686.421H398.039L439.567 683.061L451.931 681.947Z" fill="white" fill-opacity="0.05"/>
<path d="M427.392 676.738C426.505 666.016 425.504 654.728 424.617 643.27C424.485 641.684 424.353 640.117 424.24 638.532V638.305L424.051 638.154L408.251 624.544L408.063 624.393H407.817L310.151 633.945H310.019H309.925L250.615 673.755L250.898 674.472L310.378 634.832L407.685 625.394L423.145 638.607C423.258 640.099 423.39 641.59 423.504 643.1C424.485 654.765 425.391 666.242 426.335 677.077V677.644H426.901L557.431 666.318L557.733 665.468L427.392 676.738Z" fill="white" fill-opacity="0.05"/>
<path d="M425.051 616.088C425.41 619.316 425.939 623.884 426.58 629.603V629.735L426.712 629.83L454.498 651.368L454.649 651.481H454.819L491.704 647.951L555.506 641.646L564.378 640.703L564.491 640.042L555.43 640.835L491.628 646.875L454.97 650.481L427.222 629.452C426.467 623.789 425.863 619.316 425.334 616.107C425.127 614.634 424.938 613.445 424.806 612.539C424.772 612.128 424.69 611.723 424.561 611.331C424.523 611.739 424.523 612.15 424.561 612.558C424.787 613.332 424.9 614.578 425.051 616.088Z" fill="white" fill-opacity="0.05"/>
<path d="M456.405 573.56H456.254L456.122 573.654L446.551 580.393L416.444 583.526L407.817 584.508L405.741 584.791C405.656 584.136 405.35 583.53 404.873 583.073C404.372 582.571 403.694 582.286 402.985 582.28C402.513 582.28 402.268 582.413 402.287 582.488C402.305 582.564 403.362 582.488 404.174 583.621C404.48 584.001 404.653 584.472 404.665 584.961C404.701 585.211 404.701 585.465 404.665 585.716C404.533 586.132 404.285 586.502 403.951 586.783C403.617 587.063 403.21 587.243 402.777 587.301C402.338 587.34 401.898 587.248 401.511 587.036C401.125 586.824 400.81 586.503 400.607 586.112C400.433 585.78 400.342 585.411 400.342 585.036C400.342 584.662 400.433 584.292 400.607 583.96C401.248 582.752 402.362 582.639 402.305 582.469C402.249 582.299 402.041 582.318 401.569 582.469C400.895 582.618 400.301 583.015 399.908 583.583C399.609 584.025 399.427 584.536 399.381 585.068C399.335 585.6 399.425 586.135 399.644 586.622C399.923 587.23 400.384 587.735 400.965 588.068C401.545 588.4 402.214 588.543 402.88 588.477C403.545 588.41 404.173 588.137 404.676 587.697C405.179 587.256 405.531 586.669 405.684 586.018C405.75 585.681 405.75 585.335 405.684 584.999L407.761 584.885L416.406 584.187L446.608 581.45H446.759H446.872L456.462 574.768L472.469 573.522L521.962 569.444L536.95 568.066L540.839 567.67C540.871 568.084 541.061 568.469 541.371 568.745C541.681 569.021 542.085 569.167 542.5 569.151C542.915 569.135 543.307 568.959 543.595 568.66C543.882 568.361 544.043 567.962 544.043 567.547C544.043 567.132 543.882 566.734 543.595 566.435C543.307 566.136 542.915 565.96 542.5 565.944C542.085 565.928 541.681 566.074 541.371 566.35C541.061 566.626 540.871 567.011 540.839 567.425L536.95 567.632L521.849 568.633L472.355 572.408L456.405 573.56Z" fill="white" fill-opacity="0.05"/>
<path d="M390.47 765.588L390.621 765.4V765.173C388.903 747.599 387.261 731.064 385.845 716.585V716.378L385.675 716.246L371.273 704.486C369.989 692.084 368.932 681.947 368.196 674.793C367.818 671.339 367.497 668.602 367.29 666.639C367.176 665.789 367.101 665.11 367.025 664.562H367.365C367.689 664.531 367.995 664.404 368.247 664.198C368.498 663.992 368.683 663.716 368.777 663.406C368.872 663.095 368.872 662.763 368.778 662.452C368.684 662.141 368.499 661.865 368.248 661.659C367.997 661.452 367.691 661.325 367.367 661.293C367.044 661.262 366.718 661.326 366.432 661.48C366.145 661.633 365.911 661.868 365.757 662.154C365.604 662.441 365.54 662.767 365.572 663.09C365.608 663.438 365.756 663.764 365.995 664.02C366.234 664.275 366.549 664.446 366.893 664.506C366.893 665.053 366.893 665.752 367.025 666.62C367.195 668.507 367.422 671.339 367.705 674.812C368.366 682.004 369.291 692.216 370.423 704.712V704.882L370.555 705.014L384.864 716.85C386.242 731.233 387.808 747.599 389.469 765.003L387.884 766.891L381.711 774.441L383.051 774.592C384.939 772.365 386.827 770.024 388.714 767.646L390.47 765.588Z" fill="white" fill-opacity="0.05"/>
<path d="M437.831 627.036V627.3L438.057 627.451L443.871 631.585L460.161 643.119L460.331 643.232H460.482L502.331 638.966L514.506 637.626L517.281 637.267C517.336 637.695 517.559 638.084 517.901 638.348C518.242 638.611 518.675 638.728 519.103 638.673C519.531 638.618 519.919 638.396 520.183 638.054C520.447 637.712 520.564 637.28 520.509 636.852C520.49 636.638 520.429 636.431 520.329 636.241C520.23 636.051 520.094 635.883 519.929 635.746C519.764 635.609 519.573 635.506 519.368 635.443C519.163 635.38 518.948 635.359 518.735 635.379C518.323 635.422 517.942 635.619 517.669 635.931C517.396 636.242 517.251 636.645 517.262 637.06L514.469 637.248L502.256 638.268L460.577 642.043L444.475 630.585L438.812 626.621C437.548 613.974 436.377 602.233 435.358 592.115V591.643H434.886L408.459 594.418L401.078 595.267L400.078 595.399C399.946 595.191 399.788 595 399.606 594.833C399.358 594.586 399.063 594.391 398.739 594.258C398.415 594.125 398.069 594.058 397.718 594.059C397.247 594.059 397.001 594.191 397.02 594.248C397.039 594.305 398.096 594.248 398.908 595.381C398.946 595.426 398.978 595.477 399.002 595.532L398.36 595.664C398.36 595.664 398.587 595.664 399.04 595.664C399.21 595.944 399.319 596.257 399.361 596.582C399.404 596.907 399.378 597.237 399.285 597.551C399.164 597.979 398.917 598.361 398.576 598.646C398.235 598.931 397.815 599.106 397.373 599.149C396.93 599.192 396.485 599.1 396.095 598.886C395.706 598.672 395.39 598.345 395.189 597.948C395.015 597.616 394.925 597.247 394.925 596.872C394.925 596.497 395.015 596.128 395.189 595.796C395.85 594.588 396.945 594.493 396.888 594.305C396.831 594.116 396.624 594.154 396.152 594.305C395.481 594.461 394.89 594.857 394.491 595.418C394.191 595.86 394.01 596.372 393.964 596.904C393.917 597.435 394.008 597.97 394.226 598.457C394.504 599.065 394.964 599.572 395.543 599.905C396.122 600.239 396.79 600.384 397.455 600.32C398.12 600.255 398.749 599.985 399.253 599.546C399.757 599.107 400.111 598.522 400.267 597.872C400.441 597.151 400.34 596.39 399.984 595.739H400.909L408.308 595.154L434.339 592.813C435.509 602.837 436.604 614.502 437.831 627.036Z" fill="white" fill-opacity="0.05"/>
<path d="M563.585 604.385L548.031 591.568L547.842 591.417H547.615L546.237 591.568L479.019 598.231L468.297 592.172H468.165H468.033L454.159 593.568H453.989L453.894 593.701L439.964 610.84V610.935C440.454 615.446 440.851 618.938 441.115 621.392C441.247 622.506 441.36 623.393 441.436 624.073C441.459 624.372 441.509 624.669 441.587 624.96C441.616 624.658 441.616 624.355 441.587 624.054C441.587 623.374 441.474 622.487 441.398 621.354C441.191 618.938 440.889 615.465 440.511 610.991L454.461 594.248L468.052 592.983L478.736 599.118H478.868H479.038L546.426 592.662L547.559 592.549L563.132 605.347L563.302 605.479H563.547L566.888 605.14C566.888 604.781 566.888 604.403 566.888 604.045L563.585 604.385Z" fill="white" fill-opacity="0.05"/>
<path d="M349.603 466.191L349.792 466.323L366.233 479.839C367.837 495.865 369.291 510.229 370.442 521.744V521.97L370.65 522.084L385.921 529.634H386.072L395.51 528.596L397.926 528.275C398.207 528.252 398.486 528.202 398.757 528.124C398.481 528.087 398.202 528.087 397.926 528.124L395.472 528.294L386.147 529.068L371.273 521.517C370.178 509.984 368.838 495.6 367.328 479.574V479.31L367.139 479.159L350.679 465.587C350.339 462.302 350.018 459.056 349.697 455.847L348.64 456.224C348.942 459.414 349.244 462.642 349.565 465.927L349.603 466.191Z" fill="white" fill-opacity="0.05"/>
<path d="M376.804 478.385L376.671 478.555V478.763C377.861 490.088 378.861 499.753 379.597 506.775C379.975 510.097 380.296 512.778 380.522 514.779C380.601 515.739 380.753 516.692 380.975 517.629C381.013 516.671 380.975 515.712 380.862 514.76C380.711 512.74 380.503 510.041 380.239 506.718C379.616 499.734 378.748 490.126 377.728 478.876L393.037 460.358L401.229 450.354L401.38 450.184V449.957L401.097 447.164H400.078L400.323 449.825L392.244 459.641L376.804 478.385Z" fill="white" fill-opacity="0.05"/>
<path d="M395.623 477.705C395.813 477.408 395.906 477.058 395.887 476.705C395.845 476.272 395.632 475.874 395.295 475.598C394.959 475.322 394.527 475.191 394.094 475.233C393.881 475.252 393.673 475.313 393.483 475.412C393.293 475.512 393.125 475.648 392.988 475.813C392.851 475.978 392.749 476.169 392.686 476.373C392.623 476.578 392.601 476.794 392.622 477.007C392.636 477.316 392.739 477.614 392.92 477.865C393.101 478.116 393.351 478.308 393.64 478.418C393.929 478.529 394.244 478.552 394.546 478.486C394.848 478.42 395.124 478.266 395.34 478.045L397.02 479.555C398.813 481.16 401.381 483.331 404.382 485.879C404.608 488.276 404.854 490.843 405.099 493.43C405.665 499.376 406.251 504.755 406.741 508.663C406.886 510.779 407.227 512.877 407.761 514.93C407.873 512.813 407.797 510.691 407.534 508.587C407.27 504.661 406.798 499.262 406.232 493.316C405.949 490.56 405.665 487.918 405.42 485.483V485.256L405.25 485.124C402.098 482.576 399.398 480.443 397.454 478.97L395.623 477.705Z" fill="white" fill-opacity="0.05"/>
<path d="M414.972 520.121V520.309L415.085 520.442L423.636 529.332L423.806 529.521H424.07L474.035 524.613L499.802 522.103H500.047L500.198 521.914L519.735 496.299L518.999 495.525L499.443 521.14L473.922 523.613L424.259 528.388L415.991 519.837C413.046 490.428 410.536 465.36 408.761 447.579V447.258H408.119V447.654C409.818 465.474 412.178 490.636 414.972 520.121Z" fill="white" fill-opacity="0.05"/>
<path d="M435.943 537.827L424.089 538.808L384.977 542.508C384.826 540.809 384.656 539.035 384.467 537.241V536.826V536.524L384.203 536.392L368.932 527.747L368.781 527.652H368.611L337.239 530.918L328.159 531.956L325.743 532.277C325.46 532.299 325.181 532.356 324.912 532.447C325.194 532.493 325.481 532.493 325.762 532.447L328.197 532.296L337.295 531.579L368.554 528.728L383.391 537.185V537.317C383.599 539.299 383.788 541.281 383.976 543.15V543.716H384.524L424.164 539.677L435.981 538.355L439.171 537.94C439.544 537.913 439.912 537.837 440.266 537.713C439.896 537.663 439.521 537.663 439.152 537.713L435.943 537.827Z" fill="white" fill-opacity="0.05"/>
<path d="M292.483 489.484L302.922 499.904L303.11 500.074H303.356L331.67 497.186C332.331 503.264 332.878 508.266 333.275 511.891C333.445 513.25 333.596 514.401 333.709 515.345C333.709 515.345 333.577 515.345 333.577 515.458C333.577 515.571 333.577 515.458 333.747 515.553V516.006C333.774 516.492 333.856 516.973 333.992 517.44C334.046 516.957 334.046 516.47 333.992 515.987V515.628C334.586 515.778 335.115 516.116 335.502 516.591C335.737 516.883 335.9 517.228 335.975 517.595C336.051 517.963 336.037 518.343 335.936 518.705C335.815 519.133 335.568 519.514 335.227 519.799C334.886 520.084 334.466 520.26 334.024 520.303C333.581 520.346 333.136 520.254 332.746 520.039C332.357 519.825 332.041 519.498 331.84 519.101C331.666 518.769 331.576 518.4 331.576 518.025C331.576 517.651 331.666 517.281 331.84 516.949C332.501 515.741 333.596 515.628 333.539 515.458C333.482 515.288 333.275 515.307 332.803 515.458C332.469 515.527 332.152 515.66 331.871 515.851C331.589 516.042 331.347 516.287 331.161 516.572C330.853 517.01 330.665 517.521 330.616 518.054C330.566 518.587 330.656 519.124 330.877 519.611C331.156 520.219 331.618 520.724 332.198 521.057C332.778 521.389 333.448 521.532 334.113 521.466C334.779 521.399 335.407 521.126 335.909 520.686C336.412 520.245 336.765 519.658 336.918 519.007C337.043 518.49 337.03 517.95 336.881 517.44C336.732 516.93 336.452 516.468 336.068 516.1C335.568 515.598 334.89 515.313 334.181 515.307C334.087 515.293 333.991 515.293 333.898 515.307C333.898 514.344 333.747 513.212 333.652 511.853C333.331 508.077 332.897 502.981 332.35 496.752V496.299H331.916L303.601 498.941L293.408 488.729L292.483 489.484Z" fill="white" fill-opacity="0.05"/>
</g>
<path d="M7.45033 384.74C7.45033 384.74 32.99 364.164 117.801 408.901C117.801 408.901 203.122 446.05 174.6 481.537C150.344 511.74 100.699 494.562 73.3287 481.726C57.5722 474.037 42.7672 464.535 29.2147 453.412C7.45033 435.234 -10.7465 407.807 7.45033 384.74Z" fill="#5259A3" fill-opacity="0.05"/>
<path opacity="0.4" d="M7.45033 384.74C7.45033 384.74 32.99 364.164 117.801 408.901C117.801 408.901 203.122 446.05 174.6 481.537C150.344 511.74 100.699 494.562 73.3287 481.726C57.5722 474.037 42.7672 464.535 29.2147 453.412C7.45033 435.234 -10.7465 407.807 7.45033 384.74Z" fill="black" fill-opacity="0.05"/>
<path d="M9.33786 383.23C9.33786 383.23 39.3512 352.027 124.144 396.802C124.144 396.802 207.407 444.238 175.733 476.932C154.006 499.338 107.042 482.463 79.6711 469.627C65.3062 462.888 45.2595 451.6 33.0843 441.312C11.2255 423.153 -4.83826 400.03 9.33786 383.23Z" fill="#5259A3" fill-opacity="0.05"/>
<path opacity="0.2" d="M160.638 465.294C168.272 450.84 144.433 423.264 107.394 403.702C70.3539 384.14 34.1387 380 26.5048 394.455C18.8709 408.909 42.709 436.485 79.7488 456.047C116.789 475.609 153.004 479.749 160.638 465.294Z" fill="white" fill-opacity="0.05"/>
<path d="M139.887 447.692L128.429 441.104C125.504 435.34 120.713 430.736 114.838 428.042C105.4 423.965 100.209 426.022 100.209 426.022C100.209 426.022 100.02 416.697 86.9951 410.525C70.0064 402.427 67.0617 407.693 67.0617 407.693L53.0555 399.652L49.2802 406.183L61.2101 413.035L60.1152 414.923L47.8456 407.882L43.8816 414.753L56.2645 421.341L54.3768 424.474L116.065 459.924L118.726 455.299L130.864 462.284L134.261 456.375L122.936 449.863L124.672 446.843L135.998 453.355L139.887 447.692ZM85.4473 432.761L70.1197 423.946C70.1197 423.946 74.2725 413.375 83.8994 417.962C93.5263 422.549 85.4473 432.761 85.4473 432.761ZM110.591 446.56L97.3771 439.009C97.3771 439.009 99.2647 429.042 108.458 433.233C119.047 437.99 110.591 446.56 110.591 446.56Z" fill="#5259A3" fill-opacity="0.05"/>
<path opacity="0.4" d="M139.887 447.692L128.429 441.104C125.504 435.34 120.713 430.736 114.838 428.042C105.4 423.965 100.209 426.022 100.209 426.022C100.209 426.022 100.02 416.697 86.9951 410.525C70.0064 402.427 67.0617 407.693 67.0617 407.693L53.0555 399.652L49.2802 406.183L61.2101 413.035L60.1152 414.923L47.8456 407.882L43.8816 414.753L56.2645 421.341L54.3768 424.474L116.065 459.924L118.726 455.299L130.864 462.284L134.261 456.375L122.936 449.863L124.672 446.843L135.998 453.355L139.887 447.692ZM85.4473 432.761L70.1197 423.946C70.1197 423.946 74.2725 413.375 83.8994 417.962C93.5263 422.549 85.4473 432.761 85.4473 432.761ZM110.591 446.56L97.3771 439.009C97.3771 439.009 99.2647 429.042 108.458 433.233C119.047 437.99 110.591 446.56 110.591 446.56Z" fill="black" fill-opacity="0.05"/>
<path d="M142.699 442.69L131.241 436.102C128.318 430.341 123.526 425.743 117.65 423.059C108.212 418.981 103.04 421.039 103.04 421.039C103.04 421.039 102.851 411.714 89.8267 405.541C72.838 397.425 69.9121 402.71 69.9121 402.71L55.9059 394.65L52.1306 401.2L64.0794 408.052L62.9845 409.94L50.7149 402.88L46.7698 409.77L59.1526 416.358L57.265 419.472L118.934 454.941L121.596 450.297L133.752 457.281L137.15 451.392L125.824 444.861L127.542 441.859L139.245 448.579L142.699 442.69ZM88.2788 427.759L72.9512 418.906C72.9512 418.906 77.0852 408.335 86.731 412.903C96.3768 417.471 88.2788 427.759 88.2788 427.759ZM113.422 441.557L100.209 434.007C100.209 434.007 102.096 424.04 111.27 428.212C121.879 433.006 113.422 441.557 113.422 441.557Z" fill="#5259A3" fill-opacity="0.05"/>
<path d="M13.1133 380.436C13.1133 380.436 13.6796 379.926 15.0009 379.209C15.6238 378.85 16.3789 378.416 17.3227 377.982C18.2665 377.548 19.3425 377 20.6072 376.51C27.7102 373.629 35.2316 371.914 42.8812 371.432C48.1633 371.062 53.4669 371.132 58.7374 371.639C64.7726 372.266 70.7495 373.364 76.6133 374.924C89.8701 378.69 102.739 383.709 115.045 389.912C141.737 402.502 162.652 420.265 173.94 436.045C179.603 443.974 182.377 451.656 182.811 457.111C182.811 457.791 182.944 458.414 183 458.999V460.679C183.021 461.565 182.952 462.45 182.793 463.322C182.767 464.05 182.607 464.766 182.321 465.436C182.019 465.436 182.566 462.435 181.698 457.225C180.179 449.908 176.944 443.057 172.26 437.235C160.821 422.134 140.17 404.918 113.743 392.536C101.537 386.369 88.801 381.315 75.6883 377.434C70.0209 375.894 64.2481 374.771 58.4165 374.074C53.2857 373.485 48.1169 373.296 42.9568 373.508C35.4655 373.816 28.0555 375.183 20.947 377.567C15.8504 379.265 13.2077 380.681 13.1133 380.436Z" fill="#FAFAFA" fill-opacity="0.05"/>
<path opacity="0.4" d="M161.538 463.02C161.538 463.02 173.562 433.629 109.949 399.086C46.3357 364.542 26.4778 394.367 26.4778 394.367C26.4778 394.367 42.9757 369.695 109.194 404.428C166.861 434.743 161.538 463.02 161.538 463.02Z" fill="black" fill-opacity="0.05"/>
<path d="M145.248 497.62C144.87 497.62 145.455 495.223 146.437 492.523C146.89 490.813 147.666 489.205 148.721 487.785C148.564 489.544 148.104 491.262 147.362 492.863C146.858 494.531 146.148 496.129 145.248 497.62Z" fill="#263238" fill-opacity="0.05"/>
<path d="M160.972 492.788C160.594 492.788 160.972 490.806 161.821 488.654C162.67 486.502 163.501 484.784 163.709 484.879C163.676 486.309 163.328 487.714 162.689 488.994C162.316 490.34 161.736 491.619 160.972 492.788Z" fill="#263238" fill-opacity="0.05"/>
<path d="M131.392 498.186C131.556 496.23 132.047 494.316 132.846 492.523C133.337 490.647 134.141 488.866 135.224 487.257C135.058 489.212 134.567 491.126 133.771 492.92C133.285 494.798 132.48 496.579 131.392 498.186Z" fill="#263238" fill-opacity="0.05"/>
<path d="M117.896 496.695C118.102 494.635 118.637 492.621 119.481 490.73C120.006 488.719 120.853 486.806 121.992 485.067C121.255 489.125 119.872 493.038 117.896 496.658V496.695Z" fill="#263238" fill-opacity="0.05"/>
<path d="M103.21 492.712C103.416 490.652 103.952 488.638 104.796 486.747C105.329 484.739 106.176 482.828 107.306 481.085C107.091 483.143 106.556 485.156 105.721 487.049C105.192 489.059 104.344 490.971 103.21 492.712Z" fill="#263238" fill-opacity="0.05"/>
<path d="M89.6379 487.88C89.8442 485.82 90.3795 483.806 91.2235 481.915C91.7569 479.907 92.6042 477.996 93.7341 476.252C93.5191 478.311 92.9841 480.323 92.1485 482.217C91.62 484.227 90.7723 486.139 89.6379 487.88Z" fill="#263238" fill-opacity="0.05"/>
<path d="M76.0659 483.085C76.2722 481.025 76.8075 479.011 77.6515 477.121C78.1849 475.112 79.0322 473.201 80.1621 471.458C79.4228 475.526 78.0401 479.452 76.0659 483.085Z" fill="#263238" fill-opacity="0.05"/>
<path d="M63.3242 475.875C63.5289 473.816 64.0577 471.803 64.891 469.91C65.4291 467.903 66.276 465.993 67.4015 464.247C67.1968 466.305 66.668 468.318 65.8348 470.212C65.2967 472.218 64.4497 474.129 63.3242 475.875Z" fill="#263238" fill-opacity="0.05"/>
<path d="M50.6772 468.381C51.4185 464.318 52.8011 460.4 54.7734 456.772C54.5671 458.832 54.0318 460.846 53.1878 462.737C52.6525 464.738 51.8053 466.643 50.6772 468.381Z" fill="#263238" fill-opacity="0.05"/>
<path d="M38.1433 460.547C38.3605 458.489 38.8953 456.477 39.7289 454.582C40.2623 452.574 41.1096 450.663 42.2395 448.919C42.0244 450.978 41.4895 452.99 40.6539 454.884C40.1253 456.894 39.2777 458.806 38.1433 460.547Z" fill="#263238" fill-opacity="0.05"/>
<path d="M26.6663 451.656C27.4075 447.594 28.7902 443.675 30.7624 440.047C30.5453 442.106 30.0104 444.118 29.1768 446.012C28.6464 448.016 27.7988 449.921 26.6663 451.656Z" fill="#263238" fill-opacity="0.05"/>
<path d="M15.605 440.689C16.3462 436.627 17.7289 432.708 19.7011 429.08C19.484 431.138 18.9491 433.151 18.1155 435.045C17.5851 437.048 16.7375 438.954 15.605 440.689Z" fill="#263238" fill-opacity="0.05"/>
<path d="M7.22388 427.759C7.37119 425.92 7.8308 424.12 8.58297 422.436C9.05053 420.64 9.83002 418.941 10.8859 417.415C10.7333 419.234 10.2738 421.015 9.52678 422.681C9.07047 424.498 8.29037 426.218 7.22388 427.759Z" fill="#263238" fill-opacity="0.05"/>
<path d="M1.10791 414.281C1.25522 412.443 1.71484 410.642 2.46701 408.958C2.93178 407.167 3.71158 405.473 4.76992 403.956C4.62481 405.795 4.1651 407.595 3.41082 409.279C2.95108 411.072 2.17088 412.766 1.10791 414.281Z" fill="#263238" fill-opacity="0.05"/>
<path d="M83.9937 412.809C83.6351 413.564 82.2193 413.658 80.7092 413.809C79.1991 413.96 77.7645 414.055 77.2926 413.375C77.085 413.035 77.2926 412.488 77.8023 411.959C78.553 411.329 79.4808 410.946 80.4579 410.865C81.4349 410.784 82.4131 411.008 83.2576 411.506C83.8993 411.922 84.1447 412.45 83.9937 412.809Z" fill="#FAFAFA" fill-opacity="0.05"/>
<path d="M110.968 428.344C110.477 429.005 108.929 428.74 107.193 428.627C105.456 428.514 103.946 428.495 103.587 427.74C103.418 427.381 103.587 426.834 104.38 426.381C105.308 425.85 106.374 425.613 107.439 425.701C108.504 425.788 109.517 426.196 110.345 426.872C111.006 427.476 111.27 428.042 110.968 428.344Z" fill="#FAFAFA" fill-opacity="0.05"/>
<path d="M91.45 406.353C91.45 406.523 90.7704 406.353 89.8266 406.108L86.0513 404.673C84.2082 403.968 82.3154 403.4 80.3884 402.974C78.1368 402.429 75.7956 402.365 73.5175 402.785C73.0456 402.878 72.5841 403.017 72.1395 403.201C71.7822 403.348 71.4408 403.532 71.1202 403.748L70.2141 404.446L69.3835 403.975C61.4932 399.274 55.7548 395.291 56.1701 394.65C56.5854 394.008 62.8712 396.971 70.8936 401.445L69.1759 401.653C69.7354 401.17 70.3739 400.786 71.0635 400.52C71.6663 400.24 72.2998 400.03 72.9512 399.897C75.6708 399.38 78.475 399.529 81.1246 400.331C83.0753 400.94 84.9549 401.756 86.7309 402.766C87.9988 403.43 89.1998 404.213 90.3174 405.107C91.1668 405.692 91.5632 406.183 91.45 406.353Z" fill="#FAFAFA" fill-opacity="0.05"/>
</svg>
