<svg width="265" height="276" viewBox="0 0 265 276" fill="none" xmlns="http://www.w3.org/2000/svg">
<rect x="0.5" y="0.619385" width="264.5" height="274.626" rx="16" fill="#FFE6F7"/>
<path d="M31.16 34.6194H29.234V30.1374L24.554 22.5594H26.768L29.054 26.2854L30.17 28.1754H30.296L31.394 26.2854L33.662 22.5594H35.858L31.16 30.1734V34.6194ZM39.4545 34.7994C36.7005 34.7994 34.9905 32.9274 34.9905 30.1374C34.9905 27.3654 36.7005 25.4934 39.4545 25.4934C42.1905 25.4934 43.8465 27.3654 43.8465 30.1374C43.8465 32.9274 42.1905 34.7994 39.4545 34.7994ZM39.4545 33.0714C41.3265 33.0714 41.9745 32.1534 41.9745 30.1374C41.9745 28.1394 41.3265 27.2214 39.4545 27.2214C37.5645 27.2214 36.8985 28.1394 36.8985 30.1374C36.8985 32.1534 37.5645 33.0714 39.4545 33.0714ZM48.6297 34.7994C46.2897 34.7994 45.2457 33.2334 45.2457 31.1994V25.6734H47.1897V30.8574C47.1897 32.4594 47.8017 33.1254 49.3497 33.1254C50.8437 33.1254 51.6897 32.4774 51.6897 30.7134V25.6734H53.6337V34.6194H51.8337V32.8374H51.7617C51.3297 33.8634 50.3757 34.7994 48.6297 34.7994ZM57.4918 34.6194H55.5478V25.6194H57.3298V27.0414H57.4198C57.7798 26.2134 58.6078 25.4934 59.9218 25.4934C61.7938 25.4934 62.5138 26.8614 62.5138 28.5354V29.1294H60.5698V28.7694C60.5698 27.5814 60.2278 27.1494 59.0938 27.1494C57.9238 27.1494 57.4918 27.5994 57.4918 28.7874V34.6194ZM70.8544 34.7994C68.2984 34.7994 66.9124 32.9814 66.9124 30.1374C66.9124 27.3114 68.2804 25.4934 70.7464 25.4934C72.3304 25.4934 73.2844 26.2494 73.6804 27.0594H73.7344V22.5594H75.6604V34.6194H73.8784V33.1434H73.8064C73.3744 34.1694 72.3844 34.7994 70.8544 34.7994ZM68.8564 30.1374C68.8564 32.3514 69.5584 33.1434 71.2864 33.1434C72.8704 33.1434 73.7344 32.4414 73.7344 30.9474V29.3454C73.7344 27.8514 72.8704 27.1494 71.2864 27.1494C69.5764 27.1494 68.8564 27.9414 68.8564 30.1374ZM79.9333 34.7994C78.3313 34.7994 77.0893 33.9714 77.0893 32.4054C77.0893 30.9294 78.1693 30.1554 80.0773 29.8854L83.2093 29.4174V28.9314C83.2093 27.5994 82.5973 27.2034 81.1933 27.2034C79.7713 27.2034 79.2133 27.6534 79.2133 28.8414V29.1114H77.3413V28.9314C77.3413 26.9334 78.9072 25.4934 81.3013 25.4934C83.8033 25.4934 85.0633 27.0054 85.0633 29.1834V34.6194H83.2633V33.2154H83.1733C82.6513 34.0614 81.6253 34.7994 79.9333 34.7994ZM78.9793 32.2614C78.9793 32.9634 79.4293 33.2514 80.5633 33.2514C81.8232 33.2514 83.2093 32.7474 83.2093 30.9474V30.7854L80.3653 31.2174C79.3393 31.3614 78.9793 31.5954 78.9793 32.2614ZM90.5632 34.6194C88.5652 34.6194 87.5212 33.8814 87.5212 31.8654V27.2934H86.0272V25.6734H87.5572L87.9712 23.4594H89.4652V25.6734H92.1652V27.2934H89.4652V31.7754C89.4652 32.7114 89.8612 32.8734 91.0672 32.8734H92.1652V34.4574C91.7872 34.5474 91.1752 34.6194 90.5632 34.6194ZM95.8942 34.7994C94.2922 34.7994 93.0502 33.9714 93.0502 32.4054C93.0502 30.9294 94.1302 30.1554 96.0382 29.8854L99.1702 29.4174V28.9314C99.1702 27.5994 98.5582 27.2034 97.1542 27.2034C95.7322 27.2034 95.1742 27.6534 95.1742 28.8414V29.1114H93.3022V28.9314C93.3022 26.9334 94.8682 25.4934 97.2622 25.4934C99.7642 25.4934 101.024 27.0054 101.024 29.1834V34.6194H99.2242V33.2154H99.1342C98.6122 34.0614 97.5862 34.7994 95.8942 34.7994ZM94.9402 32.2614C94.9402 32.9634 95.3902 33.2514 96.5242 33.2514C97.7842 33.2514 99.1702 32.7474 99.1702 30.9474V30.7854L96.3262 31.2174C95.3002 31.3614 94.9402 31.5954 94.9402 32.2614ZM110.04 34.7994C107.43 34.7994 106.062 33.7734 106.062 31.5954V31.5594H107.934V31.8834C107.934 32.8554 108.366 33.2154 110.076 33.2154C111.516 33.2154 111.786 32.8914 111.786 32.2254C111.786 31.5054 111.354 31.2894 110.04 31.0554L108.654 30.8214C107.052 30.5334 106.044 29.8134 106.044 28.1934C106.044 26.5734 107.376 25.4934 109.716 25.4934C111.822 25.4934 113.406 26.5374 113.406 28.5714V28.7334H111.552V28.5174C111.552 27.6894 111.264 27.0954 109.662 27.0954C108.24 27.0954 107.898 27.4734 107.898 28.1574C107.898 28.8414 108.222 29.0394 109.482 29.2914L110.994 29.5794C112.722 29.9214 113.622 30.6954 113.622 32.1714C113.622 33.8274 112.308 34.7994 110.04 34.7994ZM118.829 34.6194C116.831 34.6194 115.787 33.8814 115.787 31.8654V27.2934H114.293V25.6734H115.823L116.237 23.4594H117.731V25.6734H120.431V27.2934H117.731V31.7754C117.731 32.7114 118.127 32.8734 119.333 32.8734H120.431V34.4574C120.053 34.5474 119.441 34.6194 118.829 34.6194ZM124.16 34.7994C122.558 34.7994 121.316 33.9714 121.316 32.4054C121.316 30.9294 122.396 30.1554 124.304 29.8854L127.436 29.4174V28.9314C127.436 27.5994 126.824 27.2034 125.42 27.2034C123.998 27.2034 123.44 27.6534 123.44 28.8414V29.1114H121.568V28.9314C121.568 26.9334 123.134 25.4934 125.528 25.4934C128.03 25.4934 129.29 27.0054 129.29 29.1834V34.6194H127.49V33.2154H127.4C126.878 34.0614 125.852 34.7994 124.16 34.7994ZM123.206 32.2614C123.206 32.9634 123.656 33.2514 124.79 33.2514C126.05 33.2514 127.436 32.7474 127.436 30.9474V30.7854L124.592 31.2174C123.566 31.3614 123.206 31.5954 123.206 32.2614ZM132.172 37.6794C131.686 37.6794 131.128 37.6074 130.822 37.5174V35.9334H132.046C132.82 35.9334 133.09 35.8074 133.378 35.1414L133.72 34.3854L129.922 25.6734H132.063L133.864 30.0114L134.674 31.9554H134.818L135.556 30.0114L137.194 25.6734H139.336L135.106 35.6814C134.439 37.2654 133.576 37.6794 132.172 37.6794ZM143.79 34.7994C141.18 34.7994 139.812 33.7734 139.812 31.5954V31.5594H141.684V31.8834C141.684 32.8554 142.116 33.2154 143.826 33.2154C145.266 33.2154 145.536 32.8914 145.536 32.2254C145.536 31.5054 145.104 31.2894 143.79 31.0554L142.404 30.8214C140.802 30.5334 139.794 29.8134 139.794 28.1934C139.794 26.5734 141.126 25.4934 143.466 25.4934C145.572 25.4934 147.156 26.5374 147.156 28.5714V28.7334H145.302V28.5174C145.302 27.6894 145.014 27.0954 143.412 27.0954C141.99 27.0954 141.648 27.4734 141.648 28.1574C141.648 28.8414 141.972 29.0394 143.232 29.2914L144.744 29.5794C146.472 29.9214 147.372 30.6954 147.372 32.1714C147.372 33.8274 146.058 34.7994 143.79 34.7994ZM156.311 34.7994C153.359 34.7994 151.973 32.9274 151.973 30.1374C151.973 27.3654 153.629 25.4934 156.293 25.4934C158.705 25.4934 160.397 26.9334 160.397 29.3814C160.397 29.8494 160.343 30.3354 160.289 30.6054H153.791C153.863 32.2434 154.457 33.0714 156.329 33.0714C157.823 33.0714 158.399 32.5674 158.399 31.7574V31.6134H160.325V31.7754C160.325 33.6114 158.723 34.7994 156.311 34.7994ZM156.257 27.1314C154.565 27.1314 153.917 27.9234 153.809 29.3094H158.543C158.615 27.7794 157.787 27.1314 156.257 27.1314ZM163.892 34.6194H161.948V25.6734H163.73V27.3474H163.802C164.216 26.3934 165.17 25.4934 166.916 25.4934C169.238 25.4934 170.282 26.9694 170.282 29.0034V34.6194H168.338V29.4354C168.338 27.8334 167.834 27.1674 166.196 27.1674C164.612 27.1674 163.892 27.7794 163.892 29.4534V34.6194ZM176.122 34.8174C173.332 34.8174 171.748 32.9274 171.748 30.1554C171.748 27.3654 173.386 25.4934 176.194 25.4934C178.552 25.4934 180.172 26.9514 180.172 29.0934V29.2554H178.246V29.1474C178.246 27.8334 177.562 27.2394 176.068 27.2394C174.34 27.2394 173.674 28.2114 173.674 30.1554C173.674 32.0994 174.34 33.0534 176.068 33.0534C177.562 33.0534 178.246 32.4774 178.246 31.1634V31.0554H180.172V31.2174C180.172 33.3414 178.534 34.8174 176.122 34.8174ZM183.58 34.6194H181.636V25.6194H183.418V27.0414H183.508C183.868 26.2134 184.696 25.4934 186.01 25.4934C187.882 25.4934 188.602 26.8614 188.602 28.5354V29.1294H186.658V28.7694C186.658 27.5814 186.316 27.1494 185.182 27.1494C184.012 27.1494 183.58 27.5994 183.58 28.7874V34.6194ZM191.304 37.6794C190.818 37.6794 190.26 37.6074 189.954 37.5174V35.9334H191.178C191.952 35.9334 192.222 35.8074 192.51 35.1414L192.852 34.3854L189.054 25.6734H191.196L192.996 30.0114L193.806 31.9554H193.95L194.688 30.0114L196.326 25.6734H198.468L194.238 35.6814C193.572 37.2654 192.708 37.6794 191.304 37.6794ZM201.261 37.7334H199.335V25.6734H201.099V27.1494H201.189C201.603 26.1054 202.629 25.4934 204.177 25.4934C206.697 25.4934 208.083 27.3114 208.083 30.1554C208.083 32.9814 206.733 34.7994 204.303 34.7994C202.701 34.7994 201.711 34.0614 201.315 33.2334H201.261V37.7334ZM201.261 30.9474C201.261 32.4414 202.125 33.1434 203.709 33.1434C205.419 33.1434 206.139 32.3514 206.139 30.1554C206.139 27.9414 205.437 27.1494 203.709 27.1494C202.125 27.1494 201.261 27.8514 201.261 29.3454V30.9474ZM213.276 34.6194C211.278 34.6194 210.234 33.8814 210.234 31.8654V27.2934H208.74V25.6734H210.27L210.684 23.4594H212.178V25.6734H214.878V27.2934H212.178V31.7754C212.178 32.7114 212.574 32.8734 213.78 32.8734H214.878V34.4574C214.5 34.5474 213.888 34.6194 213.276 34.6194ZM219.856 34.7994C216.904 34.7994 215.518 32.9274 215.518 30.1374C215.518 27.3654 217.174 25.4934 219.838 25.4934C222.25 25.4934 223.942 26.9334 223.942 29.3814C223.942 29.8494 223.888 30.3354 223.834 30.6054H217.336C217.408 32.2434 218.002 33.0714 219.874 33.0714C221.368 33.0714 221.944 32.5674 221.944 31.7574V31.6134H223.87V31.7754C223.87 33.6114 222.268 34.7994 219.856 34.7994ZM219.802 27.1314C218.11 27.1314 217.462 27.9234 217.354 29.3094H222.088C222.16 27.7794 221.332 27.1314 219.802 27.1314ZM229.163 34.7994C226.607 34.7994 225.221 32.9814 225.221 30.1374C225.221 27.3114 226.589 25.4934 229.055 25.4934C230.639 25.4934 231.593 26.2494 231.989 27.0594H232.043V22.5594H233.969V34.6194H232.187V33.1434H232.115C231.683 34.1694 230.693 34.7994 229.163 34.7994ZM227.165 30.1374C227.165 32.3514 227.867 33.1434 229.595 33.1434C231.179 33.1434 232.043 32.4414 232.043 30.9474V29.3454C232.043 27.8514 231.179 27.1494 229.595 27.1494C227.885 27.1494 227.165 27.9414 227.165 30.1374ZM27.902 59.7994C26.3 59.7994 25.058 58.9714 25.058 57.4054C25.058 55.9294 26.138 55.1554 28.046 54.8854L31.178 54.4174V53.9314C31.178 52.5994 30.566 52.2034 29.162 52.2034C27.74 52.2034 27.182 52.6534 27.182 53.8414V54.1114H25.31V53.9314C25.31 51.9334 26.876 50.4934 29.27 50.4934C31.772 50.4934 33.032 52.0054 33.032 54.1834V59.6194H31.232V58.2154H31.142C30.62 59.0614 29.594 59.7994 27.902 59.7994ZM26.948 57.2614C26.948 57.9634 27.398 58.2514 28.532 58.2514C29.792 58.2514 31.178 57.7474 31.178 55.9474V55.7854L28.334 56.2174C27.308 56.3614 26.948 56.5954 26.948 57.2614ZM36.8375 59.6194H34.8935V50.6734H36.6755V52.3474H36.7475C37.1615 51.3934 38.1155 50.4934 39.8615 50.4934C42.1835 50.4934 43.2275 51.9694 43.2275 54.0034V59.6194H41.2835V54.4354C41.2835 52.8334 40.7795 52.1674 39.1415 52.1674C37.5575 52.1674 36.8375 52.7794 36.8375 54.4534V59.6194ZM48.6356 59.7994C46.0796 59.7994 44.6936 57.9814 44.6936 55.1374C44.6936 52.3114 46.0616 50.4934 48.5276 50.4934C50.1116 50.4934 51.0656 51.2494 51.4616 52.0594H51.5156V47.5594H53.4416V59.6194H51.6596V58.1434H51.5876C51.1556 59.1694 50.1656 59.7994 48.6356 59.7994ZM46.6376 55.1374C46.6376 57.3514 47.3396 58.1434 49.0676 58.1434C50.6516 58.1434 51.5156 57.4414 51.5156 55.9474V54.3454C51.5156 52.8514 50.6516 52.1494 49.0676 52.1494C47.3576 52.1494 46.6376 52.9414 46.6376 55.1374ZM62.509 59.7994C59.899 59.7994 58.531 58.7734 58.531 56.5954V56.5594H60.403V56.8834C60.403 57.8554 60.835 58.2154 62.545 58.2154C63.985 58.2154 64.255 57.8914 64.255 57.2254C64.255 56.5054 63.823 56.2894 62.509 56.0554L61.123 55.8214C59.521 55.5334 58.513 54.8134 58.513 53.1934C58.513 51.5734 59.845 50.4934 62.185 50.4934C64.291 50.4934 65.875 51.5374 65.875 53.5714V53.7334H64.021V53.5174C64.021 52.6894 63.733 52.0954 62.131 52.0954C60.709 52.0954 60.367 52.4734 60.367 53.1574C60.367 53.8414 60.691 54.0394 61.951 54.2914L63.463 54.5794C65.191 54.9214 66.091 55.6954 66.091 57.1714C66.091 58.8274 64.777 59.7994 62.509 59.7994ZM71.6371 59.7994C68.6851 59.7994 67.2991 57.9274 67.2991 55.1374C67.2991 52.3654 68.9551 50.4934 71.6191 50.4934C74.0311 50.4934 75.7231 51.9334 75.7231 54.3814C75.7231 54.8494 75.6691 55.3354 75.6151 55.6054H69.1171C69.1891 57.2434 69.7831 58.0714 71.6551 58.0714C73.1491 58.0714 73.7251 57.5674 73.7251 56.7574V56.6134H75.6511V56.7754C75.6511 58.6114 74.0491 59.7994 71.6371 59.7994ZM71.5831 52.1314C69.8911 52.1314 69.2431 52.9234 69.1351 54.3094H73.8691C73.9411 52.7794 73.1131 52.1314 71.5831 52.1314ZM81.3762 59.8174C78.5862 59.8174 77.0022 57.9274 77.0022 55.1554C77.0022 52.3654 78.6402 50.4934 81.4482 50.4934C83.8062 50.4934 85.4262 51.9514 85.4262 54.0934V54.2554H83.5002V54.1474C83.5002 52.8334 82.8162 52.2394 81.3222 52.2394C79.5942 52.2394 78.9282 53.2114 78.9282 55.1554C78.9282 57.0994 79.5942 58.0534 81.3222 58.0534C82.8162 58.0534 83.5002 57.4774 83.5002 56.1634V56.0554H85.4262V56.2174C85.4262 58.3414 83.7882 59.8174 81.3762 59.8174ZM90.2195 59.7994C87.8795 59.7994 86.8355 58.2334 86.8355 56.1994V50.6734H88.7795V55.8574C88.7795 57.4594 89.3915 58.1254 90.9395 58.1254C92.4335 58.1254 93.2795 57.4774 93.2795 55.7134V50.6734H95.2235V59.6194H93.4235V57.8374H93.3515C92.9195 58.8634 91.9655 59.7994 90.2195 59.7994ZM99.0816 59.6194H97.1376V50.6194H98.9196V52.0414H99.0096C99.3696 51.2134 100.198 50.4934 101.512 50.4934C103.384 50.4934 104.104 51.8614 104.104 53.5354V54.1294H102.16V53.7694C102.16 52.5814 101.818 52.1494 100.684 52.1494C99.5136 52.1494 99.0816 52.5994 99.0816 53.7874V59.6194ZM109.325 59.7994C106.373 59.7994 104.987 57.9274 104.987 55.1374C104.987 52.3654 106.643 50.4934 109.307 50.4934C111.719 50.4934 113.411 51.9334 113.411 54.3814C113.411 54.8494 113.357 55.3354 113.303 55.6054H106.805C106.877 57.2434 107.471 58.0714 109.343 58.0714C110.837 58.0714 111.413 57.5674 111.413 56.7574V56.6134H113.339V56.7754C113.339 58.6114 111.737 59.7994 109.325 59.7994ZM109.271 52.1314C107.579 52.1314 106.931 52.9234 106.823 54.3094H111.557C111.629 52.7794 110.801 52.1314 109.271 52.1314ZM120.89 59.7994C119.288 59.7994 118.046 58.9714 118.046 57.4054C118.046 55.9294 119.126 55.1554 121.034 54.8854L124.166 54.4174V53.9314C124.166 52.5994 123.554 52.2034 122.15 52.2034C120.728 52.2034 120.17 52.6534 120.17 53.8414V54.1114H118.298V53.9314C118.298 51.9334 119.864 50.4934 122.258 50.4934C124.76 50.4934 126.02 52.0054 126.02 54.1834V59.6194H124.22V58.2154H124.13C123.608 59.0614 122.582 59.7994 120.89 59.7994ZM119.936 57.2614C119.936 57.9634 120.386 58.2514 121.52 58.2514C122.78 58.2514 124.166 57.7474 124.166 55.9474V55.7854L121.322 56.2174C120.296 56.3614 119.936 56.5954 119.936 57.2614ZM131.52 59.6194C129.522 59.6194 128.478 58.8814 128.478 56.8654V52.2934H126.984V50.6734H128.514L128.928 48.4594H130.422V50.6734H133.122V52.2934H130.422V56.7754C130.422 57.7114 130.818 57.8734 132.024 57.8734H133.122V59.4574C132.744 59.5474 132.132 59.6194 131.52 59.6194ZM140.297 59.7994C138.695 59.7994 137.453 58.9714 137.453 57.4054C137.453 55.9294 138.533 55.1554 140.441 54.8854L143.573 54.4174V53.9314C143.573 52.5994 142.961 52.2034 141.557 52.2034C140.135 52.2034 139.577 52.6534 139.577 53.8414V54.1114H137.705V53.9314C137.705 51.9334 139.271 50.4934 141.665 50.4934C144.167 50.4934 145.427 52.0054 145.427 54.1834V59.6194H143.627V58.2154H143.537C143.015 59.0614 141.989 59.7994 140.297 59.7994ZM139.343 57.2614C139.343 57.9634 139.793 58.2514 140.927 58.2514C142.187 58.2514 143.573 57.7474 143.573 55.9474V55.7854L140.729 56.2174C139.703 56.3614 139.343 56.5954 139.343 57.2614ZM149.232 59.6194H147.288V47.5594H149.232V59.6194ZM153.152 59.6194H151.208V47.5594H153.152V59.6194ZM162.194 59.6194C160.196 59.6194 159.152 58.8814 159.152 56.8654V52.2934H157.658V50.6734H159.188L159.602 48.4594H161.096V50.6734H163.796V52.2934H161.096V56.7754C161.096 57.7114 161.492 57.8734 162.698 57.8734H163.796V59.4574C163.418 59.5474 162.806 59.6194 162.194 59.6194ZM166.877 49.5394H164.951L164.933 47.5594H166.877V49.5394ZM166.895 59.6194H164.951V50.6194H166.895V59.6194ZM170.625 59.6194H168.681V50.6734H170.463V52.3474H170.535C170.949 51.3934 171.885 50.4934 173.595 50.4934C175.161 50.4934 176.133 51.2134 176.565 52.3474H176.619C177.033 51.4114 177.951 50.4934 179.715 50.4934C182.019 50.4934 183.045 51.9694 183.045 54.0034V59.6194H181.101V54.4354C181.101 52.8334 180.615 52.1674 178.995 52.1674C177.519 52.1674 176.835 52.7794 176.835 54.4174V59.6194H174.891V54.4354C174.891 52.8334 174.405 52.1674 172.785 52.1674C171.309 52.1674 170.625 52.7794 170.625 54.3994V59.6194ZM188.848 59.7994C185.896 59.7994 184.51 57.9274 184.51 55.1374C184.51 52.3654 186.166 50.4934 188.83 50.4934C191.242 50.4934 192.934 51.9334 192.934 54.3814C192.934 54.8494 192.88 55.3354 192.826 55.6054H186.328C186.4 57.2434 186.994 58.0714 188.866 58.0714C190.36 58.0714 190.936 57.5674 190.936 56.7574V56.6134H192.862V56.7754C192.862 58.6114 191.26 59.7994 188.848 59.7994ZM188.794 52.1314C187.102 52.1314 186.454 52.9234 186.346 54.3094H191.08C191.152 52.7794 190.324 52.1314 188.794 52.1314ZM198.335 59.7994C195.725 59.7994 194.357 58.7734 194.357 56.5954V56.5594H196.229V56.8834C196.229 57.8554 196.661 58.2154 198.371 58.2154C199.811 58.2154 200.081 57.8914 200.081 57.2254C200.081 56.5054 199.649 56.2894 198.335 56.0554L196.949 55.8214C195.347 55.5334 194.339 54.8134 194.339 53.1934C194.339 51.5734 195.671 50.4934 198.011 50.4934C200.117 50.4934 201.701 51.5374 201.701 53.5714V53.7334H199.847V53.5174C199.847 52.6894 199.559 52.0954 197.957 52.0954C196.535 52.0954 196.193 52.4734 196.193 53.1574C196.193 53.8414 196.517 54.0394 197.777 54.2914L199.289 54.5794C201.017 54.9214 201.917 55.6954 201.917 57.1714C201.917 58.8274 200.603 59.7994 198.335 59.7994ZM205.555 59.6194H203.089V56.8294H205.555V59.6194Z" fill="black"/>
<path d="M70.668 235.961C70.3401 231.917 68.4874 225.271 63.7826 218.943C58.75 212.177 52.6088 207.941 48.0498 209.918C43.803 211.766 45.4112 217.626 52.7337 223.413C57.86 227.467 63.1789 232.75 66.0413 239.125L70.6784 247.239L70.668 235.961Z" fill="#8041FF"/>
<g opacity="0.1">
<path d="M70.668 235.961C70.3401 231.917 68.4874 225.271 63.7826 218.943C58.75 212.177 52.6088 207.941 48.0498 209.918C43.803 211.766 45.4112 217.626 52.7337 223.413C57.86 227.467 63.1789 232.75 66.0413 239.125L70.6784 247.239L70.668 235.961Z" fill="black"/>
</g>
<path d="M70.2569 239.047C70.1973 239.047 70.1393 239.029 70.0908 238.994C70.0423 238.96 70.0057 238.911 69.9862 238.855C65.9112 227.639 57.4281 216.288 50.2513 212.453C50.2171 212.435 50.1867 212.411 50.162 212.381C50.1372 212.352 50.1185 212.318 50.1069 212.281C50.0953 212.244 50.091 212.206 50.0944 212.167C50.0977 212.129 50.1086 212.091 50.1264 212.057C50.1441 212.023 50.1684 211.993 50.1979 211.968C50.2274 211.943 50.2615 211.925 50.2982 211.913C50.335 211.901 50.3736 211.897 50.412 211.9C50.4504 211.904 50.4877 211.915 50.5219 211.932C57.808 215.83 66.4108 227.311 70.5275 238.652C70.5526 238.723 70.5487 238.801 70.5165 238.869C70.4844 238.937 70.4266 238.99 70.3557 239.016C70.3255 239.033 70.2917 239.044 70.2569 239.047Z" fill="white"/>
<path d="M70.2569 249.799C67.9025 251.651 65.1025 252.85 62.138 253.276C57.0221 254.077 54.7843 251.631 54.7843 251.631C54.7843 251.631 56.7984 246.833 59.7076 245.485C56.5635 246.189 53.5614 247.421 50.8289 249.128C50.8289 249.128 47.7063 249.175 46.4625 244.408C46.4625 244.408 48.31 241.54 54.5188 239.989C54.5188 239.989 50.7457 239.037 45.3019 240.426C44.8907 240.588 43.1525 234.426 42.6268 231.579C42.1012 228.732 43.241 228.763 45.458 228.17C47.6751 227.577 55.2214 227.207 56.611 228.43C58.0006 229.653 58.6927 233.817 58.6927 233.817C58.6927 233.817 60.0199 231.459 59.7024 229.351C61.2493 228.91 62.8939 228.95 64.4176 229.466C66.9104 230.33 66.7491 231.548 66.7491 233.359C66.7598 235.184 66.5092 237.001 66.0049 238.756C66.0049 238.756 67.7275 237.267 67.7848 231.782C67.7848 231.782 71.152 234.66 72.5052 237.137C73.8583 239.614 73.52 246.094 70.2569 249.799Z" fill="#8041FF"/>
<path d="M70.2569 250.075C70.2027 250.076 70.1494 250.061 70.1034 250.032C70.0573 250.004 70.0203 249.963 69.9966 249.914C65.8696 241.337 50.5219 231.376 45.0156 230.304C44.9408 230.289 44.8748 230.245 44.832 230.181C44.7891 230.118 44.7729 230.041 44.7867 229.966C44.7941 229.929 44.8088 229.893 44.8298 229.862C44.8509 229.831 44.8779 229.804 44.9093 229.783C44.9407 229.763 44.976 229.748 45.013 229.741C45.05 229.734 45.088 229.734 45.1249 229.742C50.7248 230.829 66.3224 240.952 70.5171 249.664C70.5494 249.733 70.5534 249.812 70.5281 249.884C70.5028 249.956 70.4503 250.016 70.3818 250.049C70.3428 250.068 70.3 250.077 70.2569 250.075Z" fill="white"/>
<path d="M69.1952 158.827V252.256L156.384 201.914V117.593L96.8252 151.952L94.5873 144.135L69.1952 158.827Z" fill="#37474F"/>
<path d="M69.1952 252.256L73.6657 170.214L160.855 119.878L156.384 201.914L69.1952 252.256Z" fill="#F0F0F0"/>
<path d="M69.1952 252.256L77.0902 172.499L164.279 122.162L156.384 201.914L69.1952 252.256Z" fill="#455A64"/>
<path d="M106.937 258.944C106.693 258.944 106.656 258.663 106.656 258.496V138.462C106.675 138.15 106.766 137.846 106.922 137.575C107.078 137.304 107.296 137.074 107.557 136.901L191.795 88.3027C191.89 88.241 191.999 88.2051 192.112 88.1986C192.351 88.1986 192.388 88.4796 192.388 88.6462V208.685C192.369 208.997 192.278 209.301 192.122 209.572C191.966 209.843 191.749 210.074 191.488 210.246L107.255 258.84C107.159 258.9 107.05 258.936 106.937 258.944Z" fill="#FAFAFA"/>
<path d="M192.07 88.5108C192.078 88.5556 192.078 88.6014 192.07 88.6462V208.685C192.049 208.943 191.97 209.193 191.841 209.417C191.711 209.641 191.534 209.834 191.321 209.981L107.104 258.579C107.064 258.604 107.02 258.621 106.974 258.631C106.97 258.586 106.97 258.541 106.974 258.496V138.462C106.994 138.205 107.071 137.955 107.199 137.73C107.328 137.506 107.505 137.314 107.718 137.167L191.946 88.5629C191.985 88.5398 192.027 88.5223 192.07 88.5108ZM192.112 87.8967C191.946 87.9008 191.784 87.9493 191.644 88.0372L107.406 136.641C107.101 136.841 106.849 137.111 106.668 137.427C106.487 137.744 106.383 138.098 106.365 138.462V258.496C106.365 258.97 106.599 259.245 106.948 259.245C107.113 259.239 107.274 259.191 107.416 259.105L191.659 210.501C191.962 210.3 192.214 210.03 192.395 209.714C192.576 209.397 192.68 209.043 192.7 208.68V88.6462C192.7 88.1674 192.461 87.8967 192.117 87.8967H192.112Z" fill="#E6E6E6"/>
<path d="M113.755 141.523L138.424 127.278V155.762L113.755 170.006V141.523Z" fill="#8041FF"/>
<path d="M134.723 134.398V142.943L133.948 143.375V140.773C133.948 139.326 132.772 138.837 131.32 139.675L120.88 145.712C119.428 146.55 118.246 148.403 118.246 149.844V152.447L117.476 152.91V144.369L134.723 134.398Z" fill="#FAFAFA"/>
<path d="M129.967 156.178C128.697 156.912 127.672 156.142 127.672 154.466V140.757L124.523 142.485V156.298C124.523 157.974 123.482 159.941 122.228 160.654L119.938 161.976V162.886L132.272 155.762V154.856L129.967 156.178Z" fill="#FAFAFA"/>
<path d="M143.357 125.857C143.357 126.643 144.065 126.898 144.919 126.378L183.702 103.999C184.124 103.756 184.485 103.418 184.756 103.013C185.026 102.608 185.2 102.146 185.263 101.662C185.263 100.876 184.555 100.647 183.702 101.142L144.919 123.521C144.496 123.763 144.134 124.1 143.863 124.506C143.593 124.911 143.419 125.374 143.357 125.857Z" fill="#E0E0E0"/>
<path d="M143.357 134.398C143.357 135.189 144.065 135.439 144.919 134.918L183.702 112.539C184.124 112.296 184.485 111.959 184.756 111.554C185.026 111.148 185.2 110.686 185.263 110.203C185.263 109.417 184.555 109.162 183.702 109.682L144.919 132.061C144.496 132.303 144.134 132.64 143.863 133.046C143.593 133.451 143.419 133.914 143.357 134.398Z" fill="#E0E0E0"/>
<path d="M143.357 142.943C143.357 143.734 144.065 143.984 144.919 143.464L183.702 121.085C184.124 120.842 184.485 120.504 184.756 120.099C185.026 119.694 185.2 119.232 185.263 118.748C185.263 117.962 184.555 117.707 183.702 118.228L144.919 140.607C144.496 140.849 144.134 141.186 143.863 141.591C143.593 141.997 143.419 142.46 143.357 142.943Z" fill="#E0E0E0"/>
<path d="M143.357 151.489C143.357 152.275 144.065 152.53 144.919 152.009L183.702 129.631C184.124 129.387 184.485 129.05 184.756 128.645C185.026 128.239 185.2 127.777 185.263 127.294C185.263 126.508 184.555 126.279 183.702 126.773L144.919 149.152C144.496 149.395 144.134 149.732 143.863 150.137C143.593 150.543 143.419 151.005 143.357 151.489Z" fill="#E0E0E0"/>
<path d="M113.755 177.131C113.755 177.917 114.463 178.146 115.316 177.651L183.702 138.202C184.124 137.959 184.485 137.622 184.756 137.216C185.026 136.811 185.2 136.349 185.263 135.865C185.263 135.08 184.555 134.851 183.702 135.345L115.316 174.799C114.895 175.042 114.534 175.379 114.264 175.783C113.993 176.187 113.819 176.648 113.755 177.131Z" fill="#E0E0E0"/>
<path d="M113.755 185.677C113.755 186.462 114.463 186.717 115.316 186.197L183.717 146.753C184.14 146.51 184.5 146.172 184.771 145.767C185.042 145.362 185.216 144.9 185.279 144.416C185.279 143.63 184.571 143.401 183.717 143.896L115.332 183.34C114.907 183.581 114.543 183.918 114.269 184.323C113.996 184.729 113.82 185.192 113.755 185.677Z" fill="#E0E0E0"/>
<path d="M113.755 194.222C113.755 195.008 114.463 195.263 115.316 194.742L183.702 155.293C184.124 155.05 184.485 154.713 184.756 154.307C185.026 153.902 185.2 153.44 185.263 152.957C185.263 152.171 184.555 151.916 183.702 152.436L115.316 191.89C114.895 192.133 114.534 192.47 114.264 192.874C113.993 193.278 113.819 193.74 113.755 194.222Z" fill="#E0E0E0"/>
<path d="M113.755 202.762C113.755 203.548 114.463 203.803 115.316 203.283L183.702 163.829C184.124 163.587 184.485 163.25 184.756 162.846C185.027 162.441 185.2 161.98 185.263 161.497C185.263 160.706 184.555 160.456 183.702 160.977L115.316 200.431C114.894 200.673 114.533 201.009 114.262 201.413C113.991 201.818 113.818 202.28 113.755 202.762Z" fill="#E0E0E0"/>
<path d="M113.755 211.287C113.755 212.073 114.463 212.302 115.316 211.808L183.702 172.353C184.124 172.11 184.485 171.773 184.756 171.367C185.026 170.962 185.2 170.5 185.263 170.016C185.263 169.231 184.555 169.002 183.702 169.496L115.316 208.945C114.893 209.189 114.532 209.527 114.261 209.933C113.991 210.34 113.817 210.803 113.755 211.287Z" fill="#E0E0E0"/>
<path d="M113.755 219.854C113.755 220.639 114.463 220.894 115.316 220.374L183.702 180.925C184.124 180.682 184.485 180.344 184.756 179.939C185.026 179.534 185.2 179.071 185.263 178.588C185.263 177.802 184.555 177.547 183.702 178.068L115.332 217.532C114.909 217.772 114.546 218.106 114.273 218.509C113.999 218.912 113.822 219.372 113.755 219.854Z" fill="#E0E0E0"/>
<path d="M113.755 228.394C113.755 229.18 114.463 229.435 115.316 228.914L183.702 189.46C184.124 189.218 184.485 188.882 184.756 188.478C185.027 188.073 185.2 187.611 185.263 187.129C185.263 186.338 184.555 186.088 183.702 186.608L115.316 226.063C114.894 226.304 114.533 226.641 114.262 227.045C113.991 227.45 113.818 227.911 113.755 228.394Z" fill="#E0E0E0"/>
<path d="M113.755 236.94C113.755 237.725 114.463 237.954 115.316 237.46L183.702 198.006C184.124 197.762 184.485 197.425 184.756 197.02C185.026 196.615 185.2 196.152 185.263 195.669C185.263 194.883 184.555 194.628 183.702 195.148L115.316 234.598C114.893 234.841 114.532 235.18 114.261 235.586C113.991 235.992 113.817 236.455 113.755 236.94Z" fill="#E0E0E0"/>
<path d="M113.755 245.485C113.755 246.271 114.463 246.526 115.316 246.005L183.702 206.556C184.124 206.313 184.485 205.976 184.756 205.57C185.026 205.165 185.2 204.703 185.263 204.22C185.263 203.434 184.555 203.205 183.702 203.699L115.316 243.153C114.895 243.396 114.534 243.733 114.264 244.137C113.993 244.541 113.819 245.003 113.755 245.485Z" fill="#E0E0E0"/>
<path d="M219.071 183.943C219.09 180.911 219.956 177.945 221.569 175.377V170.542C221.591 170.296 221.552 170.048 221.457 169.819C221.362 169.591 221.213 169.389 221.022 169.231C220.975 169.198 220.924 169.17 220.871 169.147L205.191 160.076C204.953 159.973 204.693 159.933 204.436 159.96C204.179 159.988 203.933 160.081 203.723 160.232L191.363 167.367C190.767 167.779 190.273 168.321 189.918 168.952C189.564 169.584 189.358 170.288 189.317 171.011C189.177 174.55 188.021 181.102 181.771 184.708C175.521 188.315 174.35 183.033 174.219 179.66C174.167 178.317 173.34 177.776 172.179 178.448L159.814 185.583C159.205 185.984 158.7 186.523 158.338 187.156C157.977 187.789 157.769 188.498 157.732 189.226V194.061C157.732 194.061 160.23 194.758 160.23 199.744C160.23 204.73 156.368 213.77 156.368 226.317C156.368 232.599 158.362 237.845 162.546 240.255L178.258 249.321C182.422 251.777 188.802 251.402 197.582 246.313C215.058 236.221 223 218.62 223 206.078C223 193.535 219.071 188.908 219.071 183.943Z" fill="#8041FF"/>
<path d="M203.671 160.217L191.311 167.352C190.714 167.763 190.22 168.304 189.865 168.936C189.51 169.567 189.305 170.272 189.265 170.995C189.135 174.258 188.146 180.077 183.098 183.787L173.59 178.297L173.538 178.271C173.31 178.169 173.058 178.13 172.81 178.158C172.562 178.187 172.326 178.281 172.127 178.432L159.762 185.567C159.589 185.667 159.427 185.784 159.278 185.916C158.875 186.261 158.535 186.673 158.273 187.134C157.897 187.765 157.686 188.481 157.659 189.215V194.05L158.341 194.446C159.09 195.05 160.157 196.476 160.157 199.728C160.157 204.714 156.296 213.78 156.296 226.302C156.296 232.583 158.289 237.84 162.473 240.25L178.128 249.279C174.022 246.838 172.07 241.634 172.07 235.409C172.07 222.862 175.926 213.816 175.926 208.831C175.926 203.845 173.428 203.153 173.428 203.153V198.318C173.468 197.591 173.677 196.883 174.038 196.25C174.4 195.618 174.904 195.078 175.51 194.675L187.876 187.54C188.069 187.396 188.295 187.303 188.533 187.271C188.772 187.238 189.015 187.266 189.239 187.352H189.291C189.502 187.509 189.67 187.717 189.779 187.956C189.888 188.196 189.935 188.459 189.916 188.721C190.041 192.099 191.175 197.407 197.467 193.774C203.759 190.142 204.873 183.616 205.019 180.077C205.058 179.354 205.262 178.649 205.615 178.018C205.969 177.386 206.463 176.844 207.059 176.433L219.419 169.298C219.621 169.154 219.856 169.062 220.102 169.031C220.348 168.999 220.598 169.028 220.83 169.116L205.191 160.076C204.948 159.961 204.679 159.914 204.412 159.938C204.144 159.963 203.888 160.059 203.671 160.217Z" fill="#8041FF"/>
<path opacity="0.1" d="M158.351 194.441L173.444 203.148V198.313C173.467 197.577 173.681 196.86 174.063 196.231L158.273 187.139C157.896 187.77 157.685 188.486 157.659 189.221V194.056L158.351 194.441Z" fill="black"/>
<path opacity="0.4" d="M183.098 183.787L173.59 178.297L173.538 178.271C173.31 178.169 173.058 178.13 172.81 178.158C172.562 178.187 172.326 178.281 172.127 178.432L159.762 185.567C159.589 185.667 159.427 185.784 159.278 185.916C158.875 186.261 158.535 186.673 158.273 187.134L174.068 196.252C174.422 195.613 174.932 195.076 175.552 194.69L187.917 187.555C188.11 187.411 188.337 187.319 188.575 187.286C188.813 187.253 189.056 187.282 189.281 187.368L183.098 183.787Z" fill="white"/>
<path opacity="0.4" d="M220.871 169.132L205.191 160.076C204.951 159.965 204.686 159.92 204.422 159.945C204.159 159.969 203.907 160.063 203.692 160.217L191.331 167.352C190.722 167.736 190.227 168.274 189.895 168.913L205.685 178.026C206.017 177.387 206.513 176.848 207.121 176.465L219.482 169.329C219.68 169.186 219.91 169.094 220.152 169.059C220.394 169.025 220.641 169.05 220.871 169.132Z" fill="white"/>
<path opacity="0.1" d="M205.664 178.031C205.31 178.672 205.102 179.383 205.055 180.113C204.915 183.652 203.754 190.204 197.509 193.811C191.264 197.417 190.082 192.135 189.957 188.757C189.977 188.495 189.93 188.232 189.821 187.993C189.712 187.754 189.544 187.546 189.333 187.389H189.281L183.098 183.818C188.146 180.108 189.135 174.289 189.265 171.026C189.31 170.295 189.518 169.584 189.874 168.944L205.664 178.031Z" fill="black"/>
<path opacity="0.2" d="M178.128 249.279L162.452 240.239C158.289 237.829 156.275 232.573 156.275 226.291C156.275 213.749 160.136 204.704 160.136 199.718C160.136 196.491 159.096 195.065 158.341 194.446L173.434 203.153C173.434 203.153 175.932 203.85 175.932 208.831C175.932 213.811 172.075 222.882 172.075 235.409C172.091 241.639 174.042 246.843 178.128 249.279Z" fill="black"/>
<path d="M201.095 227.806L194.329 231.709L195.37 219.474C194.558 219.047 194.043 217.996 194.043 216.486C194.043 213.79 195.682 210.663 197.686 209.492C199.69 208.321 201.329 209.564 201.329 212.26C201.287 213.857 200.832 215.415 200.007 216.783L201.095 227.806Z" fill="#455A64"/>
<path d="M201.095 227.806L194.969 224.267L194.329 231.709L201.095 227.806Z" fill="#37474F"/>
<path d="M197.712 209.492C196.39 210.257 195.235 211.86 194.589 213.655L200.043 216.804C200.868 215.436 201.324 213.878 201.365 212.281C201.371 209.565 199.731 208.326 197.712 209.492Z" fill="#37474F"/>
<path d="M205.357 138.358C202.011 136.427 197.811 136.646 193.819 138.946L179.075 147.461C172.684 151.151 167.865 159.498 167.865 166.873V186.78C167.865 187.602 168.417 188.43 169.504 189.059C170.728 189.68 172.08 190.004 173.452 190.004C174.824 190.004 176.176 189.68 177.399 189.059C178.487 188.43 179.039 187.602 179.039 186.78V166.873C179.039 163.48 181.719 158.838 184.659 157.141L199.403 148.627H199.44V168.57C199.44 169.397 199.991 170.219 201.079 170.849C202.302 171.47 203.655 171.794 205.027 171.794C206.398 171.794 207.751 171.47 208.974 170.849C210.062 170.219 210.614 169.397 210.614 168.57V148.647C210.614 144.036 208.698 140.289 205.357 138.358Z" fill="#37474F"/>
<path d="M199.466 148.647V168.549C199.466 169.376 200.017 170.199 201.105 170.828C201.622 171.118 202.175 171.339 202.75 171.484V146.711L199.466 148.606V148.647Z" fill="#263238"/>
</svg>
