<svg width="16" height="16" viewBox="0 0 16 16" fill="none" xmlns="http://www.w3.org/2000/svg">
<path d="M8.19701 6.00969C7.78666 5.96916 7.37381 6.05646 7.01499 6.25963C6.65617 6.46281 6.36893 6.77192 6.19258 7.14465C6.01623 7.51739 5.95939 7.93552 6.02986 8.3418C6.10033 8.74808 6.29465 9.12265 6.58623 9.41422C6.8778 9.70579 7.25237 9.90011 7.65865 9.97058C8.06493 10.0411 8.48306 9.98422 8.85579 9.80787C9.22853 9.63152 9.53764 9.34427 9.74081 8.98545C9.94398 8.62663 10.0313 8.21379 9.99076 7.80344C9.94455 7.34343 9.74073 6.91354 9.41381 6.58663C9.0869 6.25972 8.65702 6.05589 8.19701 6.00969ZM13.0126 8C13.0114 8.21739 12.9954 8.43445 12.9648 8.64969L14.3776 9.75781C14.4392 9.80881 14.4806 9.87996 14.4946 9.95863C14.5086 10.0373 14.4943 10.1184 14.4542 10.1875L13.1176 12.5C13.077 12.5684 13.0136 12.6204 12.9385 12.6466C12.8634 12.6728 12.7814 12.6717 12.707 12.6434L11.3039 12.0784C11.2265 12.0476 11.1427 12.0365 11.06 12.046C10.9772 12.0556 10.8981 12.0855 10.8298 12.1331C10.6157 12.2806 10.3907 12.4116 10.1567 12.525C10.0831 12.5607 10.0195 12.6141 9.97145 12.6802C9.92338 12.7464 9.89234 12.8234 9.88107 12.9044L9.67076 14.4009C9.65694 14.48 9.61611 14.5518 9.55524 14.604C9.49436 14.6563 9.41722 14.6858 9.33701 14.6875H6.66388C6.58499 14.6861 6.50891 14.6579 6.44819 14.6076C6.38747 14.5572 6.34572 14.4876 6.32982 14.4103L6.11982 12.9159C6.10803 12.834 6.07618 12.7563 6.02711 12.6897C5.97805 12.6231 5.91328 12.5696 5.83857 12.5341C5.60487 12.4213 5.3806 12.2899 5.16794 12.1412C5.09985 12.0939 5.02104 12.0642 4.9386 12.0549C4.85617 12.0455 4.77272 12.0568 4.69576 12.0878L3.29294 12.6525C3.2186 12.6808 3.13666 12.682 3.06154 12.6558C2.98642 12.6296 2.92296 12.5778 2.88232 12.5094L1.54576 10.1969C1.50557 10.1278 1.49121 10.0467 1.50523 9.96799C1.51925 9.8893 1.56075 9.81815 1.62232 9.76719L2.81638 8.82969C2.8818 8.77776 2.93321 8.71031 2.96596 8.63348C2.9987 8.55664 3.01174 8.47284 3.00388 8.38969C2.99263 8.25938 2.98576 8.12938 2.98576 7.99906C2.98576 7.86875 2.99232 7.74062 3.00388 7.61312C3.01088 7.53048 2.9972 7.44739 2.96409 7.37134C2.93097 7.2953 2.87946 7.22868 2.81419 7.1775L1.62076 6.24C1.56018 6.18878 1.51957 6.11787 1.50602 6.03971C1.49248 5.96155 1.50688 5.88111 1.54669 5.8125L2.88326 3.5C2.92385 3.43156 2.98729 3.37964 3.06241 3.3534C3.13753 3.32716 3.21951 3.32828 3.29388 3.35656L4.69701 3.92156C4.77438 3.95237 4.85819 3.9635 4.94093 3.95396C5.02366 3.94441 5.10274 3.91449 5.17107 3.86687C5.38521 3.71942 5.61023 3.58841 5.84419 3.475C5.91775 3.43925 5.98137 3.38594 6.02944 3.31977C6.07751 3.25361 6.10855 3.17663 6.11982 3.09562L6.33013 1.59906C6.34395 1.52003 6.38478 1.44824 6.44565 1.39597C6.50653 1.3437 6.58366 1.3142 6.66388 1.3125H9.33701C9.4159 1.31386 9.49198 1.34206 9.5527 1.39245C9.61342 1.44283 9.65517 1.5124 9.67107 1.58969L9.88107 3.08406C9.89286 3.16596 9.92471 3.24367 9.97377 3.31029C10.0228 3.37691 10.0876 3.43038 10.1623 3.46594C10.396 3.5787 10.6203 3.71006 10.8329 3.85875C10.901 3.90613 10.9799 3.93582 11.0623 3.94515C11.1447 3.95448 11.2282 3.94315 11.3051 3.91219L12.7079 3.3475C12.7823 3.31919 12.8642 3.31802 12.9393 3.34421C13.0145 3.37039 13.0779 3.42224 13.1186 3.49062L14.4551 5.80312C14.4953 5.87221 14.5097 5.95332 14.4957 6.03201C14.4816 6.1107 14.4401 6.18185 14.3786 6.23281L13.1845 7.17031C13.1188 7.22207 13.0671 7.28944 13.0341 7.36629C13.001 7.44314 12.9878 7.52702 12.9954 7.61031C13.0058 7.73969 13.0126 7.86969 13.0126 8Z" stroke="#545665" stroke-linecap="round" stroke-linejoin="round"/>
</svg>
