<svg width="16" height="16" viewBox="0 0 16 16" fill="none" xmlns="http://www.w3.org/2000/svg">
<path d="M11.3333 7.20333C11.3333 6.97267 11.3333 6.85733 11.3679 6.75467C11.4686 6.456 11.7346 6.34067 12.0013 6.21933C12.2999 6.08267 12.4493 6.01467 12.5979 6.00267C12.7659 5.98933 12.9346 6.02533 13.0786 6.106C13.2693 6.21267 13.4026 6.41667 13.5386 6.582C14.1673 7.346 14.4819 7.728 14.5966 8.14867C14.6899 8.48867 14.6899 8.84467 14.5966 9.184C14.4293 9.79867 13.8993 10.3133 13.5066 10.7907C13.3059 11.034 13.2053 11.156 13.0786 11.2273C12.9321 11.3086 12.7649 11.3445 12.5979 11.3307C12.4493 11.3187 12.2999 11.2507 12.0006 11.114C11.7339 10.9927 11.4686 10.8773 11.3679 10.5787C11.3333 10.476 11.3333 10.3607 11.3333 10.13V7.20333ZM4.66661 7.20333C4.66661 6.91267 4.65861 6.652 4.42394 6.448C4.33861 6.374 4.22527 6.32267 3.99927 6.21933C3.69994 6.08333 3.55061 6.01467 3.40194 6.00267C2.95727 5.96667 2.71794 6.27067 2.46194 6.58267C1.83261 7.346 1.51794 7.728 1.40261 8.14933C1.30981 8.48821 1.30981 8.84579 1.40261 9.18467C1.57061 9.79867 2.10127 10.314 2.49327 10.7907C2.74061 11.0907 2.97727 11.3647 3.40194 11.3307C3.55061 11.3187 3.69994 11.2507 3.99927 11.114C4.22594 11.0113 4.33861 10.9593 4.42394 10.8853C4.65861 10.6813 4.66661 10.4207 4.66661 10.1307V7.20333Z" stroke="#545665" stroke-width="1.5" stroke-linecap="round" stroke-linejoin="round"/>
<path d="M3.33301 6C3.33301 3.79067 5.42234 2 7.99967 2C10.577 2 12.6663 3.79067 12.6663 6M12.6663 11.3333V11.8667C12.6663 13.0447 11.473 14 9.99967 14H8.66634" stroke="#545665" stroke-width="1.5" stroke-linecap="round" stroke-linejoin="round"/>
</svg>
