<svg width="265" height="276" viewBox="0 0 265 276" fill="none" xmlns="http://www.w3.org/2000/svg">
<rect y="0.619385" width="264.5" height="274.626" rx="16" fill="#E8FDF2"/>
<path d="M29.886 34.7994C26.412 34.7994 24.9 33.1974 24.9 30.8754V30.5694H26.808V30.7674C26.808 32.2614 27.438 33.0174 29.958 33.0174C31.74 33.0174 32.388 32.5314 32.388 31.4154C32.388 30.3174 32.028 29.9214 30.174 29.5434L28.122 29.1294C26.052 28.7334 24.936 27.7254 24.936 25.8174C24.936 24.0354 26.322 22.3794 29.436 22.3794C32.766 22.3794 34.098 24.2514 34.098 26.3934V26.6094H32.19V26.4114C32.19 24.9354 31.542 24.1614 29.382 24.1614C27.6 24.1614 26.88 24.6654 26.88 25.7274C26.88 26.8254 27.366 27.1314 29.022 27.4914L31.074 27.9234C33.342 28.3914 34.332 29.5254 34.332 31.3434C34.332 33.2334 32.964 34.7994 29.886 34.7994ZM37.0836 37.6794C36.5976 37.6794 36.0396 37.6074 35.7336 37.5174V35.9334H36.9576C37.7316 35.9334 38.0016 35.8074 38.2896 35.1414L38.6316 34.3854L34.8336 25.6734H36.9756L38.7756 30.0114L39.5856 31.9554H39.7296L40.4676 30.0114L42.1056 25.6734H44.2476L40.0176 35.6814C39.3516 37.2654 38.4876 37.6794 37.0836 37.6794ZM47.1304 34.6194H45.1864V25.6734H46.9684V27.3474H47.0404C47.4544 26.3934 48.4084 25.4934 50.1544 25.4934C52.4764 25.4934 53.5204 26.9694 53.5204 29.0034V34.6194H51.5764V29.4354C51.5764 27.8334 51.0724 27.1674 49.4344 27.1674C47.8504 27.1674 47.1304 27.7794 47.1304 29.4534V34.6194ZM59.3606 34.8174C56.5706 34.8174 54.9866 32.9274 54.9866 30.1554C54.9866 27.3654 56.6246 25.4934 59.4326 25.4934C61.7906 25.4934 63.4106 26.9514 63.4106 29.0934V29.2554H61.4846V29.1474C61.4846 27.8334 60.8006 27.2394 59.3066 27.2394C57.5786 27.2394 56.9126 28.2114 56.9126 30.1554C56.9126 32.0994 57.5786 33.0534 59.3066 33.0534C60.8006 33.0534 61.4846 32.4774 61.4846 31.1634V31.0554H63.4106V31.2174C63.4106 33.3414 61.7726 34.8174 59.3606 34.8174ZM70.8024 34.7994C69.2004 34.7994 67.9584 33.9714 67.9584 32.4054C67.9584 30.9294 69.0384 30.1554 70.9464 29.8854L74.0784 29.4174V28.9314C74.0784 27.5994 73.4664 27.2034 72.0624 27.2034C70.6404 27.2034 70.0824 27.6534 70.0824 28.8414V29.1114H68.2104V28.9314C68.2104 26.9334 69.7764 25.4934 72.1704 25.4934C74.6724 25.4934 75.9324 27.0054 75.9324 29.1834V34.6194H74.1324V33.2154H74.0424C73.5204 34.0614 72.4944 34.7994 70.8024 34.7994ZM69.8484 32.2614C69.8484 32.9634 70.2984 33.2514 71.4324 33.2514C72.6924 33.2514 74.0784 32.7474 74.0784 30.9474V30.7854L71.2344 31.2174C70.2084 31.3614 69.8484 31.5954 69.8484 32.2614ZM79.7378 34.6194H77.7938V25.6734H79.5758V27.3474H79.6478C80.0618 26.3934 81.0158 25.4934 82.7618 25.4934C85.0838 25.4934 86.1278 26.9694 86.1278 29.0034V34.6194H84.1838V29.4354C84.1838 27.8334 83.6798 27.1674 82.0418 27.1674C80.4578 27.1674 79.7378 27.7794 79.7378 29.4534V34.6194ZM91.536 34.7994C88.98 34.7994 87.594 32.9814 87.594 30.1374C87.594 27.3114 88.962 25.4934 91.428 25.4934C93.012 25.4934 93.966 26.2494 94.362 27.0594H94.416V22.5594H96.342V34.6194H94.56V33.1434H94.488C94.056 34.1694 93.066 34.7994 91.536 34.7994ZM89.538 30.1374C89.538 32.3514 90.24 33.1434 91.968 33.1434C93.552 33.1434 94.416 32.4414 94.416 30.9474V29.3454C94.416 27.8514 93.552 27.1494 91.968 27.1494C90.258 27.1494 89.538 27.9414 89.538 30.1374ZM106.831 34.6194H104.383L100.801 25.6734H102.961L105.571 32.7654H105.697L108.325 25.6734H110.431L106.831 34.6194ZM113.098 24.5394H111.172L111.154 22.5594H113.098V24.5394ZM113.116 34.6194H111.172V25.6194H113.116V34.6194ZM118.791 34.7994C115.839 34.7994 114.453 32.9274 114.453 30.1374C114.453 27.3654 116.109 25.4934 118.773 25.4934C121.185 25.4934 122.877 26.9334 122.877 29.3814C122.877 29.8494 122.823 30.3354 122.769 30.6054H116.271C116.343 32.2434 116.937 33.0714 118.809 33.0714C120.303 33.0714 120.879 32.5674 120.879 31.7574V31.6134H122.805V31.7754C122.805 33.6114 121.203 34.7994 118.791 34.7994ZM118.737 27.1314C117.045 27.1314 116.397 27.9234 116.289 29.3094H121.023C121.095 27.7794 120.267 27.1314 118.737 27.1314ZM128.055 34.6194H125.517L123.303 25.6734H125.409L126.435 30.6414L126.795 32.9994H126.939L127.533 30.6414L129.099 25.6734H131.619L133.203 30.6594L133.761 32.9994H133.905L134.265 30.6594L135.309 25.6734H137.325L135.111 34.6194H132.591L130.989 29.6334L130.395 27.3834H130.251L129.675 29.6334L128.055 34.6194ZM144.314 34.7994C142.712 34.7994 141.47 33.9714 141.47 32.4054C141.47 30.9294 142.55 30.1554 144.458 29.8854L147.59 29.4174V28.9314C147.59 27.5994 146.978 27.2034 145.574 27.2034C144.152 27.2034 143.594 27.6534 143.594 28.8414V29.1114H141.722V28.9314C141.722 26.9334 143.288 25.4934 145.682 25.4934C148.184 25.4934 149.444 27.0054 149.444 29.1834V34.6194H147.644V33.2154H147.554C147.032 34.0614 146.006 34.7994 144.314 34.7994ZM143.36 32.2614C143.36 32.9634 143.81 33.2514 144.944 33.2514C146.204 33.2514 147.59 32.7474 147.59 30.9474V30.7854L144.746 31.2174C143.72 31.3614 143.36 31.5954 143.36 32.2614ZM153.25 34.6194H151.306V22.5594H153.25V34.6194ZM157.169 34.6194H155.225V22.5594H157.169V34.6194ZM163.998 37.6794C163.512 37.6794 162.954 37.6074 162.648 37.5174V35.9334H163.872C164.646 35.9334 164.916 35.8074 165.204 35.1414L165.546 34.3854L161.748 25.6734H163.89L165.69 30.0114L166.5 31.9554H166.644L167.382 30.0114L169.02 25.6734H171.162L166.932 35.6814C166.266 37.2654 165.402 37.6794 163.998 37.6794ZM175.818 34.7994C173.064 34.7994 171.354 32.9274 171.354 30.1374C171.354 27.3654 173.064 25.4934 175.818 25.4934C178.554 25.4934 180.21 27.3654 180.21 30.1374C180.21 32.9274 178.554 34.7994 175.818 34.7994ZM175.818 33.0714C177.69 33.0714 178.338 32.1534 178.338 30.1374C178.338 28.1394 177.69 27.2214 175.818 27.2214C173.928 27.2214 173.262 28.1394 173.262 30.1374C173.262 32.1534 173.928 33.0714 175.818 33.0714ZM184.993 34.7994C182.653 34.7994 181.609 33.2334 181.609 31.1994V25.6734H183.553V30.8574C183.553 32.4594 184.165 33.1254 185.713 33.1254C187.207 33.1254 188.053 32.4774 188.053 30.7134V25.6734H189.997V34.6194H188.197V32.8374H188.125C187.693 33.8634 186.739 34.7994 184.993 34.7994ZM193.855 34.6194H191.911V25.6194H193.693V27.0414H193.783C194.143 26.2134 194.971 25.4934 196.285 25.4934C198.157 25.4934 198.877 26.8614 198.877 28.5354V29.1294H196.933V28.7694C196.933 27.5814 196.591 27.1494 195.457 27.1494C194.287 27.1494 193.855 27.5994 193.855 28.7874V34.6194ZM28.698 59.6194C26.7 59.6194 25.656 58.8814 25.656 56.8654V52.2934H24.162V50.6734H25.692L26.106 48.4594H27.6V50.6734H30.3V52.2934H27.6V56.7754C27.6 57.7114 27.996 57.8734 29.202 57.8734H30.3V59.4574C29.922 59.5474 29.31 59.6194 28.698 59.6194ZM33.5777 59.6194H31.6337V50.6194H33.4157V52.0414H33.5057C33.8657 51.2134 34.6937 50.4934 36.0077 50.4934C37.8797 50.4934 38.5997 51.8614 38.5997 53.5354V54.1294H36.6557V53.7694C36.6557 52.5814 36.3137 52.1494 35.1797 52.1494C34.0097 52.1494 33.5777 52.5994 33.5777 53.7874V59.6194ZM42.0797 59.7994C40.4777 59.7994 39.2357 58.9714 39.2357 57.4054C39.2357 55.9294 40.3157 55.1554 42.2237 54.8854L45.3557 54.4174V53.9314C45.3557 52.5994 44.7437 52.2034 43.3397 52.2034C41.9177 52.2034 41.3597 52.6534 41.3597 53.8414V54.1114H39.4877V53.9314C39.4877 51.9334 41.0537 50.4934 43.4477 50.4934C45.9497 50.4934 47.2097 52.0054 47.2097 54.1834V59.6194H45.4097V58.2154H45.3197C44.7977 59.0614 43.7717 59.7994 42.0797 59.7994ZM41.1257 57.2614C41.1257 57.9634 41.5757 58.2514 42.7097 58.2514C43.9697 58.2514 45.3557 57.7474 45.3557 55.9474V55.7854L42.5117 56.2174C41.4857 56.3614 41.1257 56.5954 41.1257 57.2614ZM51.0152 59.6194H49.0712V50.6734H50.8532V52.3474H50.9252C51.3392 51.3934 52.2932 50.4934 54.0392 50.4934C56.3612 50.4934 57.4052 51.9694 57.4052 54.0034V59.6194H55.4612V54.4354C55.4612 52.8334 54.9572 52.1674 53.3192 52.1674C51.7352 52.1674 51.0152 52.7794 51.0152 54.4534V59.6194ZM62.9758 59.7994C60.3658 59.7994 58.9978 58.7734 58.9978 56.5954V56.5594H60.8698V56.8834C60.8698 57.8554 61.3018 58.2154 63.0118 58.2154C64.4518 58.2154 64.7218 57.8914 64.7218 57.2254C64.7218 56.5054 64.2898 56.2894 62.9758 56.0554L61.5898 55.8214C59.9878 55.5334 58.9798 54.8134 58.9798 53.1934C58.9798 51.5734 60.3118 50.4934 62.6518 50.4934C64.7578 50.4934 66.3418 51.5374 66.3418 53.5714V53.7334H64.4878V53.5174C64.4878 52.6894 64.1998 52.0954 62.5978 52.0954C61.1758 52.0954 60.8338 52.4734 60.8338 53.1574C60.8338 53.8414 61.1578 54.0394 62.4178 54.2914L63.9298 54.5794C65.6578 54.9214 66.5578 55.6954 66.5578 57.1714C66.5578 58.8274 65.2438 59.7994 62.9758 59.7994ZM70.5915 59.7994C68.9895 59.7994 67.7475 58.9714 67.7475 57.4054C67.7475 55.9294 68.8275 55.1554 70.7355 54.8854L73.8675 54.4174V53.9314C73.8675 52.5994 73.2555 52.2034 71.8515 52.2034C70.4295 52.2034 69.8715 52.6534 69.8715 53.8414V54.1114H67.9995V53.9314C67.9995 51.9334 69.5655 50.4934 71.9595 50.4934C74.4615 50.4934 75.7215 52.0054 75.7215 54.1834V59.6194H73.9215V58.2154H73.8315C73.3095 59.0614 72.2835 59.7994 70.5915 59.7994ZM69.6375 57.2614C69.6375 57.9634 70.0875 58.2514 71.2215 58.2514C72.4815 58.2514 73.8675 57.7474 73.8675 55.9474V55.7854L71.0235 56.2174C69.9975 56.3614 69.6375 56.5954 69.6375 57.2614ZM81.5618 59.8174C78.7718 59.8174 77.1877 57.9274 77.1877 55.1554C77.1877 52.3654 78.8258 50.4934 81.6338 50.4934C83.9918 50.4934 85.6118 51.9514 85.6118 54.0934V54.2554H83.6858V54.1474C83.6858 52.8334 83.0018 52.2394 81.5078 52.2394C79.7798 52.2394 79.1138 53.2114 79.1138 55.1554C79.1138 57.0994 79.7798 58.0534 81.5078 58.0534C83.0018 58.0534 83.6858 57.4774 83.6858 56.1634V56.0554H85.6118V56.2174C85.6118 58.3414 83.9738 59.8174 81.5618 59.8174ZM90.7312 59.6194C88.7332 59.6194 87.6892 58.8814 87.6892 56.8654V52.2934H86.1952V50.6734H87.7252L88.1392 48.4594H89.6332V50.6734H92.3332V52.2934H89.6332V56.7754C89.6332 57.7114 90.0292 57.8734 91.2352 57.8734H92.3332V59.4574C91.9552 59.5474 91.3432 59.6194 90.7312 59.6194ZM95.4146 49.5394H93.4886L93.4706 47.5594H95.4146V49.5394ZM95.4326 59.6194H93.4886V50.6194H95.4326V59.6194ZM101.234 59.7994C98.4798 59.7994 96.7698 57.9274 96.7698 55.1374C96.7698 52.3654 98.4798 50.4934 101.234 50.4934C103.97 50.4934 105.626 52.3654 105.626 55.1374C105.626 57.9274 103.97 59.7994 101.234 59.7994ZM101.234 58.0714C103.106 58.0714 103.754 57.1534 103.754 55.1374C103.754 53.1394 103.106 52.2214 101.234 52.2214C99.3438 52.2214 98.6778 53.1394 98.6778 55.1374C98.6778 57.1534 99.3438 58.0714 101.234 58.0714ZM109.023 59.6194H107.079V50.6734H108.861V52.3474H108.933C109.347 51.3934 110.301 50.4934 112.047 50.4934C114.369 50.4934 115.413 51.9694 115.413 54.0034V59.6194H113.469V54.4354C113.469 52.8334 112.965 52.1674 111.327 52.1674C109.743 52.1674 109.023 52.7794 109.023 54.4534V59.6194ZM120.984 59.7994C118.374 59.7994 117.006 58.7734 117.006 56.5954V56.5594H118.878V56.8834C118.878 57.8554 119.31 58.2154 121.02 58.2154C122.46 58.2154 122.73 57.8914 122.73 57.2254C122.73 56.5054 122.298 56.2894 120.984 56.0554L119.598 55.8214C117.996 55.5334 116.988 54.8134 116.988 53.1934C116.988 51.5734 118.32 50.4934 120.66 50.4934C122.766 50.4934 124.35 51.5374 124.35 53.5714V53.7334H122.496V53.5174C122.496 52.6894 122.208 52.0954 120.606 52.0954C119.184 52.0954 118.842 52.4734 118.842 53.1574C118.842 53.8414 119.166 54.0394 120.426 54.2914L121.938 54.5794C123.666 54.9214 124.566 55.6954 124.566 57.1714C124.566 58.8274 123.252 59.7994 120.984 59.7994ZM131.974 59.7994C130.372 59.7994 129.13 58.9714 129.13 57.4054C129.13 55.9294 130.21 55.1554 132.118 54.8854L135.25 54.4174V53.9314C135.25 52.5994 134.638 52.2034 133.234 52.2034C131.812 52.2034 131.254 52.6534 131.254 53.8414V54.1114H129.382V53.9314C129.382 51.9334 130.948 50.4934 133.342 50.4934C135.844 50.4934 137.104 52.0054 137.104 54.1834V59.6194H135.304V58.2154H135.214C134.692 59.0614 133.666 59.7994 131.974 59.7994ZM131.02 57.2614C131.02 57.9634 131.47 58.2514 132.604 58.2514C133.864 58.2514 135.25 57.7474 135.25 55.9474V55.7854L132.406 56.2174C131.38 56.3614 131.02 56.5954 131.02 57.2614ZM142.945 59.8174C140.155 59.8174 138.571 57.9274 138.571 55.1554C138.571 52.3654 140.209 50.4934 143.017 50.4934C145.375 50.4934 146.995 51.9514 146.995 54.0934V54.2554H145.069V54.1474C145.069 52.8334 144.385 52.2394 142.891 52.2394C141.163 52.2394 140.497 53.2114 140.497 55.1554C140.497 57.0994 141.163 58.0534 142.891 58.0534C144.385 58.0534 145.069 57.4774 145.069 56.1634V56.0554H146.995V56.2174C146.995 58.3414 145.357 59.8174 142.945 59.8174ZM150.402 59.6194H148.458V50.6194H150.24V52.0414H150.33C150.69 51.2134 151.518 50.4934 152.832 50.4934C154.704 50.4934 155.424 51.8614 155.424 53.5354V54.1294H153.48V53.7694C153.48 52.5814 153.138 52.1494 152.004 52.1494C150.834 52.1494 150.402 52.5994 150.402 53.7874V59.6194ZM160.771 59.7994C158.017 59.7994 156.307 57.9274 156.307 55.1374C156.307 52.3654 158.017 50.4934 160.771 50.4934C163.507 50.4934 165.163 52.3654 165.163 55.1374C165.163 57.9274 163.507 59.7994 160.771 59.7994ZM160.771 58.0714C162.643 58.0714 163.291 57.1534 163.291 55.1374C163.291 53.1394 162.643 52.2214 160.771 52.2214C158.881 52.2214 158.215 53.1394 158.215 55.1374C158.215 57.1534 158.881 58.0714 160.771 58.0714ZM170.466 59.7994C167.856 59.7994 166.488 58.7734 166.488 56.5954V56.5594H168.36V56.8834C168.36 57.8554 168.792 58.2154 170.502 58.2154C171.942 58.2154 172.212 57.8914 172.212 57.2254C172.212 56.5054 171.78 56.2894 170.466 56.0554L169.08 55.8214C167.478 55.5334 166.47 54.8134 166.47 53.1934C166.47 51.5734 167.802 50.4934 170.142 50.4934C172.248 50.4934 173.832 51.5374 173.832 53.5714V53.7334H171.978V53.5174C171.978 52.6894 171.69 52.0954 170.088 52.0954C168.666 52.0954 168.324 52.4734 168.324 53.1574C168.324 53.8414 168.648 54.0394 169.908 54.2914L171.42 54.5794C173.148 54.9214 174.048 55.6954 174.048 57.1714C174.048 58.8274 172.734 59.7994 170.466 59.7994ZM179.325 59.7994C176.715 59.7994 175.347 58.7734 175.347 56.5954V56.5594H177.219V56.8834C177.219 57.8554 177.651 58.2154 179.361 58.2154C180.801 58.2154 181.071 57.8914 181.071 57.2254C181.071 56.5054 180.639 56.2894 179.325 56.0554L177.939 55.8214C176.337 55.5334 175.329 54.8134 175.329 53.1934C175.329 51.5734 176.661 50.4934 179.001 50.4934C181.107 50.4934 182.691 51.5374 182.691 53.5714V53.7334H180.837V53.5174C180.837 52.6894 180.549 52.0954 178.947 52.0954C177.525 52.0954 177.183 52.4734 177.183 53.1574C177.183 53.8414 177.507 54.0394 178.767 54.2914L180.279 54.5794C182.007 54.9214 182.907 55.6954 182.907 57.1714C182.907 58.8274 181.593 59.7994 179.325 59.7994ZM26.898 84.6194H24.954V75.6734H26.736V77.3474H26.808C27.222 76.3934 28.158 75.4934 29.868 75.4934C31.434 75.4934 32.406 76.2134 32.838 77.3474H32.892C33.306 76.4114 34.224 75.4934 35.988 75.4934C38.292 75.4934 39.318 76.9694 39.318 79.0034V84.6194H37.374V79.4354C37.374 77.8334 36.888 77.1674 35.268 77.1674C33.792 77.1674 33.108 77.7794 33.108 79.4174V84.6194H31.164V79.4354C31.164 77.8334 30.678 77.1674 29.058 77.1674C27.582 77.1674 26.898 77.7794 26.898 79.3994V84.6194ZM44.5086 84.7994C42.1686 84.7994 41.1246 83.2334 41.1246 81.1994V75.6734H43.0686V80.8574C43.0686 82.4594 43.6806 83.1254 45.2286 83.1254C46.7226 83.1254 47.5686 82.4774 47.5686 80.7134V75.6734H49.5126V84.6194H47.7126V82.8374H47.6406C47.2086 83.8634 46.2546 84.7994 44.5086 84.7994ZM53.3707 84.6194H51.4267V72.5594H53.3707V84.6194ZM58.9148 84.6194C56.9168 84.6194 55.8728 83.8814 55.8728 81.8654V77.2934H54.3788V75.6734H55.9088L56.3228 73.4594H57.8168V75.6734H60.5168V77.2934H57.8168V81.7754C57.8168 82.7114 58.2128 82.8734 59.4188 82.8734H60.5168V84.4574C60.1388 84.5474 59.5268 84.6194 58.9148 84.6194ZM63.5982 74.5394H61.6722L61.6542 72.5594H63.5982V74.5394ZM63.6162 84.6194H61.6722V75.6194H63.6162V84.6194ZM67.2553 87.7334H65.3293V75.6734H67.0933V77.1494H67.1833C67.5973 76.1054 68.6233 75.4934 70.1713 75.4934C72.6913 75.4934 74.0773 77.3114 74.0773 80.1554C74.0773 82.9814 72.7273 84.7994 70.2973 84.7994C68.6953 84.7994 67.7053 84.0614 67.3093 83.2334H67.2553V87.7334ZM67.2553 80.9474C67.2553 82.4414 68.1193 83.1434 69.7033 83.1434C71.4133 83.1434 72.1333 82.3514 72.1333 80.1554C72.1333 77.9414 71.4313 77.1494 69.7033 77.1494C68.1193 77.1494 67.2553 77.8514 67.2553 79.3454V80.9474ZM77.5757 84.6194H75.6317V72.5594H77.5757V84.6194ZM83.389 84.7994C80.437 84.7994 79.051 82.9274 79.051 80.1374C79.051 77.3654 80.707 75.4934 83.371 75.4934C85.783 75.4934 87.475 76.9334 87.475 79.3814C87.475 79.8494 87.421 80.3354 87.367 80.6054H80.869C80.941 82.2434 81.535 83.0714 83.407 83.0714C84.901 83.0714 85.477 82.5674 85.477 81.7574V81.6134H87.403V81.7754C87.403 83.6114 85.801 84.7994 83.389 84.7994ZM83.335 77.1314C81.643 77.1314 80.995 77.9234 80.887 79.3094H85.621C85.693 77.7794 84.865 77.1314 83.335 77.1314ZM96.4847 84.7994C93.5327 84.7994 92.1467 82.9274 92.1467 80.1374C92.1467 77.3654 93.8027 75.4934 96.4667 75.4934C98.8787 75.4934 100.571 76.9334 100.571 79.3814C100.571 79.8494 100.517 80.3354 100.463 80.6054H93.9647C94.0367 82.2434 94.6307 83.0714 96.5027 83.0714C97.9967 83.0714 98.5727 82.5674 98.5727 81.7574V81.6134H100.499V81.7754C100.499 83.6114 98.8967 84.7994 96.4847 84.7994ZM96.4307 77.1314C94.7387 77.1314 94.0907 77.9234 93.9827 79.3094H98.7167C98.7887 77.7794 97.9607 77.1314 96.4307 77.1314ZM103.015 84.6194H100.819L104.023 80.1194V79.9934L100.819 75.6734H103.087L105.499 78.9854H105.625L108.019 75.6734H110.215L107.011 80.0654V80.2094L110.215 84.6194H107.947L105.535 81.1994H105.409L103.015 84.6194ZM114.749 84.8174C111.959 84.8174 110.375 82.9274 110.375 80.1554C110.375 77.3654 112.013 75.4934 114.821 75.4934C117.179 75.4934 118.799 76.9514 118.799 79.0934V79.2554H116.873V79.1474C116.873 77.8334 116.189 77.2394 114.695 77.2394C112.967 77.2394 112.301 78.2114 112.301 80.1554C112.301 82.0994 112.967 83.0534 114.695 83.0534C116.189 83.0534 116.873 82.4774 116.873 81.1634V81.0554H118.799V81.2174C118.799 83.3414 117.161 84.8174 114.749 84.8174ZM122.224 84.6194H120.28V72.5594H122.224V77.1674H122.296C122.71 76.3574 123.664 75.4934 125.284 75.4934C127.624 75.4934 128.614 77.0234 128.614 78.9854V84.6194H126.67V79.4354C126.67 77.8334 126.166 77.1674 124.528 77.1674C122.944 77.1674 122.224 77.7794 122.224 79.4714V84.6194ZM132.941 84.7994C131.339 84.7994 130.097 83.9714 130.097 82.4054C130.097 80.9294 131.177 80.1554 133.085 79.8854L136.217 79.4174V78.9314C136.217 77.5994 135.605 77.2034 134.201 77.2034C132.779 77.2034 132.221 77.6534 132.221 78.8414V79.1114H130.349V78.9314C130.349 76.9334 131.915 75.4934 134.309 75.4934C136.811 75.4934 138.071 77.0054 138.071 79.1834V84.6194H136.271V83.2154H136.181C135.659 84.0614 134.633 84.7994 132.941 84.7994ZM131.987 82.2614C131.987 82.9634 132.437 83.2514 133.571 83.2514C134.831 83.2514 136.217 82.7474 136.217 80.9474V80.7854L133.373 81.2174C132.347 81.3614 131.987 81.5954 131.987 82.2614ZM141.877 84.6194H139.933V75.6734H141.715V77.3474H141.787C142.201 76.3934 143.155 75.4934 144.901 75.4934C147.223 75.4934 148.267 76.9694 148.267 79.0034V84.6194H146.323V79.4354C146.323 77.8334 145.819 77.1674 144.181 77.1674C142.597 77.1674 141.877 77.7794 141.877 79.4534V84.6194ZM153.567 83.7734C151.101 83.7734 149.733 82.1534 149.733 79.6334C149.733 77.1134 151.119 75.4934 153.639 75.4934C155.079 75.4934 156.195 76.1054 156.627 77.1494H156.699V75.6734H158.481V83.9714C158.481 86.6174 156.933 87.8594 154.323 87.8594C151.785 87.8594 150.201 86.6534 150.201 84.4934H152.127C152.127 85.7174 152.577 86.1314 154.377 86.1314C156.123 86.1314 156.555 85.6274 156.555 83.9714V82.1894H156.483C156.069 83.0534 155.025 83.7734 153.567 83.7734ZM151.677 79.6334C151.677 81.4694 152.433 82.1174 154.125 82.1174C155.583 82.1174 156.555 81.4154 156.555 79.9034V79.3454C156.555 77.8514 155.583 77.1494 154.089 77.1494C152.415 77.1494 151.677 77.7974 151.677 79.6334ZM164.284 84.7994C161.332 84.7994 159.946 82.9274 159.946 80.1374C159.946 77.3654 161.602 75.4934 164.266 75.4934C166.678 75.4934 168.37 76.9334 168.37 79.3814C168.37 79.8494 168.316 80.3354 168.262 80.6054H161.764C161.836 82.2434 162.43 83.0714 164.302 83.0714C165.796 83.0714 166.372 82.5674 166.372 81.7574V81.6134H168.298V81.7754C168.298 83.6114 166.696 84.7994 164.284 84.7994ZM164.23 77.1314C162.538 77.1314 161.89 77.9234 161.782 79.3094H166.516C166.588 77.7794 165.76 77.1314 164.23 77.1314ZM173.771 84.7994C171.161 84.7994 169.793 83.7734 169.793 81.5954V81.5594H171.665V81.8834C171.665 82.8554 172.097 83.2154 173.807 83.2154C175.247 83.2154 175.517 82.8914 175.517 82.2254C175.517 81.5054 175.085 81.2894 173.771 81.0554L172.385 80.8214C170.783 80.5334 169.775 79.8134 169.775 78.1934C169.775 76.5734 171.107 75.4934 173.447 75.4934C175.553 75.4934 177.137 76.5374 177.137 78.5714V78.7334H175.283V78.5174C175.283 77.6894 174.995 77.0954 173.393 77.0954C171.971 77.0954 171.629 77.4734 171.629 78.1574C171.629 78.8414 171.953 79.0394 173.213 79.2914L174.725 79.5794C176.453 79.9214 177.353 80.6954 177.353 82.1714C177.353 83.8274 176.039 84.7994 173.771 84.7994ZM184.131 74.5394H182.205L182.187 72.5594H184.131V74.5394ZM184.149 84.6194H182.205V75.6194H184.149V84.6194ZM187.878 84.6194H185.934V75.6734H187.716V77.3474H187.788C188.202 76.3934 189.156 75.4934 190.902 75.4934C193.224 75.4934 194.268 76.9694 194.268 79.0034V84.6194H192.324V79.4354C192.324 77.8334 191.82 77.1674 190.182 77.1674C188.598 77.1674 187.878 77.7794 187.878 79.4534V84.6194ZM203.626 84.7994C200.872 84.7994 199.162 82.9274 199.162 80.1374C199.162 77.3654 200.872 75.4934 203.626 75.4934C206.362 75.4934 208.018 77.3654 208.018 80.1374C208.018 82.9274 206.362 84.7994 203.626 84.7994ZM203.626 83.0714C205.498 83.0714 206.146 82.1534 206.146 80.1374C206.146 78.1394 205.498 77.2214 203.626 77.2214C201.736 77.2214 201.07 78.1394 201.07 80.1374C201.07 82.1534 201.736 83.0714 203.626 83.0714ZM211.416 84.6194H209.472V75.6734H211.254V77.3474H211.326C211.74 76.3934 212.694 75.4934 214.44 75.4934C216.762 75.4934 217.806 76.9694 217.806 79.0034V84.6194H215.862V79.4354C215.862 77.8334 215.358 77.1674 213.72 77.1674C212.136 77.1674 211.416 77.7794 211.416 79.4534V84.6194ZM223.61 84.7994C220.658 84.7994 219.272 82.9274 219.272 80.1374C219.272 77.3654 220.928 75.4934 223.592 75.4934C226.004 75.4934 227.696 76.9334 227.696 79.3814C227.696 79.8494 227.642 80.3354 227.588 80.6054H221.09C221.162 82.2434 221.756 83.0714 223.628 83.0714C225.122 83.0714 225.698 82.5674 225.698 81.7574V81.6134H227.624V81.7754C227.624 83.6114 226.022 84.7994 223.61 84.7994ZM223.556 77.1314C221.864 77.1314 221.216 77.9234 221.108 79.3094H225.842C225.914 77.7794 225.086 77.1314 223.556 77.1314ZM26.808 112.733H24.882V100.673H26.646V102.149H26.736C27.15 101.105 28.176 100.493 29.724 100.493C32.244 100.493 33.63 102.311 33.63 105.155C33.63 107.981 32.28 109.799 29.85 109.799C28.248 109.799 27.258 109.061 26.862 108.233H26.808V112.733ZM26.808 105.947C26.808 107.441 27.672 108.143 29.256 108.143C30.966 108.143 31.686 107.351 31.686 105.155C31.686 102.941 30.984 102.149 29.256 102.149C27.672 102.149 26.808 102.851 26.808 104.345V105.947ZM37.1285 109.619H35.1845V97.5594H37.1285V109.619ZM41.3942 109.799C39.7922 109.799 38.5502 108.971 38.5502 107.405C38.5502 105.929 39.6302 105.155 41.5382 104.885L44.6702 104.417V103.931C44.6702 102.599 44.0582 102.203 42.6542 102.203C41.2322 102.203 40.6742 102.653 40.6742 103.841V104.111H38.8022V103.931C38.8022 101.933 40.3682 100.493 42.7622 100.493C45.2642 100.493 46.5242 102.005 46.5242 104.183V109.619H44.7242V108.215H44.6342C44.1122 109.061 43.0862 109.799 41.3942 109.799ZM40.4402 107.261C40.4402 107.963 40.8902 108.251 42.0242 108.251C43.2842 108.251 44.6702 107.747 44.6702 105.947V105.785L41.8262 106.217C40.8002 106.361 40.4402 106.595 40.4402 107.261ZM52.3645 109.817C49.5745 109.817 47.9905 107.927 47.9905 105.155C47.9905 102.365 49.6285 100.493 52.4365 100.493C54.7945 100.493 56.4145 101.951 56.4145 104.093V104.255H54.4885V104.147C54.4885 102.833 53.8045 102.239 52.3105 102.239C50.5825 102.239 49.9165 103.211 49.9165 105.155C49.9165 107.099 50.5825 108.053 52.3105 108.053C53.8045 108.053 54.4885 107.477 54.4885 106.163V106.055H56.4145V106.217C56.4145 108.341 54.7765 109.817 52.3645 109.817ZM61.9437 109.799C58.9917 109.799 57.6057 107.927 57.6057 105.137C57.6057 102.365 59.2617 100.493 61.9257 100.493C64.3377 100.493 66.0297 101.933 66.0297 104.381C66.0297 104.849 65.9757 105.335 65.9217 105.605H59.4237C59.4957 107.243 60.0897 108.071 61.9617 108.071C63.4557 108.071 64.0317 107.567 64.0317 106.757V106.613H65.9577V106.775C65.9577 108.611 64.3557 109.799 61.9437 109.799ZM61.8897 102.131C60.1977 102.131 59.5497 102.923 59.4417 104.309H64.1757C64.2477 102.779 63.4197 102.131 61.8897 102.131ZM69.5631 109.619H67.0971V106.829H69.5631V109.619Z" fill="black"/>
<path d="M87.4056 170.934H46.272V142.792H87.4056V170.934ZM46.5968 170.609H87.0807V143.117H46.5968V170.609Z" fill="#EBEBEB"/>
<path d="M49.4876 144.608C49.4876 144.77 49.4395 144.928 49.3496 145.063C49.2597 145.197 49.1318 145.302 48.9823 145.364C48.8327 145.426 48.6681 145.442 48.5094 145.411C48.3506 145.379 48.2047 145.301 48.0903 145.187C47.9758 145.072 47.8978 144.926 47.8663 144.768C47.8347 144.609 47.8509 144.444 47.9128 144.295C47.9748 144.145 48.0797 144.017 48.2143 143.927C48.3489 143.837 48.5072 143.789 48.669 143.789C48.8861 143.789 49.0943 143.876 49.2478 144.029C49.4013 144.183 49.4876 144.391 49.4876 144.608Z" fill="#A6A6A6"/>
<path d="M52.8298 144.608C52.8298 144.77 52.7818 144.928 52.6918 145.063C52.6019 145.197 52.4741 145.302 52.3245 145.364C52.1749 145.426 52.0104 145.442 51.8516 145.411C51.6928 145.379 51.547 145.301 51.4325 145.187C51.318 145.072 51.2401 144.926 51.2085 144.768C51.1769 144.609 51.1931 144.444 51.2551 144.295C51.317 144.145 51.4219 144.017 51.5565 143.927C51.6911 143.837 51.8494 143.789 52.0113 143.789C52.2283 143.789 52.4365 143.876 52.59 144.029C52.7435 144.183 52.8298 144.391 52.8298 144.608Z" fill="#EBEBEB"/>
<path d="M56.1721 144.608C56.1721 144.77 56.1241 144.928 56.0341 145.063C55.9442 145.197 55.8163 145.302 55.6668 145.364C55.5172 145.426 55.3526 145.442 55.1939 145.411C55.0351 145.379 54.8892 145.301 54.7748 145.187C54.6603 145.072 54.5823 144.926 54.5508 144.768C54.5192 144.609 54.5354 144.444 54.5973 144.295C54.6593 144.145 54.7642 144.017 54.8988 143.927C55.0334 143.837 55.1917 143.789 55.3535 143.789C55.461 143.789 55.5675 143.811 55.6668 143.852C55.7661 143.893 55.8563 143.953 55.9323 144.029C56.0083 144.105 56.0686 144.195 56.1098 144.295C56.1509 144.394 56.1721 144.5 56.1721 144.608Z" fill="#8041FF"/>
<path d="M87.2431 146.047H46.4343V146.372H87.2431V146.047Z" fill="#EBEBEB"/>
<path d="M32.9971 187.915C33.1334 187.831 33.2902 187.787 33.4502 187.787C33.6101 187.787 33.7669 187.831 33.9033 187.915L34.1339 188.048L34.3742 188.168C34.5192 188.234 34.6431 188.338 34.732 188.47C34.8209 188.602 34.8713 188.756 34.8777 188.915L34.9134 190.029L38.5383 189.915L38.5058 188.805C38.5018 188.645 38.5421 188.487 38.6224 188.349C38.7027 188.211 38.8197 188.097 38.9605 188.022C39.1191 187.935 39.2731 187.839 39.4218 187.736C39.5518 187.644 39.7049 187.59 39.8638 187.581C40.0227 187.571 40.1812 187.606 40.3215 187.681L41.2959 188.204L43.0109 185.008L42.0364 184.481C41.8958 184.406 41.779 184.293 41.6992 184.154C41.6195 184.016 41.5799 183.858 41.585 183.699C41.5947 183.519 41.5947 183.339 41.585 183.159C41.5692 183 41.5983 182.84 41.6689 182.696C41.7395 182.553 41.8488 182.432 41.9845 182.347L42.9297 181.76L41.0068 178.693L40.0551 179.284C39.9194 179.366 39.7638 179.41 39.6053 179.41C39.4467 179.41 39.2912 179.366 39.1554 179.284L38.9248 179.151L38.6844 179.031C38.5392 178.965 38.4152 178.86 38.3263 178.727C38.2374 178.595 38.1871 178.44 38.181 178.281L38.1453 177.167L34.5107 177.264L34.5464 178.372C34.5504 178.532 34.51 178.689 34.4298 178.827C34.3495 178.966 34.2324 179.079 34.0917 179.155C33.9331 179.242 33.7791 179.337 33.6304 179.44C33.5004 179.532 33.3476 179.586 33.1888 179.596C33.0301 179.607 32.8715 179.573 32.7307 179.499L31.7563 178.976L30.0413 182.172L31.0157 182.698C31.1556 182.774 31.2715 182.888 31.3506 183.026C31.4297 183.164 31.469 183.322 31.464 183.481C31.464 183.66 31.464 183.842 31.4802 184.023C31.4961 184.182 31.4671 184.342 31.3964 184.485C31.3258 184.628 31.2164 184.748 31.0807 184.832L30.1355 185.417L32.0486 188.499L32.9971 187.915ZM33.9065 182.188C34.1844 181.67 34.6096 181.246 35.1284 180.97C35.6471 180.694 36.2362 180.578 36.821 180.636C37.4059 180.694 37.9603 180.925 38.4141 181.299C38.8679 181.672 39.2008 182.172 39.3706 182.734C39.5405 183.297 39.5397 183.898 39.3683 184.46C39.1969 185.022 38.8627 185.521 38.4079 185.893C37.9531 186.265 37.3981 186.494 36.8131 186.551C36.2281 186.608 35.6393 186.49 35.1213 186.213C34.4271 185.84 33.9093 185.206 33.6815 184.452C33.4538 183.697 33.5347 182.883 33.9065 182.188Z" fill="#EBEBEB"/>
<path d="M162.582 154.034C162.678 154.091 162.757 154.174 162.809 154.273C162.861 154.372 162.885 154.484 162.878 154.596C162.878 154.658 162.878 154.722 162.878 154.784C162.878 154.846 162.878 154.911 162.878 154.973C162.885 155.084 162.861 155.195 162.809 155.294C162.757 155.393 162.678 155.475 162.582 155.531L161.907 155.921L163.177 158.123L163.852 157.733C163.951 157.674 164.065 157.644 164.18 157.648C164.296 157.652 164.407 157.69 164.502 157.756C164.609 157.824 164.716 157.886 164.827 157.945C164.925 157.995 165.007 158.072 165.064 158.167C165.122 158.261 165.152 158.37 165.151 158.48V159.26H167.682V158.48C167.682 158.37 167.712 158.262 167.769 158.167C167.826 158.073 167.908 157.996 168.006 157.945C168.118 157.888 168.226 157.825 168.331 157.756C168.424 157.693 168.533 157.657 168.645 157.653C168.757 157.649 168.868 157.677 168.965 157.733L169.64 158.123L170.91 155.921L170.231 155.528C170.141 155.47 170.068 155.389 170.019 155.293C169.971 155.197 169.949 155.09 169.955 154.982C169.955 154.921 169.955 154.859 169.955 154.797C169.955 154.735 169.955 154.671 169.955 154.609C169.948 154.497 169.971 154.386 170.024 154.287C170.076 154.189 170.155 154.107 170.251 154.05L170.926 153.66L169.656 151.458L168.984 151.848C168.887 151.904 168.776 151.931 168.664 151.927C168.552 151.923 168.444 151.888 168.351 151.825C168.246 151.756 168.138 151.693 168.026 151.637C167.922 151.587 167.834 151.509 167.773 151.411C167.712 151.313 167.68 151.2 167.682 151.085V150.308H165.148V151.085C165.149 151.196 165.119 151.305 165.061 151.4C165.004 151.495 164.922 151.572 164.823 151.624C164.711 151.68 164.603 151.743 164.498 151.812C164.404 151.878 164.292 151.915 164.177 151.919C164.062 151.923 163.948 151.894 163.849 151.835L163.173 151.445L161.903 153.647L162.582 154.034ZM166.418 152.702C166.83 152.702 167.232 152.824 167.575 153.053C167.917 153.282 168.184 153.607 168.342 153.987C168.499 154.368 168.54 154.787 168.46 155.19C168.38 155.594 168.181 155.965 167.89 156.256C167.599 156.548 167.228 156.746 166.824 156.826C166.42 156.907 166.002 156.865 165.621 156.708C165.241 156.55 164.916 156.283 164.687 155.941C164.458 155.599 164.336 155.196 164.336 154.784C164.338 154.233 164.558 153.705 164.948 153.316C165.338 152.927 165.867 152.709 166.418 152.709V152.702Z" fill="#EBEBEB"/>
<path d="M212.369 218.703C212.369 220.66 212.95 222.573 214.038 224.2C215.126 225.828 216.672 227.096 218.48 227.844C220.289 228.593 222.279 228.788 224.198 228.406C226.118 228.024 227.881 227.081 229.265 225.697C230.649 224.312 231.591 222.549 231.972 220.629C232.354 218.71 232.158 216.72 231.409 214.912C230.659 213.103 229.391 211.558 227.764 210.471C226.136 209.383 224.223 208.803 222.265 208.803C220.966 208.803 219.678 209.059 218.477 209.557C217.276 210.054 216.185 210.783 215.266 211.703C214.347 212.622 213.618 213.713 213.121 214.915C212.624 216.116 212.368 217.403 212.369 218.703ZM217.64 218.703C217.639 217.788 217.909 216.893 218.417 216.132C218.924 215.37 219.646 214.776 220.491 214.425C221.336 214.074 222.266 213.982 223.164 214.159C224.061 214.337 224.886 214.777 225.534 215.424C226.181 216.07 226.622 216.894 226.801 217.792C226.98 218.689 226.889 219.619 226.539 220.465C226.189 221.311 225.597 222.033 224.836 222.542C224.075 223.05 223.181 223.322 222.265 223.322C221.04 223.321 219.865 222.834 218.998 221.968C218.131 221.103 217.643 219.928 217.64 218.703Z" fill="#EBEBEB"/>
<path d="M220.362 209.215H224.169L223.958 206.52H220.573L220.362 209.215Z" fill="#EBEBEB"/>
<path d="M227.605 210.498L230.298 213.188L232.055 211.135L229.661 208.741L227.605 210.498Z" fill="#EBEBEB"/>
<path d="M231.821 216.527V220.334L234.517 220.122V216.738L231.821 216.527Z" fill="#EBEBEB"/>
<path d="M230.538 223.77L227.849 226.463L229.902 228.22L232.295 225.826L230.538 223.77Z" fill="#EBEBEB"/>
<path d="M224.51 227.986H220.703L220.914 230.682H224.299L224.51 227.986Z" fill="#EBEBEB"/>
<path d="M217.267 226.703L214.574 224.014L212.82 226.066L215.214 228.46L217.267 226.703Z" fill="#EBEBEB"/>
<path d="M213.051 220.675V216.868L210.355 217.079V220.463L213.051 220.675Z" fill="#EBEBEB"/>
<path d="M214.334 213.431L217.023 210.739L214.97 208.981L212.576 211.375L214.334 213.431Z" fill="#EBEBEB"/>
<path d="M47.1522 207.968C47.1522 209.926 47.7326 211.839 48.8201 213.467C49.9076 215.094 51.4532 216.363 53.2617 217.112C55.0701 217.861 57.06 218.057 58.9798 217.675C60.8996 217.293 62.6631 216.35 64.0472 214.966C65.4313 213.582 66.3739 211.819 66.7557 209.899C67.1376 207.979 66.9416 205.989 66.1926 204.181C65.4435 202.372 64.175 200.827 62.5474 199.739C60.9199 198.652 59.0064 198.071 57.049 198.071C54.4242 198.071 51.9069 199.114 50.0509 200.97C48.1949 202.826 47.1522 205.343 47.1522 207.968ZM52.427 207.968C52.427 207.054 52.6981 206.16 53.206 205.4C53.7138 204.64 54.4357 204.048 55.2803 203.698C56.1248 203.348 57.0542 203.257 57.9507 203.435C58.8473 203.613 59.6709 204.054 60.3173 204.7C60.9637 205.346 61.4039 206.17 61.5822 207.066C61.7606 207.963 61.669 208.892 61.3192 209.737C60.9694 210.581 60.377 211.303 59.6169 211.811C58.8568 212.319 57.9632 212.59 57.049 212.59C55.8232 212.59 54.6476 212.103 53.7808 211.236C52.914 210.37 52.427 209.194 52.427 207.968Z" fill="#EBEBEB"/>
<path d="M55.1456 198.48H58.9524L58.7412 195.788H55.3568L55.1456 198.48Z" fill="#EBEBEB"/>
<path d="M62.3889 199.763L65.0815 202.456L66.8387 200.4L64.4449 198.01L62.3889 199.763Z" fill="#EBEBEB"/>
<path d="M66.6049 205.792V209.599L69.3008 209.387V206.003L66.6049 205.792Z" fill="#EBEBEB"/>
<path d="M65.3252 213.038L62.6325 215.728L64.6853 217.485L67.0791 215.091L65.3252 213.038Z" fill="#EBEBEB"/>
<path d="M59.2934 217.254H55.4899L55.6978 219.947H59.0855L59.2934 217.254Z" fill="#EBEBEB"/>
<path d="M52.0502 215.971L49.3576 213.279L47.6036 215.335L49.9975 217.729L52.0502 215.971Z" fill="#EBEBEB"/>
<path d="M47.8343 209.943V206.136L45.1384 206.347V209.732L47.8343 209.943Z" fill="#EBEBEB"/>
<path d="M49.1173 202.696L51.8067 200.007L49.7539 198.25L47.36 200.644L49.1173 202.696Z" fill="#EBEBEB"/>
<path d="M235.362 217.417L231.1 217.508L228.937 217.543C228.213 217.56 227.485 217.543 226.761 217.563H226.618V217.417L226.598 213.772V213.61H226.761L231.061 213.629C232.497 213.629 233.929 213.665 235.362 213.681H235.453V213.772C235.453 214.39 235.427 215.003 235.41 215.611L235.362 217.417ZM235.362 217.417L235.316 215.582C235.3 214.977 235.28 214.38 235.274 213.782L235.362 213.873C233.929 213.889 232.497 213.925 231.061 213.925L226.761 213.945L226.923 213.782V217.417L226.777 217.274C227.485 217.274 228.193 217.274 228.905 217.29L231.019 217.345L235.362 217.417Z" fill="#EBEBEB"/>
<path d="M230.564 222L226.303 222.091L224.136 222.126C223.415 222.126 222.688 222.126 221.963 222.146H221.82V222V218.365V218.203H221.983L226.283 218.225C227.716 218.225 229.151 218.261 230.584 218.277H230.675V218.365C230.675 218.982 230.649 219.596 230.632 220.204L230.564 222ZM230.564 222L230.519 220.165C230.503 219.56 230.483 218.963 230.477 218.365L230.564 218.456C229.132 218.472 227.696 218.508 226.264 218.508L221.963 218.528L222.126 218.365V222L221.98 221.857C222.688 221.857 223.396 221.857 224.107 221.873L226.241 221.912L230.564 222Z" fill="#EBEBEB"/>
<path d="M240.159 222L235.898 222.091L233.734 222.126C233.01 222.126 232.282 222.126 231.558 222.146H231.415V222L231.396 218.365V218.203H231.558L235.859 218.225C237.294 218.225 238.727 218.261 240.159 218.277H240.25V218.365C240.25 218.982 240.221 219.596 240.208 220.204L240.159 222ZM240.159 222L240.114 220.165C240.114 219.56 240.078 218.963 240.071 218.365L240.159 218.456C238.727 218.472 237.294 218.508 235.859 218.508L231.558 218.528L231.721 218.365V222L231.574 221.857C232.286 221.857 232.991 221.857 233.702 221.873L235.839 221.912L240.159 222Z" fill="#EBEBEB"/>
<path d="M112.721 174.169L108.46 174.26L106.296 174.295C105.572 174.295 104.844 174.295 104.12 174.295H103.977V174.149L103.958 170.515V170.352H104.12L108.421 170.372C109.856 170.372 111.289 170.407 112.721 170.424H112.812V170.511C112.812 171.128 112.783 171.739 112.766 172.346L112.721 174.169ZM112.721 174.169L112.676 172.33C112.676 171.726 112.64 171.128 112.633 170.534L112.721 170.622C111.289 170.622 109.856 170.674 108.421 170.674L104.12 170.696L104.283 170.534L104.266 174.169L104.12 174.022C104.828 174.022 105.536 174.022 106.248 174.042L108.385 174.078L112.721 174.169Z" fill="#EBEBEB"/>
<path d="M107.917 178.752L103.656 178.843L101.489 178.878C100.768 178.878 100.04 178.878 99.3162 178.895H99.1733V178.748L99.1473 175.12V174.958H99.3097L103.61 174.977C105.043 174.977 106.478 175.013 107.911 175.029H108.002V175.12C108.002 175.737 107.976 176.348 107.959 176.955L107.917 178.752ZM107.917 178.752L107.872 176.913C107.855 176.309 107.836 175.711 107.829 175.117L107.917 175.205C106.485 175.221 105.049 175.257 103.617 175.257L99.3162 175.279L99.4786 175.117L99.4721 178.752L99.3259 178.605C100.034 178.605 100.742 178.605 101.453 178.625L103.587 178.661L107.917 178.752Z" fill="#EBEBEB"/>
<path d="M117.518 178.752L113.257 178.843L111.094 178.878C110.369 178.878 109.645 178.878 108.917 178.895H108.775V178.748L108.755 175.12V174.958H108.917L113.218 174.977C114.654 174.977 116.086 175.013 117.518 175.029H117.609V175.12C117.609 175.737 117.58 176.348 117.567 176.955L117.518 178.752ZM117.518 178.752L117.473 176.913C117.473 176.309 117.437 175.711 117.431 175.117L117.518 175.205C116.086 175.221 114.654 175.257 113.218 175.257L108.917 175.279L109.08 175.117L109.064 178.752L108.917 178.605C109.629 178.605 110.334 178.605 111.045 178.625L113.182 178.661L117.518 178.752Z" fill="#EBEBEB"/>
<path d="M42.5918 198.217L38.3304 198.308L36.1639 198.344C35.4428 198.344 34.7153 198.344 33.9909 198.36H33.861V198.214V194.58V194.417H34.0234L38.3239 194.437C39.7563 194.437 41.1919 194.472 42.6243 194.489H42.7153V194.576C42.7153 195.193 42.6893 195.804 42.673 196.411L42.5918 198.217ZM42.5918 198.217L42.5464 196.379C42.5464 195.775 42.5106 195.177 42.5041 194.583L42.5918 194.67C41.1594 194.687 39.7238 194.722 38.2914 194.722L33.9909 194.745L34.1533 194.583L34.1371 198.217L33.9909 198.071C34.699 198.071 35.4071 198.071 36.1184 198.091L38.2524 198.126L42.5918 198.217Z" fill="#EBEBEB"/>
<path d="M185.176 174.165L180.914 174.256L178.751 174.292C178.027 174.308 177.299 174.292 176.575 174.308H176.432V174.162L176.412 170.528V170.365H176.575L180.875 170.385C182.311 170.385 183.743 170.424 185.176 170.44H185.267V170.528C185.267 171.145 185.241 171.759 185.224 172.363L185.176 174.165ZM185.176 174.165L185.13 172.33C185.114 171.723 185.094 171.125 185.088 170.531L185.176 170.618C183.743 170.635 182.311 170.67 180.875 170.674L176.575 170.693L176.737 170.531L176.721 174.165L176.575 174.019C177.283 174.019 177.991 174.019 178.702 174.039L180.839 174.074L185.176 174.165Z" fill="#EBEBEB"/>
<path d="M234.865 138.865L230.603 138.956L228.437 138.992C227.716 138.992 226.988 138.992 226.264 139.012H226.121V138.865V135.231V135.068H226.283L230.584 135.088C232.016 135.088 233.452 135.127 234.884 135.143H234.975V135.231C234.975 135.848 234.949 136.462 234.933 137.066L234.865 138.865ZM234.865 138.865L234.819 137.03C234.803 136.423 234.784 135.825 234.777 135.231L234.865 135.318C233.432 135.318 231.997 135.37 230.564 135.374L226.264 135.393L226.426 135.231L226.41 138.865L226.264 138.719C226.972 138.719 227.68 138.719 228.391 138.739L230.525 138.774L234.865 138.865Z" fill="#EBEBEB"/>
<path d="M239.662 143.448L235.401 143.539L233.237 143.575C232.513 143.591 231.786 143.575 231.061 143.591H230.918V143.445L230.899 139.81V139.648H231.061L235.362 139.668C236.797 139.668 238.23 139.707 239.662 139.723H239.753V139.81C239.753 140.428 239.724 141.041 239.708 141.646L239.662 143.448ZM239.662 143.448L239.617 141.613C239.617 141.006 239.581 140.408 239.574 139.814L239.662 139.901C238.23 139.918 236.797 139.953 235.362 139.957L231.061 139.976L231.224 139.814V143.448L231.077 143.302C231.786 143.302 232.494 143.302 233.205 143.322L235.342 143.357L239.662 143.448Z" fill="#EBEBEB"/>
<path d="M32.9971 138.869L28.7323 138.96L26.5691 138.995C25.8481 138.995 25.1205 138.995 24.3962 139.015H24.25V138.869V135.234V135.072H24.4157L28.7161 135.095C30.1485 135.095 31.5809 135.13 33.0165 135.146H33.1042V135.234C33.1042 135.851 33.075 136.465 33.062 137.073L32.9971 138.869ZM32.9971 138.869L32.9483 137.034C32.9483 136.426 32.9126 135.829 32.9061 135.234L32.9971 135.322C31.5614 135.341 30.129 135.374 28.6966 135.377L24.3962 135.397L24.5586 135.234L24.5391 138.869L24.3962 138.742C25.1042 138.742 25.8091 138.742 26.5204 138.742L28.6576 138.778L32.9971 138.869Z" fill="#EBEBEB"/>
<path d="M26.9492 242.622L53.2813 242.544L79.6134 242.515L132.278 242.459L184.942 242.515L211.274 242.544L237.606 242.622L211.274 242.7L184.942 242.729L132.278 242.784L79.6134 242.729L53.2813 242.7L26.9492 242.622Z" fill="#263238"/>
<path d="M200.484 152.8H63.5257V244.415H200.484V152.8Z" fill="#DBDBDB"/>
<path d="M199.487 153.917H64.5195V243.297H199.487V153.917Z" fill="#263238"/>
<path d="M218.322 251.284H45.6873V257.573H218.322V251.284Z" fill="#C7C7C7"/>
<path d="M45.6873 251.284L63.5257 244.415H200.484L218.322 251.284H45.6873Z" fill="#DBDBDB"/>
<path d="M65.1172 248.848L76.6284 244.415H187.381L198.892 248.848H65.1172Z" fill="#263238"/>
<path d="M191.863 160.709H72.1493V236.509H191.863V160.709Z" fill="white"/>
<path d="M189.736 163.625H72.1493V181.948H189.736V163.625Z" fill="#8041FF"/>
<path d="M191.863 160.709H72.1493V163.626H191.863V160.709Z" fill="#455A64"/>
<path d="M74.8939 162.167C74.8939 162.276 74.8615 162.383 74.8008 162.474C74.7402 162.565 74.6539 162.635 74.553 162.677C74.4521 162.719 74.3411 162.73 74.234 162.709C74.1269 162.687 74.0285 162.635 73.9513 162.557C73.8741 162.48 73.8215 162.382 73.8002 162.275C73.7789 162.168 73.7898 162.057 73.8316 161.956C73.8734 161.855 73.9441 161.769 74.035 161.708C74.1258 161.647 74.2325 161.615 74.3417 161.615C74.4882 161.615 74.6286 161.673 74.7322 161.777C74.8357 161.88 74.8939 162.021 74.8939 162.167Z" fill="#C7C7C7"/>
<path d="M77.148 162.167C77.148 162.276 77.1157 162.383 77.055 162.474C76.9943 162.565 76.9081 162.635 76.8072 162.677C76.7063 162.719 76.5953 162.73 76.4881 162.709C76.381 162.687 76.2827 162.635 76.2054 162.557C76.1282 162.48 76.0756 162.382 76.0543 162.275C76.033 162.168 76.0439 162.057 76.0857 161.956C76.1275 161.855 76.1983 161.769 76.2891 161.708C76.3799 161.647 76.4867 161.615 76.5959 161.615C76.7423 161.615 76.8828 161.673 76.9863 161.777C77.0899 161.88 77.148 162.021 77.148 162.167Z" fill="white"/>
<path d="M79.4023 162.167C79.4023 162.276 79.3699 162.383 79.3092 162.474C79.2485 162.565 79.1623 162.635 79.0614 162.677C78.9605 162.719 78.8495 162.73 78.7424 162.709C78.6352 162.687 78.5369 162.635 78.4596 162.557C78.3824 162.48 78.3298 162.382 78.3085 162.275C78.2872 162.168 78.2982 162.057 78.3399 161.956C78.3817 161.855 78.4525 161.769 78.5433 161.708C78.6341 161.647 78.7409 161.615 78.8501 161.615C78.9965 161.615 79.137 161.673 79.2405 161.777C79.3441 161.88 79.4023 162.021 79.4023 162.167Z" fill="#8041FF"/>
<path d="M191.86 163.625H189.736V236.509H191.86V163.625Z" fill="#DBDBDB"/>
<path d="M190.798 188.892C190.653 188.892 190.513 188.834 190.41 188.732C190.307 188.629 190.249 188.489 190.249 188.343V164.6C190.249 164.454 190.307 164.315 190.41 164.212C190.513 164.109 190.653 164.051 190.798 164.051C190.87 164.051 190.942 164.065 191.008 164.093C191.075 164.12 191.135 164.161 191.186 164.212C191.237 164.263 191.278 164.323 191.305 164.39C191.333 164.456 191.347 164.528 191.347 164.6V188.343C191.347 188.415 191.333 188.487 191.305 188.553C191.278 188.62 191.237 188.681 191.186 188.732C191.135 188.782 191.075 188.823 191.008 188.85C190.942 188.878 190.87 188.892 190.798 188.892Z" fill="#A6A6A6"/>
<path d="M183.6 167.182H154.988V171.002H183.6V167.182Z" fill="white"/>
<path d="M183.643 171.038H154.949V167.14H183.643V171.038ZM155.027 170.96H183.565V167.221H155.014L155.027 170.96Z" fill="#C7C7C7"/>
<path d="M183.643 167.14H179.745V171.038H183.643V167.14Z" fill="#455A64"/>
<path d="M182.902 170.161L182.551 170.427L181.902 169.566L181.661 169.241C181.711 169.224 181.757 169.199 181.798 169.167C181.873 169.109 181.933 169.035 181.973 168.949L182.226 169.274L182.902 170.161Z" fill="white"/>
<path d="M182.21 168.127C182.099 167.977 181.948 167.862 181.773 167.796C181.599 167.729 181.409 167.714 181.226 167.753C181.043 167.791 180.876 167.881 180.743 168.012C180.61 168.143 180.517 168.31 180.476 168.492C180.435 168.674 180.447 168.864 180.511 169.039C180.575 169.215 180.687 169.368 180.836 169.481C180.984 169.595 181.162 169.663 181.348 169.678C181.534 169.693 181.721 169.654 181.885 169.566C181.932 169.54 181.976 169.511 182.019 169.478C182.094 169.419 182.161 169.349 182.217 169.271C182.336 169.104 182.4 168.903 182.399 168.698C182.398 168.493 182.332 168.293 182.21 168.127ZM181.794 169.173C181.753 169.205 181.707 169.231 181.658 169.248C181.535 169.296 181.399 169.301 181.273 169.261C181.147 169.22 181.039 169.138 180.967 169.028C180.894 168.917 180.862 168.785 180.876 168.654C180.889 168.522 180.948 168.4 181.041 168.306C181.135 168.213 181.257 168.154 181.389 168.141C181.52 168.127 181.652 168.159 181.763 168.232C181.873 168.304 181.956 168.412 181.996 168.538C182.036 168.664 182.031 168.8 181.983 168.923C181.944 169.022 181.879 169.108 181.794 169.173Z" fill="white"/>
<path d="M155.992 167.932H155.787V170.252H155.992V167.932Z" fill="#C7C7C7"/>
<path d="M153.553 167.182H87.6556V171.002H153.553V167.182Z" fill="white"/>
<path d="M153.595 171.038H87.6166V167.14H153.595V171.038ZM87.6945 170.96H153.517V167.221H87.6945V170.96Z" fill="#C7C7C7"/>
<path d="M88.6593 167.932H88.4547V170.252H88.6593V167.932Z" fill="#C7C7C7"/>
<path d="M80.4482 170.398L79.058 169.118L80.4449 167.786L80.6625 168.01L79.5127 169.111L80.6593 170.167L80.4482 170.398Z" fill="white"/>
<path d="M83.8067 167.783L85.1968 169.063L83.8067 170.394L83.5923 170.17L84.7421 169.069L83.5955 168.014L83.8067 167.783Z" fill="white"/>
<path d="M129.049 229.831H184.919V186.963H129.049V229.831Z" fill="#EBEBEB"/>
<path d="M134.606 196.34C134.393 197.408 134.53 198.517 134.995 199.502C135.46 200.487 136.23 201.296 137.191 201.81C138.151 202.324 139.252 202.515 140.329 202.355C141.407 202.195 142.405 201.693 143.175 200.923C143.945 200.153 144.447 199.155 144.607 198.077C144.767 197 144.576 195.899 144.062 194.939C143.548 193.978 142.739 193.208 141.754 192.743C140.769 192.278 139.66 192.141 138.592 192.355C137.608 192.551 136.705 193.035 135.996 193.744C135.287 194.453 134.803 195.356 134.606 196.34Z" fill="white"/>
<path d="M147.479 220.597H184.916L166.197 197.526L147.479 220.597Z" fill="#C7C7C7"/>
<path d="M129.046 220.616H162.248L145.647 205.594L129.046 220.616Z" fill="#DBDBDB"/>
<path d="M184.916 220.597H129.046V229.831H184.916V220.597Z" fill="#DBDBDB"/>
<path d="M94.0153 213.467H77.9698V214.818H94.0153V213.467Z" fill="#A6A6A6"/>
<path d="M124.408 216.598H77.9698V217.949H124.408V216.598Z" fill="#EBEBEB"/>
<path d="M124.408 219.57H77.9698V220.921H124.408V219.57Z" fill="#EBEBEB"/>
<path d="M124.408 222.539H77.9698V223.89H124.408V222.539Z" fill="#EBEBEB"/>
<path d="M124.408 225.511H77.9698V226.862H124.408V225.511Z" fill="#EBEBEB"/>
<path d="M124.408 228.48H77.9698V229.831H124.408V228.48Z" fill="#EBEBEB"/>
<path d="M94.0153 186.966H77.9698V190.578H94.0153V186.966Z" fill="#A6A6A6"/>
<path d="M110.938 193.066H77.9698V194.417H110.938V193.066Z" fill="#EBEBEB"/>
<path d="M110.938 196.038H77.9698V197.389H110.938V196.038Z" fill="#EBEBEB"/>
<path d="M110.938 199.007H77.9698V200.358H110.938V199.007Z" fill="#EBEBEB"/>
<path d="M110.938 201.979H77.9698V203.33H110.938V201.979Z" fill="#EBEBEB"/>
<path d="M110.938 205.928H77.9698V207.28H110.938V205.928Z" fill="#EBEBEB"/>
<path d="M110.938 208.9H77.9698V210.252H110.938V208.9Z" fill="#EBEBEB"/>
<path opacity="0.7" d="M191.863 160.709H72.1493V236.509H191.863V160.709Z" fill="white"/>
<path d="M159.656 178.833H104.903V222.152H159.656V178.833Z" fill="white"/>
<path d="M159.652 222.149L104.903 222.237H104.815V222.149L104.779 178.833V178.709H104.903L159.652 178.755H159.73V178.833L159.652 222.149ZM159.652 222.149L159.578 178.833L159.652 178.908L104.903 178.953L105.023 178.833L104.994 222.149L104.909 222.065L159.652 222.149Z" fill="#263238"/>
<path d="M159.656 178.833H104.903V181.75H159.656V178.833Z" fill="#455A64"/>
<path d="M107.095 180.843C107.4 180.843 107.648 180.596 107.648 180.291C107.648 179.986 107.4 179.739 107.095 179.739C106.79 179.739 106.543 179.986 106.543 180.291C106.543 180.596 106.79 180.843 107.095 180.843Z" fill="#C7C7C7"/>
<path d="M109.902 180.291C109.902 180.401 109.869 180.507 109.809 180.598C109.748 180.689 109.662 180.76 109.561 180.801C109.46 180.843 109.349 180.854 109.242 180.833C109.135 180.812 109.036 180.759 108.959 180.682C108.882 180.605 108.829 180.506 108.808 180.399C108.787 180.292 108.798 180.181 108.839 180.08C108.881 179.979 108.952 179.893 109.043 179.832C109.134 179.772 109.24 179.739 109.349 179.739C109.496 179.739 109.636 179.797 109.74 179.901C109.843 180.004 109.902 180.145 109.902 180.291Z" fill="white"/>
<path d="M111.604 180.843C111.909 180.843 112.156 180.596 112.156 180.291C112.156 179.986 111.909 179.739 111.604 179.739C111.299 179.739 111.051 179.986 111.051 180.291C111.051 180.596 111.299 180.843 111.604 180.843Z" fill="#8041FF"/>
<path d="M125.21 195.349L123.121 193.31C124.791 191.61 126.909 190.419 129.229 189.876C131.549 189.332 133.975 189.458 136.227 190.238C138.478 191.018 140.462 192.421 141.947 194.284C143.433 196.146 144.36 198.392 144.62 200.761L141.697 201.085C141.5 199.265 140.789 197.537 139.649 196.104C138.508 194.671 136.983 193.592 135.253 192.991C133.522 192.391 131.657 192.295 129.874 192.713C128.091 193.132 126.463 194.048 125.181 195.356L125.21 195.349Z" fill="#8041FF"/>
<path d="M139.014 199.228L142.246 206.724L147.121 200.179L139.014 199.228Z" fill="#8041FF"/>
<g opacity="0.2">
<path d="M125.21 195.349L123.121 193.31C124.791 191.61 126.909 190.419 129.229 189.876C131.549 189.332 133.975 189.458 136.227 190.238C138.478 191.018 140.462 192.421 141.947 194.284C143.433 196.146 144.36 198.392 144.62 200.761L141.697 201.085C141.5 199.265 140.789 197.537 139.649 196.104C138.508 194.671 136.983 193.592 135.253 192.991C133.522 192.391 131.657 192.295 129.874 192.713C128.091 193.132 126.463 194.048 125.181 195.356L125.21 195.349Z" fill="black"/>
<path d="M139.014 199.228L142.246 206.724L147.121 200.179L139.014 199.228Z" fill="black"/>
</g>
<path d="M127.23 212.931C125.246 212.019 123.532 210.609 122.254 208.838C120.976 207.068 120.177 204.997 119.935 202.827L122.858 202.502C123.067 204.366 123.813 206.129 125.007 207.577C126.2 209.024 127.788 210.093 129.579 210.654C131.369 211.214 133.284 211.242 135.089 210.733C136.895 210.225 138.514 209.202 139.748 207.79L141.96 209.699C140.175 211.746 137.78 213.164 135.128 213.746C132.476 214.328 129.708 214.042 127.23 212.931Z" fill="#8041FF"/>
<path d="M125.541 204.36L122.309 196.863L117.434 203.408L125.541 204.36Z" fill="#8041FF"/>
<path d="M198.938 154.466L181.918 155.759L180.261 133.909L192.896 132.951L197.281 132.619L197.596 136.78L198.938 154.466Z" fill="#EBEBEB"/>
<path d="M182.241 138.01L196.107 136.958L196.064 136.398L182.199 137.45L182.241 138.01Z" fill="#DBDBDB"/>
<path d="M182.349 139.426L196.214 138.374L196.172 137.813L182.306 138.866L182.349 139.426Z" fill="#DBDBDB"/>
<path d="M182.457 140.841L196.322 139.789L196.279 139.229L182.414 140.281L182.457 140.841Z" fill="#DBDBDB"/>
<path d="M182.564 142.256L196.429 141.204L196.387 140.644L182.522 141.696L182.564 142.256Z" fill="#DBDBDB"/>
<path d="M182.672 143.675L196.537 142.623L196.494 142.063L182.629 143.115L182.672 143.675Z" fill="#DBDBDB"/>
<path d="M182.779 145.09L196.644 144.038L196.602 143.478L182.737 144.53L182.779 145.09Z" fill="#DBDBDB"/>
<path d="M182.238 147.235L196.143 146.123L196.098 145.561L182.193 146.674L182.238 147.235Z" fill="#DBDBDB"/>
<path d="M182.991 147.921L196.856 146.869L196.813 146.309L182.948 147.361L182.991 147.921Z" fill="#DBDBDB"/>
<path d="M182.44 150.059L196.345 148.947L196.3 148.385L182.395 149.497L182.44 150.059Z" fill="#DBDBDB"/>
<path d="M183.209 150.755L197.074 149.703L197.032 149.143L183.167 150.195L183.209 150.755Z" fill="#DBDBDB"/>
<path d="M183.317 152.171L197.182 151.118L197.139 150.558L183.274 151.61L183.317 152.171Z" fill="#DBDBDB"/>
<path d="M183.424 153.586L197.289 152.534L197.247 151.973L183.382 153.026L183.424 153.586Z" fill="#DBDBDB"/>
<path d="M202.186 163.021L186.748 155.739L196.092 135.919L207.555 141.327L209.751 146.976L202.186 163.021Z" fill="#EBEBEB"/>
<path d="M207.555 141.328L209.751 146.976L205.775 145.102L207.555 141.328Z" fill="#DBDBDB"/>
<path d="M195.78 140.477L204.365 144.524L204.605 144.016L196.02 139.969L195.78 140.477Z" fill="#DBDBDB"/>
<path d="M195.175 141.764L203.76 145.811L204 145.303L195.415 141.256L195.175 141.764Z" fill="#DBDBDB"/>
<path d="M194.571 143.048L203.156 147.095L203.395 146.587L194.811 142.54L194.571 143.048Z" fill="#DBDBDB"/>
<path d="M193.963 144.331L206.541 150.26L206.78 149.752L194.203 143.823L193.963 144.331Z" fill="#DBDBDB"/>
<path d="M193.358 145.619L205.935 151.548L206.175 151.04L193.597 145.111L193.358 145.619Z" fill="#DBDBDB"/>
<path d="M192.751 146.902L205.328 152.832L205.568 152.323L192.99 146.394L192.751 146.902Z" fill="#DBDBDB"/>
<path d="M192.148 148.187L204.726 154.116L204.966 153.608L192.388 147.679L192.148 148.187Z" fill="#DBDBDB"/>
<path d="M191.541 149.47L204.119 155.399L204.359 154.891L191.781 148.962L191.541 149.47Z" fill="#DBDBDB"/>
<path d="M190.933 150.756L203.51 156.686L203.75 156.177L191.173 150.248L190.933 150.756Z" fill="#DBDBDB"/>
<path d="M190.329 152.038L202.906 157.967L203.146 157.459L190.568 151.53L190.329 152.038Z" fill="#DBDBDB"/>
<path d="M189.724 153.324L202.301 159.254L202.541 158.745L189.963 152.816L189.724 153.324Z" fill="#DBDBDB"/>
<path d="M189.119 154.609L201.697 160.538L201.937 160.03L189.359 154.101L189.119 154.609Z" fill="#DBDBDB"/>
<path d="M201.775 164.502L205.751 145.583L183.45 140.896L179.474 159.815L201.775 164.502Z" fill="#8041FF"/>
<path d="M190.22 156.525L202.897 159.189L198.2 150.045L190.22 156.525Z" fill="#8041FF"/>
<g opacity="0.3">
<path d="M190.22 156.525L202.897 159.189L198.2 150.045L190.22 156.525Z" fill="white"/>
</g>
<path d="M183.977 155.219L195.219 157.581L190.668 151.315L183.977 155.219Z" fill="#8041FF"/>
<g opacity="0.5">
<path d="M183.977 155.219L195.219 157.581L190.668 151.315L183.977 155.219Z" fill="white"/>
</g>
<path d="M202.896 159.196L180.595 154.509L179.477 159.827L201.779 164.514L202.896 159.196Z" fill="#8041FF"/>
<g opacity="0.5">
<path d="M202.896 159.196L180.595 154.509L179.477 159.827L201.779 164.514L202.896 159.196Z" fill="white"/>
</g>
<path opacity="0.9" d="M185.76 149.532C186.107 149.681 186.493 149.714 186.86 149.626C187.227 149.538 187.557 149.335 187.799 149.045C188.041 148.756 188.184 148.396 188.206 148.019C188.228 147.642 188.128 147.269 187.921 146.953C187.714 146.637 187.411 146.397 187.057 146.267C186.702 146.137 186.315 146.125 185.953 146.232C185.591 146.339 185.274 146.56 185.047 146.862C184.82 147.164 184.697 147.531 184.695 147.908C184.694 148.253 184.794 148.591 184.983 148.88C185.173 149.169 185.443 149.396 185.76 149.532Z" fill="white"/>
<path d="M179.732 145.193L179.407 145.167L179.43 144.842L179.755 144.865L179.732 145.193Z" fill="#263238"/>
<path d="M162.127 150.981L161.903 150.747C162.049 150.61 162.205 150.468 162.374 150.318L162.589 150.562C162.423 150.708 162.27 150.848 162.127 150.981ZM163.063 150.156L162.858 149.906C163.014 149.776 163.183 149.643 163.352 149.506L163.55 149.763C163.381 149.896 163.219 150.026 163.063 150.156ZM164.037 149.386L163.846 149.126C164.011 149.003 164.17 148.883 164.362 148.759L164.547 149.025C164.385 149.136 164.213 149.269 164.05 149.386H164.037ZM165.083 148.681L164.904 148.405C165.08 148.295 165.259 148.181 165.444 148.08L165.613 148.36C165.431 148.457 165.252 148.567 165.083 148.681ZM166.152 148.032L165.989 147.749L166.548 147.447L166.701 147.733C166.512 147.837 166.33 147.931 166.152 148.032ZM167.256 147.447L167.113 147.158C167.298 147.064 167.49 146.973 167.685 146.885L167.821 147.181C167.63 147.268 167.441 147.356 167.256 147.447ZM168.393 146.927L168.266 146.628C168.458 146.547 168.653 146.466 168.854 146.388L168.971 146.69C168.776 146.768 168.581 146.862 168.393 146.927ZM169.556 146.469L169.449 146.164C169.643 146.096 169.845 146.024 170.046 145.959L170.147 146.284L169.556 146.469ZM170.745 146.079L170.65 145.755C170.852 145.693 171.056 145.634 171.261 145.579L171.345 145.904L170.745 146.079ZM171.953 145.755L171.878 145.43C172.079 145.381 172.287 145.336 172.495 145.293L172.563 145.618L171.953 145.755ZM173.177 145.495L173.119 145.17C173.322 145.131 173.53 145.095 173.742 145.063L173.791 145.388L173.177 145.495ZM174.412 145.303L174.369 144.978C174.577 144.952 174.788 144.926 174.999 144.907L175.032 145.232L174.412 145.303ZM175.656 145.176L175.63 144.852C175.846 144.836 176.057 144.824 176.263 144.813L176.279 145.137C176.071 145.15 175.863 145.165 175.656 145.18V145.176ZM178.783 145.131L178.157 145.108V144.783L178.806 144.806L178.783 145.131ZM176.906 145.112V144.787C177.114 144.787 177.328 144.787 177.556 144.787V145.112C177.319 145.108 177.101 145.108 176.906 145.115V145.112Z" fill="#263238"/>
<path d="M161.455 151.65L161.221 151.429C161.289 151.354 161.364 151.276 161.448 151.192L161.679 151.419L161.455 151.65Z" fill="#263238"/>
<path d="M161.968 149.474L162.264 149.607L161.393 151.546L163.31 150.62L163.449 150.913L160.734 152.228L161.968 149.474Z" fill="#263238"/>
<path d="M213.388 172.795L213.064 172.775C213.07 172.667 213.07 172.559 213.064 172.45H213.388C213.398 172.681 213.388 172.795 213.388 172.795Z" fill="#263238"/>
<path d="M213.054 171.82C213.054 171.629 213.028 171.414 213.005 171.171L213.33 171.138C213.353 171.385 213.369 171.603 213.379 171.788L213.054 171.82ZM212.93 170.521C212.901 170.316 212.869 170.105 212.83 169.872L213.155 169.816C213.194 170.047 213.226 170.265 213.255 170.466L212.93 170.521ZM212.71 169.241C212.667 169.037 212.622 168.826 212.57 168.592L212.895 168.517C212.947 168.738 212.995 168.952 213.038 169.167L212.71 169.241ZM212.408 167.981C212.352 167.776 212.294 167.569 212.229 167.357L212.554 167.263C212.619 167.478 212.68 167.689 212.736 167.893L212.408 167.981ZM212.031 166.737C211.963 166.539 211.891 166.334 211.813 166.126L212.118 166.013C212.196 166.224 212.271 166.432 212.339 166.636L212.031 166.737ZM211.579 165.522C211.501 165.324 211.417 165.123 211.329 164.921L211.628 164.792C211.716 164.996 211.8 165.201 211.881 165.399L211.579 165.522ZM211.063 164.33C210.972 164.135 210.878 163.941 210.78 163.746L211.069 163.599C211.17 163.801 211.264 163.996 211.358 164.194L211.063 164.33ZM210.481 163.167C210.381 162.979 210.277 162.791 210.157 162.599L210.439 162.44C210.55 162.632 210.657 162.826 210.764 163.015L210.481 163.167ZM209.832 162.04C209.725 161.855 209.608 161.673 209.507 161.488L209.78 161.313C209.9 161.501 210.017 161.686 210.127 161.872L209.832 162.04ZM209.133 160.943C209.017 160.767 208.893 160.589 208.766 160.41L209.03 160.221C209.159 160.403 209.283 160.582 209.403 160.764L209.133 160.943ZM208.383 159.884C208.256 159.712 208.123 159.539 207.99 159.367L208.243 159.166L208.643 159.689L208.383 159.884ZM207.587 158.88C207.454 158.714 207.315 158.555 207.172 158.383L207.418 158.169L207.841 158.672L207.587 158.88Z" fill="#263238"/>
<path d="M206.74 157.88L206.522 157.639L206.759 157.422L206.98 157.662L206.74 157.88Z" fill="#263238"/>
<path d="M208.672 158.289L208.52 158.575L206.642 157.571L207.435 159.546L207.133 159.666L206.009 156.863L208.672 158.289Z" fill="#263238"/>
<path d="M223.971 174.49H186.546C185.533 174.5 184.565 174.911 183.855 175.634C183.145 176.357 182.75 177.332 182.759 178.346V255.39C182.751 256.403 183.146 257.378 183.856 258.101C184.566 258.823 185.533 259.235 186.546 259.245H223.971C224.473 259.242 224.971 259.14 225.434 258.944C225.897 258.748 226.317 258.463 226.67 258.105C227.023 257.747 227.302 257.323 227.491 256.857C227.679 256.391 227.775 255.893 227.771 255.39V178.346C227.775 177.843 227.68 177.344 227.491 176.878C227.303 176.412 227.024 175.988 226.671 175.629C226.318 175.271 225.898 174.986 225.434 174.791C224.971 174.595 224.474 174.493 223.971 174.49ZM225.393 253.009C225.393 255.036 223.876 256.676 222.002 256.676H188.521C186.644 256.676 185.124 255.052 185.124 253.009V181.266C185.124 177.137 186.644 176.936 188.521 176.936H195.225C195.615 176.936 195.937 177.378 195.937 177.91V178.148C195.937 179.447 196.638 179.447 197.505 179.447H213.015C213.885 179.447 214.584 179.447 214.584 178.148V177.91C214.584 177.362 214.909 176.936 215.295 176.936H222.002C223.876 176.936 225.393 177.485 225.393 181.266V253.009Z" fill="#455A64"/>
<path d="M207.376 177.849H203.154C203.119 177.849 203.085 177.842 203.054 177.829C203.022 177.815 202.993 177.796 202.969 177.771C202.945 177.747 202.926 177.718 202.913 177.686C202.9 177.654 202.894 177.62 202.894 177.586C202.894 177.517 202.921 177.451 202.97 177.402C203.019 177.353 203.085 177.326 203.154 177.326H207.376C207.445 177.326 207.511 177.353 207.56 177.402C207.609 177.451 207.636 177.517 207.636 177.586C207.637 177.62 207.63 177.654 207.617 177.686C207.604 177.718 207.585 177.747 207.561 177.771C207.537 177.796 207.508 177.815 207.476 177.829C207.445 177.842 207.411 177.849 207.376 177.849Z" fill="#263238"/>
<path d="M225.397 181.266V253.009C225.397 255.036 223.876 256.676 222.002 256.676H188.521C186.644 256.676 185.127 255.052 185.127 253.009V181.266C185.127 177.137 186.644 176.936 188.521 176.936H195.228C195.618 176.936 195.937 177.378 195.937 177.91V178.148C195.937 179.447 196.638 179.447 197.505 179.447H213.015C213.889 179.447 214.584 179.447 214.584 178.148V177.91C214.584 177.362 214.909 176.936 215.295 176.936H222.002C223.873 176.936 225.397 177.485 225.397 181.266Z" fill="white"/>
<path d="M225.393 181.266V186.622H185.117V181.266C185.117 177.137 186.637 176.936 188.515 176.936H195.222C195.612 176.936 195.93 177.378 195.93 177.91V178.148C195.93 179.447 196.635 179.447 197.499 179.447H213.008C213.879 179.447 214.581 179.447 214.581 178.148V177.91C214.581 177.362 214.905 176.936 215.289 176.936H221.996C223.873 176.936 225.393 177.485 225.393 181.266Z" fill="#8041FF"/>
<path d="M194.069 178.547L194.004 178.609L193.968 178.648C193.887 178.565 193.79 178.499 193.683 178.454C193.576 178.41 193.461 178.387 193.345 178.388C193.228 178.387 193.113 178.41 193.005 178.455C192.897 178.499 192.8 178.565 192.718 178.648L192.685 178.612L192.62 178.547L192.702 178.476C192.759 178.428 192.823 178.388 192.89 178.355C192.969 178.313 193.055 178.285 193.143 178.271L193.267 178.251H193.377H193.465C193.544 178.259 193.622 178.277 193.695 178.307C193.749 178.326 193.801 178.35 193.851 178.378C193.903 178.408 193.952 178.443 193.997 178.482L194.066 178.544L194.069 178.547Z" fill="white"/>
<path d="M192.926 178.852L192.822 178.748C192.935 178.636 193.082 178.563 193.241 178.541C193.354 178.523 193.469 178.533 193.578 178.569C193.686 178.605 193.784 178.667 193.864 178.748C193.832 178.784 193.796 178.817 193.764 178.849C193.649 178.744 193.497 178.688 193.341 178.693C193.187 178.689 193.038 178.747 192.926 178.852Z" fill="white"/>
<path d="M193.666 178.953L193.566 179.054C193.508 178.998 193.431 178.966 193.351 178.966C193.311 178.966 193.271 178.974 193.235 178.99C193.198 179.005 193.164 179.028 193.137 179.057L193.033 178.953C193.117 178.869 193.231 178.822 193.35 178.822C193.468 178.822 193.582 178.869 193.666 178.953Z" fill="white"/>
<path d="M193.436 179.148C193.436 179.173 193.427 179.196 193.41 179.213C193.393 179.23 193.369 179.24 193.345 179.24C193.321 179.24 193.298 179.23 193.28 179.213C193.263 179.196 193.254 179.173 193.254 179.148C193.254 179.124 193.263 179.101 193.28 179.084C193.298 179.067 193.321 179.057 193.345 179.057C193.369 179.057 193.393 179.067 193.41 179.084C193.427 179.101 193.436 179.124 193.436 179.148Z" fill="white"/>
<path d="M187.751 178.742C187.751 178.689 187.767 178.638 187.796 178.594C187.826 178.55 187.867 178.516 187.916 178.496C187.964 178.476 188.018 178.471 188.07 178.481C188.121 178.491 188.169 178.516 188.206 178.554C188.243 178.591 188.269 178.638 188.279 178.69C188.289 178.742 188.284 178.795 188.264 178.844C188.244 178.893 188.21 178.934 188.166 178.964C188.122 178.993 188.07 179.008 188.018 179.008C187.983 179.008 187.948 179.002 187.916 178.988C187.884 178.975 187.854 178.955 187.829 178.93C187.805 178.906 187.785 178.876 187.772 178.844C187.758 178.812 187.751 178.777 187.751 178.742Z" fill="white"/>
<path d="M188.593 178.742C188.593 178.689 188.608 178.638 188.638 178.594C188.667 178.55 188.708 178.516 188.757 178.496C188.806 178.476 188.859 178.471 188.911 178.481C188.963 178.491 189.01 178.516 189.047 178.554C189.085 178.591 189.11 178.638 189.12 178.69C189.131 178.742 189.125 178.795 189.105 178.844C189.085 178.893 189.051 178.934 189.007 178.964C188.963 178.993 188.912 179.008 188.859 179.008C188.788 179.008 188.721 178.98 188.671 178.93C188.621 178.88 188.593 178.813 188.593 178.742Z" fill="white"/>
<path d="M189.444 178.742C189.444 178.689 189.459 178.638 189.489 178.594C189.518 178.55 189.559 178.516 189.608 178.496C189.657 178.476 189.71 178.471 189.762 178.481C189.814 178.491 189.861 178.516 189.898 178.554C189.936 178.591 189.961 178.638 189.971 178.69C189.982 178.742 189.976 178.795 189.956 178.844C189.936 178.893 189.902 178.934 189.858 178.964C189.814 178.993 189.763 179.008 189.71 179.008C189.639 179.008 189.572 178.98 189.522 178.93C189.472 178.88 189.444 178.813 189.444 178.742Z" fill="white"/>
<path d="M190.272 178.742C190.271 178.688 190.287 178.636 190.316 178.591C190.345 178.546 190.387 178.511 190.437 178.49C190.486 178.47 190.541 178.464 190.593 178.474C190.646 178.485 190.694 178.51 190.732 178.548C190.77 178.586 190.796 178.634 190.806 178.687C190.816 178.74 190.811 178.794 190.79 178.843C190.769 178.893 190.734 178.935 190.689 178.964C190.644 178.994 190.592 179.009 190.538 179.008C190.468 179.008 190.4 178.98 190.35 178.93C190.3 178.88 190.272 178.813 190.272 178.742Z" fill="white"/>
<path d="M191.113 178.742C191.113 178.689 191.129 178.638 191.158 178.594C191.187 178.55 191.229 178.516 191.278 178.496C191.326 178.476 191.38 178.471 191.431 178.481C191.483 178.491 191.531 178.516 191.568 178.554C191.605 178.591 191.63 178.638 191.641 178.69C191.651 178.742 191.646 178.795 191.626 178.844C191.605 178.893 191.571 178.934 191.527 178.964C191.484 178.993 191.432 179.008 191.38 179.008C191.309 179.008 191.241 178.98 191.191 178.93C191.141 178.88 191.113 178.813 191.113 178.742Z" fill="white"/>
<path d="M222.376 179.343H220.2V178.333H222.376V179.343ZM220.3 179.213H222.249V178.43H220.3V179.213Z" fill="white"/>
<path d="M221.781 178.489H220.382V179.155H221.781V178.489Z" fill="white"/>
<path d="M222.567 178.554H222.376V179.093H222.567V178.554Z" fill="white"/>
<path d="M198.191 211.928L196.102 209.875C197.773 208.171 199.894 206.977 202.218 206.432C204.541 205.887 206.971 206.014 209.226 206.797C211.48 207.579 213.466 208.986 214.951 210.854C216.437 212.721 217.362 214.973 217.617 217.345L214.694 217.67C214.497 215.849 213.786 214.121 212.645 212.688C211.504 211.255 209.979 210.175 208.248 209.575C206.517 208.975 204.651 208.879 202.868 209.299C201.084 209.718 199.457 210.635 198.175 211.944L198.191 211.928Z" fill="#8041FF"/>
<path d="M211.998 215.802L215.227 223.299L220.105 216.754L211.998 215.802Z" fill="#8041FF"/>
<g opacity="0.2">
<path d="M198.191 211.928L196.102 209.875C197.773 208.171 199.894 206.977 202.218 206.432C204.541 205.887 206.971 206.014 209.226 206.797C211.48 207.579 213.466 208.986 214.951 210.854C216.437 212.721 217.362 214.973 217.617 217.345L214.694 217.67C214.497 215.849 213.786 214.121 212.645 212.688C211.504 211.255 209.979 210.175 208.248 209.575C206.517 208.975 204.651 208.879 202.868 209.299C201.084 209.718 199.457 210.635 198.175 211.944L198.191 211.928Z" fill="black"/>
<path d="M211.998 215.802L215.227 223.299L220.105 216.754L211.998 215.802Z" fill="black"/>
</g>
<path d="M200.214 229.506C198.228 228.595 196.511 227.186 195.231 225.415C193.95 223.645 193.149 221.573 192.906 219.401L195.81 219.077C196.013 220.949 196.758 222.721 197.954 224.176C199.15 225.631 200.745 226.705 202.543 227.266C204.341 227.827 206.264 227.85 208.075 227.334C209.886 226.817 211.507 225.783 212.739 224.358L214.954 226.268C213.169 228.317 210.773 229.738 208.119 230.321C205.465 230.905 202.693 230.619 200.214 229.506Z" fill="#8041FF"/>
<path d="M198.522 220.934L195.293 213.441L190.415 219.986L198.522 220.934Z" fill="#8041FF"/>
</svg>
